<?xml version="1.0" encoding="UTF-8" standalone="no"?>
<!-- Created with Inkscape (http://www.inkscape.org/) -->

<svg
   xmlns:dc="http://purl.org/dc/elements/1.1/"
   xmlns:cc="http://creativecommons.org/ns#"
   xmlns:rdf="http://www.w3.org/1999/02/22-rdf-syntax-ns#"
   xmlns:svg="http://www.w3.org/2000/svg"
   xmlns="http://www.w3.org/2000/svg"
   xmlns:sodipodi="http://sodipodi.sourceforge.net/DTD/sodipodi-0.dtd"
   xmlns:inkscape="http://www.inkscape.org/namespaces/inkscape"
   id="svg5021"
   version="1.1"
   inkscape:version="0.91 r13725"
   xml:space="preserve"
   width="309.5625"
   height="124.012496948"
   viewBox="0 0 309.5625 124.012496948"
   sodipodi:docname="FIT_zkratka_barevne_PANTONE_CZ.svg"><metadata
     id="metadata5027"><rdf:RDF><cc:Work
         rdf:about=""><dc:format>image/svg+xml</dc:format><dc:type
           rdf:resource="http://purl.org/dc/dcmitype/StillImage" /><dc:title></dc:title></cc:Work></rdf:RDF></metadata><defs
     id="defs5025" /><sodipodi:namedview
     pagecolor="#ffffff"
     bordercolor="#666666"
     borderopacity="1"
     objecttolerance="10"
     gridtolerance="10"
     guidetolerance="10"
     inkscape:pageopacity="0"
     inkscape:pageshadow="2"
     inkscape:window-width="640"
     inkscape:window-height="480"
     id="namedview5023"
     showgrid="false"
     inkscape:zoom="0.868001056993"
     inkscape:cx="-74.7806348006"
     inkscape:cy="-157.323040036"
     inkscape:current-layer="g5029" /><g
     id="g5029"
     inkscape:groupmode="layer"
     inkscape:label="ink_ext_XXXXXX"
     transform="matrix(1.25,0,0,-1.25,0,124.0125)"><g
       id="g5031"
       transform="scale(0.1,0.1)"><path
         d="m 0,0 992.129,0 0,992.129 L 0,992.129 0,0 Z"
         style="fill:#ed1738;fill-opacity:1;fill-rule:nonzero;stroke:none"
         id="path5033"
         inkscape:connector-curvature="0" /><path
         d="m 1032.41,0 1444.07,0 0,992.121 -1444.07,0 0,-992.121 z"
         style="fill:#36b1e8;fill-opacity:1;fill-rule:nonzero;stroke:none"
         id="path5035"
         inkscape:connector-curvature="0" /><path
         d="m 466.129,165.398 115.332,0 0,389.258 c 0,39.563 34.324,71.621 76.644,71.621 l 171.985,0 0,102.282 -363.961,-0.008 0,-563.153"
         style="fill:#ffffff;fill-opacity:1;fill-rule:nonzero;stroke:none"
         id="path5037"
         inkscape:connector-curvature="0" /><path
         d="m 466.129,840.355 -306.672,0 0,-111.804 306.672,0 0,111.804"
         style="fill:#ffffff;fill-opacity:1;fill-rule:nonzero;stroke:none"
         id="path5039"
         inkscape:connector-curvature="0" /><path
         d="m 1874.74,781.41 0,-80.82 155.43,0 0,-463.168 93.26,0 0,463.168 155.43,0 0,80.82 -404.12,0"
         style="fill:#ffffff;fill-opacity:1;fill-rule:nonzero;stroke:none"
         id="path5041"
         inkscape:connector-curvature="0" /><path
         d="m 1249.16,237.422 93.26,0 0,233.125 209.83,0 0,80.836 -209.83,0 0,149.207 225.36,0 0,80.82 -318.62,0 0,-543.988"
         style="fill:#ffffff;fill-opacity:1;fill-rule:nonzero;stroke:none"
         id="path5043"
         inkscape:connector-curvature="0" /><path
         d="m 1680.46,237.422 93.2578,0 0,543.988 -93.2578,0 0,-543.988 z"
         style="fill:#ffffff;fill-opacity:1;fill-rule:nonzero;stroke:none"
         id="path5045"
         inkscape:connector-curvature="0" /></g></g></svg>