<?xml version="1.0" encoding="UTF-8" standalone="no"?>
<!-- Created with Inkscape (http://www.inkscape.org/) -->

<svg
   xmlns:dc="http://purl.org/dc/elements/1.1/"
   xmlns:cc="http://creativecommons.org/ns#"
   xmlns:rdf="http://www.w3.org/1999/02/22-rdf-syntax-ns#"
   xmlns:svg="http://www.w3.org/2000/svg"
   xmlns="http://www.w3.org/2000/svg"
   xmlns:sodipodi="http://sodipodi.sourceforge.net/DTD/sodipodi-0.dtd"
   xmlns:inkscape="http://www.inkscape.org/namespaces/inkscape"
   id="svg4171"
   version="1.1"
   inkscape:version="0.91 r13725"
   xml:space="preserve"
   width="558.799987793"
   height="124.012496948"
   viewBox="0 0 558.799987793 124.012496948"
   sodipodi:docname="FIT_barevne_PANTONE_CZ.svg"><metadata
     id="metadata4177"><rdf:RDF><cc:Work
         rdf:about=""><dc:format>image/svg+xml</dc:format><dc:type
           rdf:resource="http://purl.org/dc/dcmitype/StillImage" /><dc:title></dc:title></cc:Work></rdf:RDF></metadata><defs
     id="defs4175" /><sodipodi:namedview
     pagecolor="#ffffff"
     bordercolor="#666666"
     borderopacity="1"
     objecttolerance="10"
     gridtolerance="10"
     guidetolerance="10"
     inkscape:pageopacity="0"
     inkscape:pageshadow="2"
     inkscape:window-width="640"
     inkscape:window-height="480"
     id="namedview4173"
     showgrid="false"
     inkscape:zoom="1.6803865793"
     inkscape:cx="279.399993896"
     inkscape:cy="62.0062484741"
     inkscape:current-layer="g4179" /><g
     id="g4179"
     inkscape:groupmode="layer"
     inkscape:label="ink_ext_XXXXXX"
     transform="matrix(1.25,0,0,-1.25,0,124.0125)"><g
       id="g4181"
       transform="scale(0.1,0.1)"><path
         d="m 4470.35,661.414 -434.45,0 0,330.715 -1149.39,0 0,-330.715 -366.3,0 0,-330.699 -483.96,0 0,-330.715 1719.85,0 0,330.703 714.25,0 0,330.711"
         style="fill:#08a5e8;fill-opacity:1;fill-rule:nonzero;stroke:none"
         id="path4183"
         inkscape:connector-curvature="0" /><path
         d="m 1032.41,992.129 0,-992.129 1003.84,0 0,330.715 483.94,0.008 0,330.691 366.32,0 0,330.715 -1854.1,0"
         style="fill:#da1c3c;fill-opacity:1;fill-rule:nonzero;stroke:none"
         id="path4185"
         inkscape:connector-curvature="0" /><path
         d="m 0,0 992.117,0 0,992.121 L 0,992.121 0,0 Z"
         style="fill:#da1c3c;fill-opacity:1;fill-rule:nonzero;stroke:none"
         id="path4187"
         inkscape:connector-curvature="0" /><path
         d="m 1981.57,942.699 -30.85,0 -19.79,-31.086 21.91,0 28.73,31.086"
         style="fill:#ffffff;fill-opacity:1;fill-rule:nonzero;stroke:none"
         id="path4189"
         inkscape:connector-curvature="0" /><path
         d="m 1910.92,408.262 28.2578,0 0,164.867 -28.2578,0 0,-164.867 z"
         style="fill:#ffffff;fill-opacity:1;fill-rule:nonzero;stroke:none"
         id="path4191"
         inkscape:connector-curvature="0" /><path
         d="m 2061.65,573.129 -37.68,0 c -23.79,0 -40.04,-16.25 -40.04,-40.039 l 0,-84.789 c 0,-23.789 16.25,-40.039 40.04,-40.039 l 37.68,0 c 23.79,0 40.04,16.25 40.04,40.039 l 0,10.137 -28.26,0 0,-11.543 c 0,-8.477 -5.65,-14.141 -14.13,-14.141 l -32.98,0 c -8.48,0 -14.13,5.664 -14.13,14.141 l 0,87.617 c 0,8.472 5.65,14.14 14.13,14.14 l 32.98,0 c 8.48,0 14.13,-5.668 14.13,-14.14 l 0,-11.551 28.26,0 0,10.129 c 0,23.789 -16.25,40.039 -40.04,40.039"
         style="fill:#ffffff;fill-opacity:1;fill-rule:nonzero;stroke:none"
         id="path4193"
         inkscape:connector-curvature="0" /><path
         d="m 2261.61,573.129 -30.85,0 -58.88,-75.363 -1.18,0 0,75.363 -28.26,0 0,-164.867 28.26,0 0,48.281 18.14,23.32 46.39,-71.601 34.16,0 -61.95,95.398 54.17,69.469"
         style="fill:#ffffff;fill-opacity:1;fill-rule:nonzero;stroke:none"
         id="path4195"
         inkscape:connector-curvature="0" /><path
         d="m 1536.43,448.301 0,10.137 -28.27,0 0,-11.543 c 0,-8.477 -5.65,-14.141 -14.13,-14.141 l -32.97,0 c -8.48,0 -14.13,5.664 -14.13,14.141 l 0,87.617 c 0,8.472 5.65,14.14 14.13,14.14 l 32.97,0 c 8.48,0 14.13,-5.668 14.13,-14.14 l 0,-11.551 28.27,0 0,10.129 c 0,23.789 -16.25,40.039 -40.04,40.039 l -37.69,0 c -23.79,0 -40.04,-16.25 -40.04,-40.039 l 0,-84.789 c 0,-23.789 16.25,-40.039 40.04,-40.039 l 37.69,0 c 23.79,0 40.04,16.25 40.04,40.039"
         style="fill:#ffffff;fill-opacity:1;fill-rule:nonzero;stroke:none"
         id="path4197"
         inkscape:connector-curvature="0" /><path
         d="m 2331.09,580.902 21.91,0 28.73,31.102 -30.85,0 -19.79,-31.102"
         style="fill:#ffffff;fill-opacity:1;fill-rule:nonzero;stroke:none"
         id="path4199"
         inkscape:connector-curvature="0" /><path
         d="m 2327.81,478.926 68.3,0 0,24.488 -68.3,0 0,45.238 73,0 0,24.477 -101.29,0 0,-164.867 103.66,0 0,24.492 -75.37,0 0,46.172"
         style="fill:#ffffff;fill-opacity:1;fill-rule:nonzero;stroke:none"
         id="path4201"
         inkscape:connector-curvature="0" /><path
         d="m 1380.98,432.754 -75.37,0 0,46.172 68.3,0 0,24.488 -68.3,0 0,45.238 73.01,0 0,24.477 -101.27,0 0,-164.867 103.63,0 0,24.492"
         style="fill:#ffffff;fill-opacity:1;fill-rule:nonzero;stroke:none"
         id="path4203"
         inkscape:connector-curvature="0" /><path
         d="m 1199.62,408.262 0,140.39 47.11,0 0,24.477 -122.48,0 0,-24.477 47.11,0 0,-140.39 28.26,0"
         style="fill:#ffffff;fill-opacity:1;fill-rule:nonzero;stroke:none"
         id="path4205"
         inkscape:connector-curvature="0" /><path
         d="m 1866.17,408.262 0,164.867 -28.27,0 0,-112.816 -0.94,0 -65.01,112.816 -28.26,0 0,-164.867 28.26,0 0,112.816 0.95,0 65,-112.816 28.27,0"
         style="fill:#ffffff;fill-opacity:1;fill-rule:nonzero;stroke:none"
         id="path4207"
         inkscape:connector-curvature="0" /><path
         d="m 1604.73,478.926 65.95,0 0,-70.664 28.26,0 0,164.867 -28.26,0 0,-69.715 -65.95,0 0,69.715 -28.27,0 0,-164.867 28.27,0 0,70.664"
         style="fill:#ffffff;fill-opacity:1;fill-rule:nonzero;stroke:none"
         id="path4209"
         inkscape:connector-curvature="0" /><path
         d="m 1424.79,116.191 c 0,-8.496 -5.66,-14.14 -14.14,-14.14 l -47.1,0 0,46.172 48.52,0 c 7.53,0 12.72,-5.196 12.72,-12.735 l 0,-19.297 z m -61.24,101.739 43.57,0 c 8.48,0 14.13,-5.664 14.13,-14.141 l 0,-18.359 c 0,-7.539 -5.18,-12.735 -12.72,-12.735 l -44.98,0 0,45.235 z m 68.54,-56.992 0,0.937 c 10.83,5.891 17.43,16.953 17.43,31.328 l 0,9.18 c 0,23.789 -16.26,40.039 -40.04,40.039 l -74.2,0 0,-164.8634 77.73,0 c 23.79,0 40.04,16.25 40.04,40.0394 l 0,10.351 c 0,15.781 -8.01,27.559 -20.96,32.989"
         style="fill:#ffffff;fill-opacity:1;fill-rule:nonzero;stroke:none"
         id="path4211"
         inkscape:connector-curvature="0" /><path
         d="m 1854.62,281.289 -24.26,0 22.38,-31.094 28.73,0 22.38,31.094 -23.32,0 -12.95,-16.719 -12.96,16.719"
         style="fill:#ffffff;fill-opacity:1;fill-rule:nonzero;stroke:none"
         id="path4213"
         inkscape:connector-curvature="0" /><path
         d="m 1742.75,129.609 -0.95,0 -65,112.813 -28.27,0 0,-164.8634 28.27,0 0,112.8124 0.94,0 65.01,-112.8124 28.26,0 0,164.8634 -28.26,0 0,-112.813"
         style="fill:#ffffff;fill-opacity:1;fill-rule:nonzero;stroke:none"
         id="path4215"
         inkscape:connector-curvature="0" /><path
         d="m 1186.67,116.66 -0.94,0 -39.1,125.762 -29.44,0 53.23,-164.8634 29.21,0 53.23,164.8634 -26.86,0 -39.33,-125.762"
         style="fill:#ffffff;fill-opacity:1;fill-rule:nonzero;stroke:none"
         id="path4217"
         inkscape:connector-curvature="0" /><path
         d="m 1566.1,165.645 -44.75,0 0,52.285 44.75,0 c 8.48,0 14.13,-5.664 14.13,-14.141 l 0,-24.023 c 0,-8.477 -5.65,-14.121 -14.13,-14.121 z m 42.4,15.546 0,21.192 c 0,23.789 -16.26,40.039 -40.04,40.039 l -75.37,0 0,-164.8634 28.26,0 0,63.5934 27.56,0 33.21,-63.5934 31.09,0 -33.92,64.7654 c 17.67,4.239 29.21,18.848 29.21,38.867"
         style="fill:#ffffff;fill-opacity:1;fill-rule:nonzero;stroke:none"
         id="path4219"
         inkscape:connector-curvature="0" /><path
         d="m 1844.02,148.223 68.31,0 0,24.472 -68.31,0 0,45.235 73.02,0 0,24.492 -101.28,0 0,-164.8634 103.63,0 0,24.4924 -75.37,0 0,46.172"
         style="fill:#ffffff;fill-opacity:1;fill-rule:nonzero;stroke:none"
         id="path4221"
         inkscape:connector-curvature="0" /><path
         d="m 2740.21,738.969 28.2578,0 0,164.871 -28.2578,0 0,-164.871 z"
         style="fill:#ffffff;fill-opacity:1;fill-rule:nonzero;stroke:none"
         id="path4223"
         inkscape:connector-curvature="0" /><path
         d="m 2191.43,738.969 c 23.78,0 40.04,16.25 40.04,40.039 l 0,124.832 -28.27,0 0,-126.242 c 0,-8.477 -5.65,-14.125 -14.13,-14.125 l -37.68,0 c -8.48,0 -14.14,5.648 -14.14,14.125 l 0,126.242 -28.26,0 0,-124.832 c 0,-23.789 16.25,-40.039 40.04,-40.039 l 42.4,0"
         style="fill:#ffffff;fill-opacity:1;fill-rule:nonzero;stroke:none"
         id="path4225"
         inkscape:connector-curvature="0" /><path
         d="m 2793.67,942.699 -30.84,0 -19.8,-31.086 21.91,0 28.73,31.086"
         style="fill:#ffffff;fill-opacity:1;fill-rule:nonzero;stroke:none"
         id="path4227"
         inkscape:connector-curvature="0" /><path
         d="m 1320.45,738.969 28.26,0 0,69.953 56.06,94.918 -29.44,0 -38.39,-67.59 -0.95,0 -36.5,67.59 -32.51,0 53.47,-94.918 0,-69.953"
         style="fill:#ffffff;fill-opacity:1;fill-rule:nonzero;stroke:none"
         id="path4229"
         inkscape:connector-curvature="0" /><path
         d="m 1770.54,787.25 18.14,23.32 46.4,-71.601 34.15,0 -61.95,95.39 54.17,69.481 -30.85,0 -58.88,-75.367 -1.18,0 0,75.367 -28.26,0 0,-164.871 28.26,0 0,48.281"
         style="fill:#ffffff;fill-opacity:1;fill-rule:nonzero;stroke:none"
         id="path4231"
         inkscape:connector-curvature="0" /><path
         d="m 2316.26,738.969 37.68,0 c 23.79,0 40.04,16.25 40.04,40.039 l 0,10.14 -28.26,0 0,-11.55 c 0,-8.477 -5.67,-14.125 -14.14,-14.125 l -32.97,0 c -8.48,0 -14.12,5.648 -14.12,14.125 l 0,87.613 c 0,8.48 5.64,14.141 14.12,14.141 l 32.97,0 c 8.47,0 14.14,-5.661 14.14,-14.141 l 0,-11.543 28.26,0 0,10.133 c 0,23.789 -16.25,40.039 -40.04,40.039 l -37.68,0 c -23.78,0 -40.03,-16.25 -40.03,-40.039 l 0,-84.793 c 0,-23.789 16.25,-40.039 40.03,-40.039"
         style="fill:#ffffff;fill-opacity:1;fill-rule:nonzero;stroke:none"
         id="path4233"
         inkscape:connector-curvature="0" /><path
         d="m 1607.32,865.211 c 0,8.48 5.65,14.141 14.13,14.141 l 37.69,0 c 8.47,0 14.13,-5.661 14.13,-14.141 l 0,-87.613 c 0,-8.477 -5.66,-14.125 -14.13,-14.125 l -37.69,0 c -8.48,0 -14.13,5.648 -14.13,14.125 l 0,87.613 z m 11.78,-126.242 42.39,0 c 23.79,0 40.04,16.25 40.04,40.039 l 0,84.793 c 0,23.789 -16.25,40.039 -40.04,40.039 l -42.39,0 c -23.79,0 -40.04,-16.25 -40.04,-40.039 l 0,-84.793 c 0,-23.789 16.25,-40.039 40.04,-40.039"
         style="fill:#ffffff;fill-opacity:1;fill-rule:nonzero;stroke:none"
         id="path4235"
         inkscape:connector-curvature="0" /><path
         d="m 2003.01,763.473 -75.37,0 0,46.156 68.3,0 0,24.492 -68.3,0 0,45.231 73.01,0 0,24.488 -101.28,0 0,-164.871 103.64,0 0,24.504"
         style="fill:#ffffff;fill-opacity:1;fill-rule:nonzero;stroke:none"
         id="path4237"
         inkscape:connector-curvature="0" /><path
         d="m 2459.94,809.629 68.3,0 0,24.492 -68.3,0 0,45.231 73,0 0,24.488 -101.28,0 0,-164.871 103.64,0 0,24.504 -75.36,0 0,46.156"
         style="fill:#ffffff;fill-opacity:1;fill-rule:nonzero;stroke:none"
         id="path4239"
         inkscape:connector-curvature="0" /><path
         d="m 1186.67,778.07 -0.94,0 -39.1,125.77 -29.44,0 53.23,-164.871 29.21,0 53.23,164.871 -26.86,0 -39.33,-125.77"
         style="fill:#ffffff;fill-opacity:1;fill-rule:nonzero;stroke:none"
         id="path4241"
         inkscape:connector-curvature="0" /><path
         d="m 2348.99,911.613 22.38,31.086 -23.32,0 -12.95,-16.719 -12.96,16.719 -24.25,0 22.37,-31.086 28.73,0"
         style="fill:#ffffff;fill-opacity:1;fill-rule:nonzero;stroke:none"
         id="path4243"
         inkscape:connector-curvature="0" /><path
         d="m 1458.94,738.969 37.68,0 c 23.79,0 40.04,16.25 40.04,40.039 l 0,15.07 c 0,23.793 -16.25,40.043 -40.04,40.043 l -32.97,0 c -8.48,0 -14.13,5.66 -14.13,14.141 l 0,16.949 c 0,8.48 5.65,14.141 14.13,14.141 l 29.44,0 c 8.48,0 14.13,-5.661 14.13,-14.141 l 0,-11.543 28.26,0 0,10.133 c 0,23.789 -16.25,40.039 -40.04,40.039 l -34.15,0 c -23.79,0 -40.04,-16.25 -40.04,-40.039 l 0,-14.133 c 0,-23.789 16.25,-40.039 40.04,-40.039 l 32.98,0 c 8.48,0 14.13,-5.649 14.13,-14.133 l 0,-17.898 c 0,-8.477 -5.65,-14.125 -14.13,-14.125 l -32.98,0 c -8.48,0 -14.13,5.648 -14.13,14.125 l 0,11.55 -28.26,0 0,-10.14 c 0,-23.789 16.25,-40.039 40.04,-40.039"
         style="fill:#ffffff;fill-opacity:1;fill-rule:nonzero;stroke:none"
         id="path4245"
         inkscape:connector-curvature="0" /><path
         d="m 2601.25,851.785 0.93,0 65.01,-112.816 28.25,0 0,164.871 -28.25,0 0,-112.82 -0.94,0 -65,112.82 -28.27,0 0,-164.871 28.27,0 0,112.816"
         style="fill:#ffffff;fill-opacity:1;fill-rule:nonzero;stroke:none"
         id="path4247"
         inkscape:connector-curvature="0" /><path
         d="m 3290.2,787.25 18.14,23.32 46.4,-71.593 34.15,0 -61.96,95.382 54.18,69.485 -30.86,0 -58.87,-75.371 -1.18,0 0,75.371 -28.27,0 0,-164.867 28.27,0 0,48.273"
         style="fill:#ffffff;fill-opacity:1;fill-rule:nonzero;stroke:none"
         id="path4249"
         inkscape:connector-curvature="0" /><path
         d="m 3459.07,738.977 42.39,0 c 23.79,0 40.04,16.25 40.04,40.039 l 0,124.828 -28.25,0 0,-126.242 c 0,-8.493 -5.65,-14.141 -14.13,-14.141 l -37.69,0 c -8.48,0 -14.14,5.648 -14.14,14.141 l 0,126.242 -28.27,0 0,-124.828 c 0,-23.789 16.26,-40.039 40.05,-40.039"
         style="fill:#ffffff;fill-opacity:1;fill-rule:nonzero;stroke:none"
         id="path4251"
         inkscape:connector-curvature="0" /><path
         d="m 3157.61,867.574 0.93,0 20.74,-62.422 -42.64,0 20.97,62.422 z m -28.99,-86.91 58.66,0 13.88,-41.687 29.46,0 -56.76,164.867 -29.21,0 -56.76,-164.867 26.85,0 13.88,41.687"
         style="fill:#ffffff;fill-opacity:1;fill-rule:nonzero;stroke:none"
         id="path4253"
         inkscape:connector-curvature="0" /><path
         d="m 3013.71,809.633 63.58,0 0,24.476 -63.58,0 0,45.231 68.29,0 0,24.504 -96.57,0 0,-164.867 28.28,0 0,70.656"
         style="fill:#ffffff;fill-opacity:1;fill-rule:nonzero;stroke:none"
         id="path4255"
         inkscape:connector-curvature="0" /><path
         d="m 3728.75,738.977 28.28,0 0,140.363 47.09,0 0,24.504 -122.46,0 0,-24.504 47.09,0 0,-140.363"
         style="fill:#ffffff;fill-opacity:1;fill-rule:nonzero;stroke:none"
         id="path4257"
         inkscape:connector-curvature="0" /><path
         d="m 3682.82,763.461 -68.29,0 0,140.383 -28.26,0 0,-164.867 96.55,0 0,24.484"
         style="fill:#ffffff;fill-opacity:1;fill-rule:nonzero;stroke:none"
         id="path4259"
         inkscape:connector-curvature="0" /><path
         d="m 3871.47,867.574 0.97,0 20.7,-62.422 -42.61,0 20.94,62.422 z m 29.69,-86.91 13.9,-41.687 29.44,0 -56.78,164.867 -29.19,0 -56.75,-164.867 26.83,0 13.91,41.687 58.64,0"
         style="fill:#ffffff;fill-opacity:1;fill-rule:nonzero;stroke:none"
         id="path4261"
         inkscape:connector-curvature="0" /><path
         d="m 2821.67,408.262 0,164.879 -28.26,0 0,-112.821 -0.94,0 -65.01,112.821 -28.26,0 0,-164.879 28.26,0 0,112.828 0.95,0 65,-112.828 28.26,0"
         style="fill:#ffffff;fill-opacity:1;fill-rule:nonzero;stroke:none"
         id="path4263"
         inkscape:connector-curvature="0" /><path
         d="m 3394.95,408.262 44.49,101.504 1.19,0 0,-101.504 28.04,0 0,164.879 -27.09,0 -45.69,-104.821 -0.94,0 -45.69,104.821 -29.47,0 0,-164.879 28.29,0 0,101.504 1.18,0 44.27,-101.504 1.42,0"
         style="fill:#ffffff;fill-opacity:1;fill-rule:nonzero;stroke:none"
         id="path4265"
         inkscape:connector-curvature="0" /><path
         d="m 3548.04,474.453 20.95,62.402 0.96,0 20.7,-62.402 -42.61,0 z m 93.98,-66.191 -56.78,164.879 -29.2,0 -56.75,-164.879 26.85,0 13.89,41.699 58.65,0 13.9,-41.699 29.44,0"
         style="fill:#ffffff;fill-opacity:1;fill-rule:nonzero;stroke:none"
         id="path4267"
         inkscape:connector-curvature="0" /><path
         d="m 3192.63,548.637 44.74,0 c 8.49,0 14.12,-5.649 14.12,-14.129 l 0,-24.02 c 0,-8.48 -5.63,-14.129 -14.12,-14.129 l -44.74,0 0,52.278 z m 60.77,-140.375 31.09,0 -33.93,64.765 c 17.67,4.239 29.2,18.848 29.2,38.871 l 0,21.188 c 0,23.805 -16.25,40.055 -40.04,40.055 l -75.35,0 0,-164.879 28.26,0 0,63.593 27.56,0 33.21,-63.593"
         style="fill:#ffffff;fill-opacity:1;fill-rule:nonzero;stroke:none"
         id="path4269"
         inkscape:connector-curvature="0" /><path
         d="m 4000.49,580.906 21.9,0 28.73,31.09 -30.86,0 -19.77,-31.09"
         style="fill:#ffffff;fill-opacity:1;fill-rule:nonzero;stroke:none"
         id="path4271"
         inkscape:connector-curvature="0" /><path
         d="m 2626.19,408.262 28.25,0 0,164.879 -28.25,0 0,-164.879 z"
         style="fill:#ffffff;fill-opacity:1;fill-rule:nonzero;stroke:none"
         id="path4273"
         inkscape:connector-curvature="0" /><path
         d="m 3039.54,432.754 c -8.5,0 -14.14,5.664 -14.14,14.141 l 0,87.613 c 0,8.48 5.64,14.129 14.14,14.129 l 37.68,0 c 8.47,0 14.12,-5.649 14.12,-14.129 l 0,-87.613 c 0,-8.477 -5.65,-14.141 -14.12,-14.141 l -37.68,0 z m 80.08,15.547 0,84.785 c 0,23.805 -16.26,40.055 -40.04,40.055 l -42.41,0 c -23.78,0 -40.03,-16.25 -40.03,-40.055 l 0,-84.785 c 0,-23.789 16.25,-40.039 40.03,-40.039 l 42.41,0 c 23.78,0 40.04,16.25 40.04,40.039"
         style="fill:#ffffff;fill-opacity:1;fill-rule:nonzero;stroke:none"
         id="path4275"
         inkscape:connector-curvature="0" /><path
         d="m 2958.28,503.418 -63.6,0 0,45.219 68.31,0 0,24.504 -96.57,0 0,-164.879 28.26,0 0,70.664 63.6,0 0,24.492"
         style="fill:#ffffff;fill-opacity:1;fill-rule:nonzero;stroke:none"
         id="path4277"
         inkscape:connector-curvature="0" /><path
         d="m 3750.36,573.141 -37.69,0 c -23.79,0 -40.04,-16.25 -40.04,-40.055 l 0,-84.785 c 0,-23.789 16.25,-40.039 40.04,-40.039 l 37.69,0 c 23.79,0 40.04,16.25 40.04,40.039 l 0,10.137 -28.27,0 0,-11.543 c 0,-8.477 -5.66,-14.141 -14.13,-14.141 l -32.97,0 c -8.5,0 -14.13,5.664 -14.13,14.141 l 0,87.613 c 0,8.48 5.63,14.129 14.13,14.129 l 32.97,0 c 8.47,0 14.13,-5.649 14.13,-14.129 l 0,-11.539 28.27,0 0,10.117 c 0,23.805 -16.25,40.055 -40.04,40.055"
         style="fill:#ffffff;fill-opacity:1;fill-rule:nonzero;stroke:none"
         id="path4279"
         inkscape:connector-curvature="0" /><path
         d="m 3924.65,460.32 -0.94,0 -65.01,112.821 -28.26,0 0,-164.879 28.26,0 0,112.828 0.94,0 65.01,-112.828 28.26,0 0,164.879 -28.26,0 0,-112.821"
         style="fill:#ffffff;fill-opacity:1;fill-rule:nonzero;stroke:none"
         id="path4281"
         inkscape:connector-curvature="0" /><path
         d="m 4322.68,573.141 0,-69.723 -65.94,0 0,69.723 -28.27,0 0,-164.879 28.27,0 0,70.664 65.94,0 0,-70.664 28.26,0 0,164.879 -28.26,0"
         style="fill:#ffffff;fill-opacity:1;fill-rule:nonzero;stroke:none"
         id="path4283"
         inkscape:connector-curvature="0" /><path
         d="m 3731.51,595.277 -12.97,16.719 -24.25,0 22.39,-31.09 28.73,0 22.37,31.09 -23.32,0 -12.95,-16.719"
         style="fill:#ffffff;fill-opacity:1;fill-rule:nonzero;stroke:none"
         id="path4285"
         inkscape:connector-curvature="0" /><path
         d="m 3997.66,408.262 28.2617,0 0,164.879 -28.2617,0 0,-164.879 z"
         style="fill:#ffffff;fill-opacity:1;fill-rule:nonzero;stroke:none"
         id="path4287"
         inkscape:connector-curvature="0" /><path
         d="m 4148.4,573.141 -37.71,0 c -23.79,0 -40.04,-16.25 -40.04,-40.055 l 0,-84.785 c 0,-23.789 16.25,-40.039 40.04,-40.039 l 37.71,0 c 23.78,0 40.03,16.25 40.03,40.039 l 0,10.137 -28.26,0 0,-11.543 c 0,-8.477 -5.65,-14.141 -14.14,-14.141 l -32.97,0 c -8.47,0 -14.12,5.664 -14.12,14.141 l 0,87.613 c 0,8.48 5.65,14.129 14.12,14.129 l 32.97,0 c 8.49,0 14.14,-5.649 14.14,-14.129 l 0,-11.539 28.26,0 0,10.117 c 0,23.805 -16.25,40.055 -40.03,40.055"
         style="fill:#ffffff;fill-opacity:1;fill-rule:nonzero;stroke:none"
         id="path4289"
         inkscape:connector-curvature="0" /><path
         d="m 3103.19,242.422 -28.27,0 0,-164.8634 96.57,0 0,24.4924 -68.3,0 0,140.371"
         style="fill:#ffffff;fill-opacity:1;fill-rule:nonzero;stroke:none"
         id="path4291"
         inkscape:connector-curvature="0" /><path
         d="m 3001.91,116.191 c 0,-8.496 -5.66,-14.14 -14.13,-14.14 l -37.69,0 c -8.48,0 -14.14,5.644 -14.14,14.14 l 0,87.598 c 0,8.477 5.66,14.141 14.14,14.141 l 37.69,0 c 8.47,0 14.13,-5.664 14.13,-14.141 l 0,-87.598 z m -11.78,126.231 -42.39,0 c -23.79,0 -40.04,-16.25 -40.04,-40.039 l 0,-84.785 c 0,-23.7894 16.25,-40.0394 40.04,-40.0394 l 42.39,0 c 23.79,0 40.04,16.25 40.04,40.0394 l 0,84.785 c 0,23.789 -16.25,40.039 -40.04,40.039"
         style="fill:#ffffff;fill-opacity:1;fill-rule:nonzero;stroke:none"
         id="path4293"
         inkscape:connector-curvature="0" /><path
         d="m 3299.85,116.191 c 0,-8.496 -5.66,-14.14 -14.13,-14.14 l -37.7,0 c -8.47,0 -14.12,5.644 -14.12,14.14 l 0,87.598 c 0,8.477 5.65,14.141 14.12,14.141 l 37.7,0 c 8.47,0 14.13,-5.664 14.13,-14.141 l 0,-87.598 z m -11.79,126.231 -42.38,0 c -23.79,0 -40.04,-16.25 -40.04,-40.039 l 0,-84.785 c 0,-23.7894 16.25,-40.0394 40.04,-40.0394 l 42.38,0 c 23.8,0 40.05,16.25 40.05,40.0394 l 0,84.785 c 0,23.789 -16.25,40.039 -40.05,40.039"
         style="fill:#ffffff;fill-opacity:1;fill-rule:nonzero;stroke:none"
         id="path4295"
         inkscape:connector-curvature="0" /><path
         d="m 3450.58,242.422 -37.68,0 c -23.79,0 -40.04,-16.25 -40.04,-40.039 l 0,-84.785 c 0,-23.7894 16.25,-40.0394 40.04,-40.0394 l 37.68,0 c 23.8,0 40.05,16.25 40.05,40.0394 l 0,43.34 -61.24,0 0,-24.512 32.97,0 0,-20.235 c 0,-8.496 -5.65,-14.14 -14.13,-14.14 l -32.97,0 c -8.49,0 -14.13,5.644 -14.13,14.14 l 0,87.598 c 0,8.477 5.64,14.141 14.13,14.141 l 32.97,0 c 8.48,0 14.13,-5.664 14.13,-14.141 l 0,-11.543 28.27,0 0,10.137 c 0,23.789 -16.25,40.039 -40.05,40.039"
         style="fill:#ffffff;fill-opacity:1;fill-rule:nonzero;stroke:none"
         id="path4297"
         inkscape:connector-curvature="0" /><path
         d="m 3535.38,77.5586 28.2617,0 0,164.863 -28.2617,0 0,-164.863 z"
         style="fill:#ffffff;fill-opacity:1;fill-rule:nonzero;stroke:none"
         id="path4299"
         inkscape:connector-curvature="0" /><path
         d="m 2302.39,148.223 68.3,0 0,24.472 -68.3,0 0,45.235 73.02,0 0,24.492 -101.28,0 0,-164.8634 103.63,0 0,24.4924 -75.37,0 0,46.172"
         style="fill:#ffffff;fill-opacity:1;fill-rule:nonzero;stroke:none"
         id="path4301"
         inkscape:connector-curvature="0" /><path
         d="m 2667.46,172.695 -65.95,0 0,69.727 -28.27,0 0,-164.8634 28.27,0 0,70.6644 65.95,0 0,-70.6644 28.26,0 0,164.8634 -28.26,0 0,-69.727"
         style="fill:#ffffff;fill-opacity:1;fill-rule:nonzero;stroke:none"
         id="path4303"
         inkscape:connector-curvature="0" /><path
         d="m 2834.68,129.609 -0.93,0 -65.02,112.813 -28.27,0 0,-164.8634 28.27,0 0,112.8124 0.95,0 65,-112.8124 28.26,0 0,164.8634 -28.26,0 0,-112.813"
         style="fill:#ffffff;fill-opacity:1;fill-rule:nonzero;stroke:none"
         id="path4305"
         inkscape:connector-curvature="0" /><path
         d="m 2493.17,242.422 -37.69,0 c -23.79,0 -40.04,-16.25 -40.04,-40.039 l 0,-84.785 c 0,-23.7894 16.25,-40.0394 40.04,-40.0394 l 37.69,0 c 23.79,0 40.04,16.25 40.04,40.0394 l 0,10.136 -28.27,0 0,-11.543 c 0,-8.496 -5.65,-14.14 -14.13,-14.14 l -32.97,0 c -8.48,0 -14.13,5.644 -14.13,14.14 l 0,87.598 c 0,8.477 5.65,14.141 14.13,14.141 l 32.97,0 c 8.48,0 14.13,-5.664 14.13,-14.141 l 0,-11.543 28.27,0 0,10.137 c 0,23.789 -16.25,40.039 -40.04,40.039"
         style="fill:#ffffff;fill-opacity:1;fill-rule:nonzero;stroke:none"
         id="path4307"
         inkscape:connector-curvature="0" /><path
         d="m 3608.4,77.5586 28.25,0 0,164.863 -28.25,0 0,-164.863 z"
         style="fill:#ffffff;fill-opacity:1;fill-rule:nonzero;stroke:none"
         id="path4309"
         inkscape:connector-curvature="0" /><path
         d="m 2121.03,217.93 47.11,0 0,-140.3714 28.26,0 0,140.3714 47.11,0 0,24.492 -122.48,0 0,-24.492"
         style="fill:#ffffff;fill-opacity:1;fill-rule:nonzero;stroke:none"
         id="path4311"
         inkscape:connector-curvature="0" /><path
         d="m 3611.21,250.195 21.91,0 28.73,31.094 -30.86,0 -19.78,-31.094"
         style="fill:#ffffff;fill-opacity:1;fill-rule:nonzero;stroke:none"
         id="path4313"
         inkscape:connector-curvature="0" /><path
         d="m 581.453,165.41 0,389.246 c 0,39.563 34.328,71.621 76.649,71.621 l 171.992,0 0,102.293 -363.973,-0.011 0,-563.149 115.332,0"
         style="fill:#ffffff;fill-opacity:1;fill-rule:nonzero;stroke:none"
         id="path4315"
         inkscape:connector-curvature="0" /><path
         d="m 466.121,728.57 0,111.801 -306.668,0 0,-111.812 306.668,0 0,0.011"
         style="fill:#ffffff;fill-opacity:1;fill-rule:nonzero;stroke:none"
         id="path4317"
         inkscape:connector-curvature="0" /></g></g></svg>