<?xml version="1.0" encoding="UTF-8" standalone="no"?>
<!-- Created with Inkscape (http://www.inkscape.org/) -->

<svg
   xmlns:dc="http://purl.org/dc/elements/1.1/"
   xmlns:cc="http://creativecommons.org/ns#"
   xmlns:rdf="http://www.w3.org/1999/02/22-rdf-syntax-ns#"
   xmlns:svg="http://www.w3.org/2000/svg"
   xmlns="http://www.w3.org/2000/svg"
   version="1.1"
   width="613.75"
   height="173.75"
   id="svg2"
   xml:space="preserve"><metadata
     id="metadata8"><rdf:RDF><cc:Work
         rdf:about=""><dc:format>image/svg+xml</dc:format><dc:type
           rdf:resource="http://purl.org/dc/dcmitype/StillImage" /><dc:title></dc:title></cc:Work></rdf:RDF></metadata><defs
     id="defs6"><clipPath
       id="clipPath18"><path
         d="m 0,1388.53 4910,0 0,-1379.99875 -4910,0 L 0,1388.53 z"
         id="path20" /></clipPath></defs><g
     transform="matrix(1.25,0,0,-1.25,0,173.75)"
     id="g10"><g
       transform="scale(0.1,0.1)"
       id="g12"><g
         id="g14"><g
           clip-path="url(#clipPath18)"
           id="g16"><path
             d="m 1193.28,820.172 108.09,0 98.43,-283.363 102.31,283.363 108.09,0 -164.85,-405.352 -97.26,0 -154.81,405.352 z"
             id="path22"
             style="fill:#f6914b;fill-opacity:1;fill-rule:nonzero;stroke:none" /><path
             d="m 1701.45,520.602 c 25.5,-13.911 52.89,-20.864 82.22,-20.864 61.02,0 91.53,42.852 91.53,128.563 0,72.847 -33.75,109.25 -101.18,109.25 -29.06,0 -53.24,-1.789 -72.57,-5.391 l 0,-211.558 z M 1599.18,803.57 c 53.75,11.051 110.62,16.602 170.62,16.602 137.7,0 206.53,-64.223 206.53,-192.66 0,-141.793 -64.1,-212.692 -192.27,-212.692 -27.26,0 -54.8,6.442 -82.61,19.328 l 0,-166.007 -102.27,0 0,535.429 z"
             id="path24"
             style="fill:#f6914b;fill-opacity:1;fill-rule:nonzero;stroke:none" /><path
             d="m 1994.22,434.121 0,84.918 c 45.04,-18.008 97.03,-26.988 155.98,-26.988 44.02,0 66.01,14.14 66.01,42.461 0,27.027 -14.8,40.539 -44.37,40.539 l -73.36,0 c -82.35,0 -123.56,40.508 -123.56,121.57 0,84.957 60.12,127.418 180.31,127.418 50.94,0 98.95,-7.699 143.99,-23.168 l 0,-84.922 c -45.04,18.012 -93.95,27.031 -146.72,27.031 -55.31,0 -82.97,-14.179 -82.97,-42.46 0,-27.032 16.06,-40.54 48.24,-40.54 l 65.63,0 c 90.08,0 135.12,-40.55 135.12,-121.609 0,-84.922 -57.39,-127.383 -172.19,-127.383 -56.37,0 -107.07,7.703 -152.11,23.133"
             id="path26"
             style="fill:#f6914b;fill-opacity:1;fill-rule:nonzero;stroke:none" /><path
             d="m 2706.64,966.891 0,-34.77 -321.95,0 0,-220.043 308.83,0 0,-34.719 -308.83,0 0,-262.539 -40.55,0 0,552.071 362.5,0 z"
             id="path28"
             style="fill:#16273f;fill-opacity:1;fill-rule:nonzero;stroke:none" /><path
             d="m 2738.09,414.82 0,405.352 28.94,0 5,-67.192 c 40.67,44.809 85.98,67.192 135.9,67.192 l 0,-32.422 c -48.4,0 -91.48,-23.559 -129.34,-70.629 l 0,-302.301 -40.5,0 z"
             id="path30"
             style="fill:#16273f;fill-opacity:1;fill-rule:nonzero;stroke:none" /><path
             d="m 2945.16,644.941 269.45,0 c -1.56,94.18 -44.02,141.289 -127.38,141.289 -90.12,0 -137.46,-47.109 -142.07,-141.289 m 142.07,175.231 c 110.89,0 166.36,-61.371 166.36,-184.141 0,-8.75 -0.27,-17.89 -0.78,-27.422 l -307.65,0 c 0,-106.019 56.09,-159.031 168.32,-159.031 46.05,0 86.95,6.41 122.73,19.301 l 0,-34.731 c -35.78,-12.886 -76.68,-19.328 -122.73,-19.328 -139.26,0 -208.87,69.102 -208.87,207.301 0,132.027 60.86,198.051 182.62,198.051"
             id="path32"
             style="fill:#16273f;fill-opacity:1;fill-rule:nonzero;stroke:none" /><path
             d="m 3319.77,644.941 269.45,0 c -1.52,94.18 -44.02,141.289 -127.38,141.289 -90.08,0 -137.43,-47.109 -142.07,-141.289 m 142.07,175.231 c 110.89,0 166.36,-61.371 166.36,-184.141 0,-8.75 -0.23,-17.89 -0.74,-27.422 l -307.69,0 c 0,-106.019 56.09,-159.031 168.32,-159.031 46.05,0 86.99,6.41 122.77,19.301 l 0,-34.731 c -35.78,-12.886 -76.72,-19.328 -122.77,-19.328 -139.26,0 -208.87,69.102 -208.87,207.301 0,132.027 60.86,198.051 182.62,198.051"
             id="path34"
             style="fill:#16273f;fill-opacity:1;fill-rule:nonzero;stroke:none" /><path
             d="m 3653.83,414.82 52.1484,0 0,48.2812 -52.1484,0 0,-48.2812 z"
             id="path36"
             style="fill:#16273f;fill-opacity:1;fill-rule:nonzero;stroke:none" /><path
             d="m 4044.3,426.422 c -33.48,-7.731 -69.5,-11.602 -108.09,-11.602 -136.41,0 -204.61,70.121 -204.61,210.43 0,129.961 68.2,194.922 204.61,194.922 38.59,0 74.61,-3.871 108.09,-11.563 l 0,-34.769 c -36.06,7.738 -70.78,11.601 -104.26,11.601 -109.38,0 -164.06,-53.39 -164.06,-160.191 0,-117.109 54.68,-175.672 164.06,-175.672 33.48,0 68.2,3.832 104.26,11.57 l 0,-34.726 z"
             id="path38"
             style="fill:#16273f;fill-opacity:1;fill-rule:nonzero;stroke:none" /><path
             d="m 4068.01,820.172 301.09,0 0,-34.731 -257.5,-335.863 249.81,0 0,-34.758 -301.14,0 0,34.758 260.59,335.863 -252.85,0 0,34.731 z"
             id="path40"
             style="fill:#16273f;fill-opacity:1;fill-rule:nonzero;stroke:none" /><path
             d="M 425.66,454.352 0,583.301 1.76172,653.84 427.379,524.898 425.66,454.352 z"
             id="path42"
             style="fill:#030507;fill-opacity:1;fill-rule:nonzero;stroke:none" /><path
             d="M 427.379,524.898 1.76172,653.84 587.07,705.051 1012.7,576.07 427.379,524.898 z"
             id="path44"
             style="fill:#2a4463;fill-opacity:1;fill-rule:nonzero;stroke:none" /><path
             d="m 1012.7,576.07 -1.76,-70.55 -585.28,-51.168 1.719,70.546 585.321,51.172 z"
             id="path46"
             style="fill:#142339;fill-opacity:1;fill-rule:nonzero;stroke:none" /><path
             d="M 425.66,614.699 0,743.691 1.76172,814.23 427.379,685.25 425.66,614.699 z"
             id="path48"
             style="fill:#030507;fill-opacity:1;fill-rule:nonzero;stroke:none" /><path
             d="M 427.379,685.25 1.76172,814.23 587.07,865.441 1012.7,736.461 427.379,685.25 z"
             id="path50"
             style="fill:#2a4463;fill-opacity:1;fill-rule:nonzero;stroke:none" /><path
             d="m 1012.7,736.461 -1.76,-70.551 -585.28,-51.211 1.719,70.551 585.321,51.211 z"
             id="path52"
             style="fill:#142339;fill-opacity:1;fill-rule:nonzero;stroke:none" /><path
             d="M 425.66,775.09 0,904.078 1.76172,974.578 427.379,845.641 425.66,775.09 z"
             id="path54"
             style="fill:#030507;fill-opacity:1;fill-rule:nonzero;stroke:none" /><path
             d="M 427.379,845.641 1.76172,974.578 587.07,1025.83 1012.7,896.852 427.379,845.641 z"
             id="path56"
             style="fill:#2a4463;fill-opacity:1;fill-rule:nonzero;stroke:none" /><path
             d="m 1012.7,896.852 -1.76,-70.551 -585.28,-51.211 1.719,70.551 585.321,51.211 z"
             id="path58"
             style="fill:#142339;fill-opacity:1;fill-rule:nonzero;stroke:none" /><path
             d="m 625.078,1388.53 -49.058,-248.44 30.66,0 42.808,218.28 4228.632,-28.16 0,-1289.9991 -4495.741,31.4375 58.211,268.4416 -30.629,0 -61.91,-298.1603 4547.459,-31.8399 12.61,-0.0781 0,1349.9983 -4283.042,28.52 z"
             id="path60"
             style="fill:#16273f;fill-opacity:1;fill-rule:nonzero;stroke:none" /></g></g></g></g></svg>