<?xml version="1.0" encoding="UTF-8" standalone="no"?>
<!-- Generator: Adobe Illustrator 17.1.0, SVG Export Plug-In . SVG Version: 6.00 Build 0)  -->

<svg
   xmlns:dc="http://purl.org/dc/elements/1.1/"
   xmlns:cc="http://creativecommons.org/ns#"
   xmlns:rdf="http://www.w3.org/1999/02/22-rdf-syntax-ns#"
   xmlns:svg="http://www.w3.org/2000/svg"
   xmlns="http://www.w3.org/2000/svg"
   xmlns:sodipodi="http://sodipodi.sourceforge.net/DTD/sodipodi-0.dtd"
   xmlns:inkscape="http://www.inkscape.org/namespaces/inkscape"
   version="1.0"
   id="Layer_1"
   x="0px"
   y="0px"
   viewBox="0 0 267.691018806 97.1177320367"
   xml:space="preserve"
   inkscape:version="0.91 r13725"
   sodipodi:docname="logo_jetbrains.svg"
   width="267.691009521"
   height="97.1177368164"><metadata
     id="metadata4246"><rdf:RDF><cc:Work
         rdf:about=""><dc:format>image/svg+xml</dc:format><dc:type
           rdf:resource="http://purl.org/dc/dcmitype/StillImage" /><dc:title></dc:title></cc:Work></rdf:RDF></metadata><defs
     id="defs4244" /><sodipodi:namedview
     pagecolor="#ffffff"
     bordercolor="#666666"
     borderopacity="1"
     objecttolerance="10"
     gridtolerance="10"
     guidetolerance="10"
     inkscape:pageopacity="0"
     inkscape:pageshadow="2"
     inkscape:window-width="640"
     inkscape:window-height="480"
     id="namedview4242"
     showgrid="false"
     fit-margin-top="0"
     fit-margin-left="0"
     fit-margin-right="0"
     fit-margin-bottom="0"
     inkscape:zoom="0.446039819275"
     inkscape:cx="-294.737655253"
     inkscape:cy="169.645832534"
     inkscape:current-layer="Layer_1" /><g
     id="g4220"
     transform="translate(-77.333,-100.259459937)"><g
       id="g4222"><path
         style="fill:#136ba2"
         d="m 343.196,132.793 c -5.602,-3.142 -7.863,-4.285 -11.177,-4.285 -3.065,0 -4.543,1.571 -4.543,3.999 0,7.284 17.548,5.284 17.548,22.281 0,9.283 -5.117,14.854 -13.806,14.854 -5.32,0 -7.831,-2.288 -11.72,-4.857 l 0,-10.426 c 5.602,4.571 7.863,6.285 12.09,6.285 3.259,0 4.547,-1.714 4.547,-4.572 0,-7.995 -17.436,-4.997 -17.436,-22.564 0,-8.428 3.489,-13.997 12.519,-13.997 4.347,0 7.058,1.142 11.978,3.857 l 0,9.425 z"
         id="path4224"
         inkscape:connector-curvature="0" /><path
         style="fill:#136ba2"
         d="m 201.056,139.942 3.973,0 c 2.743,0 5.373,-1.429 5.373,-5.57 0,-3.715 -1.944,-5.568 -5.602,-5.568 l -3.744,0 0,11.138 z m 6.603,-19.995 c 8.001,0 11.517,6.711 11.517,13.997 0,5.284 -2.174,9.284 -6.632,11.855 -1.241,0.528 -1.883,0.689 -2.808,0.917 l 13.442,21.932 -9.46,0 -12.662,-19.852 0,19.852 -8.546,0 0,-48.701 15.149,0 z"
         id="path4226"
         inkscape:connector-curvature="0" /><path
         style="fill:#136ba2"
         d="m 243.507,131.516 -4.545,18.996 9.659,0 -5.114,-18.996 z m 20.404,37.133 -9.231,0 -3.199,-9.711 -15.149,0 -2.859,9.711 -9.118,0 14.491,-48.701 8.977,0 16.088,48.701 z"
         id="path4228"
         inkscape:connector-curvature="0" /><rect
         x="266.765014648"
         y="119.947998047"
         style="fill:#136ba2"
         width="8.54500007629"
         height="48.7010002136"
         id="rect4230" /><polygon
         style="fill:#136ba2"
         points="289.945,168.649 281.397,168.649 281.397,119.948 289.143,119.948 306.434,149.654 306.434,119.948 314.983,119.948 314.983,168.649 307.925,168.649 289.945,137.373 "
         id="polygon4232" /><path
         style="fill:#136ba2"
         d="m 172.13,159.654 -3.145,0 0,-11.427 4.514,0 c 3.432,0 5.947,1.854 5.947,5.425 0,4.288 -1.942,6.002 -7.316,6.002 m 8.086,-17.854 c 3.317,-2 5.374,-5.571 5.374,-9.712 0,-2.159 -0.423,-4.514 -1.492,-6.573 -3.137,2.779 -6.598,5.802 -7.643,6.711 0.163,0.562 0.246,1.148 0.246,1.718 0,2.57 -1.371,5.284 -4.918,5.284 l -2.799,0 0,-2.509 0,-7.916 0,-1.175 10.202,-6.687 c -1.465,-0.621 -3.221,-0.995 -5.342,-0.995 l -13.406,0 0,48.701 14.289,0 c 11.436,0 13.836,-8.71 13.836,-14.282 0.001,-5.711 -2.743,-10.711 -8.347,-12.565"
         id="path4234"
         inkscape:connector-curvature="0" /></g><g
       id="g4236"><path
         style="fill:#fa930d"
         d="m 192.372,114.224 c -0.538,-0.335 -6.789,3.555 -10.718,6.294 l -1.444,1 -10.055,6.75 0,7.48 c 2.155,-1.468 3.892,-2.845 5.136,-4.092 l 7.523,-6.444 c 0,0 3.762,-3.38 5.735,-5.356 l 0.735,-0.685 c 0.55,-0.496 0.924,-0.833 0.924,-1.298 0,-0.024 -0.002,-0.051 -0.005,-0.076 -0.022,-0.263 2.406,-3.425 2.169,-3.573"
         id="path4238"
         inkscape:connector-curvature="0" /><path
         style="fill:#fa930d"
         d="m 123.992,152.25 c -0.101,-2.597 -0.642,-5.944 2.703,-7.72 1.305,-0.709 2.065,-0.258 2.504,0.184 0.88,0.883 -1.092,4.973 -5.207,7.536 m -28.644,29.611 c -2.315,-1.874 -3.412,-3.458 -5.105,-7.556 -2.865,-6.93 1.103,-9.072 8.293,-13.151 -0.857,7.38 -1.454,22.445 -3.188,20.707 m 57.59,-35.847 6.121,-4.157 0,-7.489 -5.489,3.578 c 0,0 -4.889,3.174 -6.597,4.285 0.127,-0.966 0.258,-1.984 0.258,-1.984 0.86,-6.367 1.653,-12.725 1.653,-16.952 0,-2.047 -0.185,-3.596 -0.639,-4.403 -0.322,-0.573 -0.813,-0.942 -1.418,-1.068 -0.802,-0.163 -1.737,0.118 -2.631,0.795 -2.805,1.953 -4.198,7.667 -4.198,17.363 0,3.136 0.152,6.704 0.442,10.679 -0.326,0.293 -1.938,1.748 -1.938,1.748 0.021,-0.02 -2.776,2.441 -2.776,2.441 -0.003,0.002 -0.073,0.095 -0.12,0.154 -2.592,2.289 -4.224,3.575 -4.846,3.817 -0.773,0.306 -1.453,0.373 -2.064,0.316 3.519,-2.597 6.391,-8.155 6.391,-11.459 0,-0.379 -0.038,-0.73 -0.119,-1.041 -0.573,-2.262 -1.713,-3.904 -3.301,-4.754 -1.554,-0.83 -3.435,-0.863 -5.59,-0.096 l -0.842,0.341 c -3.881,1.757 -15.687,8.392 -19.349,10.461 0.433,-5.178 2.558,-28.789 3.151,-41.242 0.385,-8.044 0,-3.056 0,-4.618 0,-5.85 -7.349,0.003 -11.417,4.071 -1.707,1.708 -7.044,6.583 -5.11,10.293 2.077,3.993 4.269,2.658 5.418,9.527 2.019,12.083 0.477,24.468 0.48,25.267 -0.663,0.31 -5.726,2.694 -5.726,2.694 -8.721,4.034 -15.349,7.101 -15.349,12.136 0,0.786 0.162,1.615 0.5,2.506 7.237,18.929 17.102,29.113 20.989,28.083 5.64,-1.501 5.87,-8.912 6.217,-20.125 0.174,-5.593 0.375,-11.925 1.236,-19.049 0.454,-0.286 9.932,-7.341 11.695,-8.47 -0.845,1.719 -0.838,3.38 -0.838,4.275 0,2.229 0.319,4.066 0.774,5.014 0.761,1.595 1.438,2.785 3.179,3.57 2.212,1.056 4.13,1.349 7.9,-0.131 1.694,-0.666 4.596,-2.677 7.822,-5.382 0.642,1.101 3.438,5.914 3.438,5.914 l 2.561,4.364 c 1.155,2.053 2.989,2.636 5.032,1.592 1.553,-0.778 2.578,-1.459 2.884,-2.461 0.064,-0.209 0.091,-0.414 0.091,-0.617 0,-0.674 -0.301,-1.312 -0.586,-1.823 -2.941,-5.234 -3.137,-9.795 -3.137,-13.264 0,-0.225 0,-0.443 0.002,-0.657 0.504,-0.348 5.846,-4.042 5.846,-4.042"
         id="path4240"
         inkscape:connector-curvature="0" /></g></g></svg>