<?xml version="1.0" encoding="UTF-8" standalone="no"?>
<!-- Generator: Adobe Illustrator 19.1.0, SVG Export Plug-In . SVG Version: 6.00 Build 0)  -->

<svg
   xmlns:dc="http://purl.org/dc/elements/1.1/"
   xmlns:cc="http://creativecommons.org/ns#"
   xmlns:rdf="http://www.w3.org/1999/02/22-rdf-syntax-ns#"
   xmlns:svg="http://www.w3.org/2000/svg"
   xmlns="http://www.w3.org/2000/svg"
   xmlns:sodipodi="http://sodipodi.sourceforge.net/DTD/sodipodi-0.dtd"
   xmlns:inkscape="http://www.inkscape.org/namespaces/inkscape"
   version="1.1"
   id="Vrstva_1"
   x="0px"
   y="0px"
   viewBox="0 0 182.005447388 57.3222923279"
   xml:space="preserve"
   inkscape:version="0.91 r13725"
   sodipodi:docname="Master-logo-RGB.SVG"
   width="182.005447388"
   height="57.3222923279"><metadata
     id="metadata4700"><rdf:RDF><cc:Work
         rdf:about=""><dc:format>image/svg+xml</dc:format><dc:type
           rdf:resource="http://purl.org/dc/dcmitype/StillImage" /><dc:title></dc:title></cc:Work></rdf:RDF></metadata><defs
     id="defs4698" /><sodipodi:namedview
     pagecolor="#ffffff"
     bordercolor="#666666"
     borderopacity="1"
     objecttolerance="10"
     gridtolerance="10"
     guidetolerance="10"
     inkscape:pageopacity="0"
     inkscape:pageshadow="2"
     inkscape:window-width="640"
     inkscape:window-height="480"
     id="namedview4696"
     showgrid="false"
     fit-margin-top="0"
     fit-margin-left="0"
     fit-margin-right="0"
     fit-margin-bottom="0"
     inkscape:zoom="0.978125"
     inkscape:cx="89.7054461517"
     inkscape:cy="27.985893233"
     inkscape:current-layer="Vrstva_1" /><style
     type="text/css"
     id="style4640">
	.st0{fill:#5CBACC;}
	.st1{fill:#261A40;}
</style><g
     id="g4642"
     transform="translate(-390.294553848,-250.663602035)"><g
       id="g4644"><path
         class="st0"
         d="m 391.9,252.8 8.7,5 c 0,0 -1.4,6.4 12.1,17.5 l -10.1,3.4 C 388.7,264.4 389,257.1 391.9,252.8"
         id="path4646"
         inkscape:connector-curvature="0"
         style="fill:#5cbacc" /><path
         class="st1"
         d="m 552.3,258.7 c 3.3,0.2 5.8,1.7 6.8,5.3 l 0,14.5 c -1.5,2.4 -4.1,3 -6.8,3.2 l 0,-23 z"
         id="path4648"
         inkscape:connector-curvature="0"
         style="fill:#261a40" /><path
         class="st1"
         d="m 512.4,276.2 c 0.1,2.7 1.3,4 2.5,4.7 2.1,1.3 4.2,0.4 6.4,-0.3 1.5,-0.5 3,-1.2 4.4,-2 l 0,-2.8 c -0.8,0.4 -2.8,1.4 -4.1,1.4 -1.9,0 -2.3,-1.9 -2.3,-3.2 l 0,-7.7 c 2.3,-0.8 4.5,-1.3 6.5,-0.2 l 0,-6.5 c -2.7,-0.1 -4.8,0.6 -6.5,2 l 0,-3.2 c -1.1,-3.6 -3.4,-5.1 -6.9,-5.1 l 0,22.9 z"
         id="path4650"
         inkscape:connector-curvature="0"
         style="fill:#261a40" /><path
         class="st1"
         d="m 479.5,258.7 c -1.1,0 -2.3,0.2 -3.4,0.4 -3.1,0.4 -5.9,1.5 -8.3,3 l 0,2.8 c 3.5,-1.1 6.3,-1.8 8.3,-1.7 2.1,0.2 3.4,1.3 3.4,3.7 -1.1,0 -2.3,0.2 -3.4,0.4 -4.1,0.4 -7.1,1.5 -8.9,3.4 -0.8,1.1 -1.3,2.4 -1.3,3.8 l 0,0.3 c 0,1.8 0.5,3.5 1.5,4.8 1.2,1.4 2.8,2.2 5.1,2.2 1.3,0 2.3,-0.2 3.5,-0.7 1.2,-0.5 2.3,-1.2 3.4,-2.1 l 0,2.8 c 2.9,-0.2 5.5,-0.8 7,-3.2 l 0,-13.7 c 0.1,-4 -3.4,-6.1 -6.9,-6.2 z m 0,16.8 c -0.8,0.6 -2.1,1.3 -3.4,1.4 -1.7,0.2 -3.3,-0.2 -3.5,-1.9 -0.3,-2.2 1.5,-3.2 3.5,-3.6 1.2,-0.5 2.5,-0.5 3.4,-0.5 l 0,4.6 z"
         id="path4652"
         inkscape:connector-curvature="0"
         style="fill:#261a40" /><path
         class="st1"
         d="m 548.2,260.9 c -1.2,-1.4 -2.9,-2.1 -5.1,-2.3 -1.4,0.2 -2.5,0.3 -3.7,0.5 -3.1,0.7 -5.6,2.2 -10.2,6 l 0,10.5 c 0,3.8 3.5,5.9 6.9,5.9 1.2,0 2.3,-0.2 3.3,-0.2 3.2,-0.4 6,-1.5 8.5,-3 l 0,-2.9 c -3.5,1.3 -6.3,1.9 -8.5,1.7 -2.1,-0.2 -3.3,-1.3 -3.3,-3.5 l 0,-0.2 c 1.2,0 2.3,-0.2 3.3,-0.2 4.3,-0.5 7.3,-1.7 9,-3.4 0.8,-1.1 1.4,-2.6 1.4,-3.9 l 0,-0.4 c -0.1,-1.5 -0.7,-3.3 -1.6,-4.6 z m -8.8,8.5 c -1.1,0.4 -2.3,0.5 -3.4,0.6 l 0,-4.7 c 0.8,-0.6 2.1,-1.2 3.4,-1.4 1.7,-0.2 3.2,0.2 3.5,1.9 0.2,2 -1.5,3 -3.5,3.6 z"
         id="path4654"
         inkscape:connector-curvature="0"
         style="fill:#261a40" /><path
         class="st1"
         d="m 507.6,264.9 c -2,-0.9 -4,-1.5 -6,-1.7 -1.4,0 -2.3,0.2 -3.1,0.5 -1.7,0.8 -2.3,2.6 -0.1,3.5 0.6,0.2 1.3,0.4 2.2,0.5 2.8,0.6 5,0.8 6.5,2.5 2.4,2.6 1.9,7.1 -0.9,9.2 -1.6,1.3 -3.9,2 -7.1,2.2 -4.1,-0.1 -6.8,-1.1 -8.9,-2.9 l 0,-2.7 c 2.8,1.1 5.1,1.7 7.1,1.7 1.4,0 3,-0.2 3.8,-0.8 1.3,-1.1 1,-2.6 -1.3,-3.4 -4,-1.1 -9.6,-2.2 -9.5,-7.1 0.2,-1.9 0.7,-3.4 1.7,-4.4 2.6,-3.4 8.9,-3.4 12.4,-1.7 1.1,0.5 2.3,1.3 3.3,2.1 l 0,2.5 z"
         id="path4656"
         inkscape:connector-curvature="0"
         style="fill:#261a40" /><path
         class="st1"
         d="m 572.3,266.1 0,-6.5 c -6.1,-0.2 -9.1,3.6 -11.1,8.9 3.7,-1.9 7.5,-4.1 11.1,-2.4"
         id="path4658"
         inkscape:connector-curvature="0"
         style="fill:#261a40" /><path
         class="st1"
         d="m 427.2,258.2 c -6.3,-4.1 -19,-9.8 -29.1,-6.6 l 8.9,5.1 c 1.4,-1.3 5,-4.3 20.2,1.5"
         id="path4660"
         inkscape:connector-curvature="0"
         style="fill:#261a40" /><path
         class="st1"
         d="m 429.3,281.4 c 2.9,-0.2 5.5,-0.8 7,-3.2 l 0,-12.5 c 1.1,-1.3 2.1,-1.7 3.1,-1.7 2.6,0 3.3,2.3 3.2,4.7 l 0,12.8 c 2.9,-0.2 5.4,-0.8 6.9,-3.2 l 0,-12.5 c 1.1,-1.3 2,-1.7 3.1,-1.7 2.6,0 3.3,2.3 3.3,4.7 l 0,12.8 c 2.8,-0.2 5.3,-0.8 6.8,-3.2 l 0,-11 0,-2.6 c 0,-1.5 -0.5,-2.8 -1.5,-4.1 -0.6,-0.7 -1.3,-1.1 -2.1,-1.5 -1.8,-0.8 -4,-0.8 -5.8,-0.1 -1.6,0.7 -3.1,1.8 -4.4,3.2 -0.8,-1.5 -1.8,-2.6 -3.2,-3.2 -1.8,-0.8 -3.8,-0.8 -5.6,-0.1 -1.6,0.7 -3,1.8 -4.4,3.2 -1.3,-2.6 -3.5,-3.8 -6.5,-3.8 l 0,23 z"
         id="path4662"
         inkscape:connector-curvature="0"
         style="fill:#261a40" /><path
         class="st1"
         d="m 419.3,277.2 c 0,0.2 11.7,10.9 18.3,13.7 -0.3,4.4 -0.5,6.1 -0.8,10.8 -10.7,-5.3 -21,-12.6 -27.2,-20.7 4.6,-2 9.7,-3.8 9.7,-3.8"
         id="path4664"
         inkscape:connector-curvature="0"
         style="fill:#261a40" /><path
         class="st1"
         d="m 470.3,304.5 c -2.8,-2.6 -5,-4.7 -7.8,-7.5 -2.4,2.2 -13.5,0.2 -21.8,-4.9 0.4,3.8 0.5,6.6 0.7,11.3 0.1,-0.6 18.6,9.8 28.9,1.1"
         id="path4666"
         inkscape:connector-curvature="0"
         style="fill:#261a40" /><path
         class="st1"
         d="m 464.3,295.1 7.8,6.4 c 0,0 0.2,-10.4 -10.7,-17.7 4.1,7.5 2.9,11.3 2.9,11.3"
         id="path4668"
         inkscape:connector-curvature="0"
         style="fill:#261a40" /></g></g><g
     id="g4670"
     transform="translate(-390.294553848,-250.663602035)"><path
       class="st1"
       d="m 488.9,298.1 c -1.4,-0.3 -1.4,-1.5 -1.4,-2.1 l 0,-1.3 c 0,-0.7 0,-1.8 1.4,-2.1 0.4,-0.1 0.7,-0.1 1.1,-0.1 0.7,0 1.1,0.1 1.4,0.2 l 0,-2.3 1.1,0 0,7.8 -0.8,0 -0.1,-0.2 c -0.5,0.2 -1.3,0.3 -1.5,0.3 -0.5,0 -0.8,-0.1 -1.2,-0.2 z m 2.5,-0.9 0,-3.7 c -0.3,-0.1 -0.8,-0.2 -1.4,-0.2 -1,0 -1.4,0.3 -1.4,1.4 l 0,1.3 c 0,1 0.3,1.4 1.4,1.4 0.3,0 1,-0.1 1.4,-0.2 z"
       id="path4672"
       inkscape:connector-curvature="0"
       style="fill:#261a40" /><path
       class="st1"
       d="m 493.8,294.7 c 0,-0.7 0,-1.8 1.4,-2.1 0.4,-0.1 0.7,-0.1 1.1,-0.1 0.9,0 1.6,0.1 2.3,0.3 l 0,5.4 -0.8,0 -0.1,-0.2 c -0.5,0.2 -1.2,0.3 -1.4,0.3 -0.4,0 -0.7,0 -1.1,-0.1 -1.4,-0.3 -1.4,-1.5 -1.4,-2.1 l 0,-1.4 z m 1.1,1.3 c 0,1 0.3,1.4 1.4,1.4 0.4,0 1,-0.1 1.3,-0.2 l 0,-3.7 c -0.4,-0.1 -0.9,-0.1 -1.3,-0.1 -1.1,0 -1.4,0.4 -1.4,1.4 l 0,1.2 z"
       id="path4674"
       inkscape:connector-curvature="0"
       style="fill:#261a40" /><path
       class="st1"
       d="m 503.2,298.2 c -0.5,0.1 -1.1,0.1 -1.4,0 -1.2,-0.2 -1.3,-1.1 -1.3,-1.6 l 0,-3.2 -0.9,0 0,-0.8 0.9,0 0.2,-1.5 0.8,0 0,1.5 1.6,0 0,0.8 -1.6,0 0,3.2 c 0,0.3 0.1,0.7 0.6,0.8 0.2,0 0.6,0 1,0 l 0,0.8 z"
       id="path4676"
       inkscape:connector-curvature="0"
       style="fill:#261a40" /><path
       class="st1"
       d="m 504.1,294.7 c 0,-0.7 0,-1.8 1.4,-2.1 0.4,-0.1 0.7,-0.1 1.1,-0.1 0.9,0 1.6,0.1 2.3,0.3 l 0,5.4 -0.8,0 -0.1,-0.2 c -0.5,0.2 -1.2,0.3 -1.4,0.3 -0.4,0 -0.7,0 -1.1,-0.1 -1.4,-0.3 -1.4,-1.5 -1.4,-2.1 l 0,-1.4 z m 1.1,1.3 c 0,1 0.3,1.4 1.4,1.4 0.4,0 1,-0.1 1.3,-0.2 l 0,-3.7 c -0.4,-0.1 -0.9,-0.1 -1.3,-0.1 -1.1,0 -1.4,0.4 -1.4,1.4 l 0,1.2 z"
       id="path4678"
       inkscape:connector-curvature="0"
       style="fill:#261a40" /><path
       class="st1"
       d="m 513.6,291.5 c -0.4,0 -0.6,-0.1 -0.6,-0.6 l 0,-0.1 c 0,-0.5 0.2,-0.6 0.6,-0.6 0.4,0 0.6,0.1 0.6,0.6 l 0,0.1 c 0,0.5 -0.2,0.6 -0.6,0.6 z m -0.5,1 1.1,0 0,5.6 -1.1,0 0,-5.6 z"
       id="path4680"
       inkscape:connector-curvature="0"
       style="fill:#261a40" /><path
       class="st1"
       d="m 519.4,294.7 c 0,-1 -0.2,-1.4 -1.3,-1.4 -0.4,0 -1,0.1 -1.3,0.2 l 0,4.6 -1.1,0 0,-5.6 0.8,0 0.1,0.2 c 0.5,-0.2 1.2,-0.3 1.5,-0.3 1.7,0 2.3,0.5 2.3,2.2 l 0,3.5 -1.1,0 0,-3.4 z"
       id="path4682"
       inkscape:connector-curvature="0"
       style="fill:#261a40" /><path
       class="st1"
       d="m 532,294.7 c 0,-1 -0.2,-1.4 -1.3,-1.4 -0.3,0 -1.1,0.1 -1.5,0.2 0.1,0.3 0.1,0.6 0.1,1.1 l 0,3.5 -1.1,0 0,-3.5 c 0,-1 -0.2,-1.4 -1.3,-1.4 -0.4,0 -1,0.1 -1.3,0.2 l 0,4.6 -1.1,0 0,-5.6 0.8,0 0.1,0.2 c 0.5,-0.2 1.2,-0.3 1.5,-0.3 0.9,0 1.5,0.1 1.9,0.5 l 0.3,-0.2 c 0.5,-0.2 1.2,-0.3 1.5,-0.3 1.8,0 2.3,0.5 2.3,2.2 l 0,3.5 -0.9,0 0,-3.3 z"
       id="path4684"
       inkscape:connector-curvature="0"
       style="fill:#261a40" /><path
       class="st1"
       d="m 539.5,296 c 0,0.6 0,1.8 -1.5,2.1 -0.4,0.1 -0.8,0.1 -1.1,0.1 -0.4,0 -0.7,0 -1.1,-0.1 -1.5,-0.3 -1.5,-1.5 -1.5,-2.1 l 0,-1.3 c 0,-0.7 0,-1.8 1.5,-2.1 0.4,-0.1 0.7,-0.1 1.1,-0.1 0.3,0 0.7,0 1.1,0.1 1.5,0.3 1.5,1.5 1.5,2.1 l 0,1.3 z m -1,-1.3 c 0,-1.2 -0.6,-1.4 -1.5,-1.4 -1.1,0 -1.5,0.3 -1.5,1.4 l 0,1.3 c 0,1.1 0.6,1.4 1.5,1.4 1.1,0 1.5,-0.3 1.5,-1.4 l 0,-1.3 z"
       id="path4686"
       inkscape:connector-curvature="0"
       style="fill:#261a40" /><path
       class="st1"
       d="m 544,298.2 c -0.5,0.1 -1.1,0.1 -1.4,0 -1.2,-0.2 -1.3,-1.1 -1.3,-1.6 l 0,-3.2 -0.9,0 0,-0.8 0.9,0 0.2,-1.5 0.8,0 0,1.5 1.6,0 0,0.8 -1.6,0 0,3.2 c 0,0.3 0.1,0.7 0.6,0.8 0.2,0 0.6,0 1,0 l 0,0.8 z"
       id="path4688"
       inkscape:connector-curvature="0"
       style="fill:#261a40" /><path
       class="st1"
       d="m 545.6,291.5 c -0.4,0 -0.6,-0.1 -0.6,-0.6 l 0,-0.1 c 0,-0.5 0.2,-0.6 0.6,-0.6 0.4,0 0.6,0.1 0.6,0.6 l 0,0.1 c 0,0.5 -0.2,0.6 -0.6,0.6 z m -0.6,1 1.1,0 0,5.6 -1.1,0 0,-5.6 z"
       id="path4690"
       inkscape:connector-curvature="0"
       style="fill:#261a40" /><path
       class="st1"
       d="m 552.7,296 c 0,0.6 0,1.8 -1.5,2.1 -0.4,0.1 -0.8,0.1 -1.1,0.1 -0.4,0 -0.7,0 -1.1,-0.1 -1.5,-0.3 -1.5,-1.5 -1.5,-2.1 l 0,-1.3 c 0,-0.7 0,-1.8 1.5,-2.1 0.4,-0.1 0.7,-0.1 1.1,-0.1 0.3,0 0.7,0 1.1,0.1 1.5,0.3 1.5,1.5 1.5,2.1 l 0,1.3 z m -1.1,-1.3 c 0,-1.2 -0.6,-1.4 -1.5,-1.4 -1.1,0 -1.5,0.3 -1.5,1.4 l 0,1.3 c 0,1.1 0.6,1.4 1.5,1.4 1.1,0 1.5,-0.3 1.5,-1.4 l 0,-1.3 z"
       id="path4692"
       inkscape:connector-curvature="0"
       style="fill:#261a40" /><path
       class="st1"
       d="m 557.8,294.7 c 0,-1 -0.2,-1.4 -1.3,-1.4 -0.4,0 -1,0.1 -1.3,0.2 l 0,4.6 -1.2,0 0,-5.6 0.8,0 0.1,0.2 c 0.5,-0.2 1.2,-0.3 1.5,-0.3 1.7,0 2.3,0.5 2.3,2.2 l 0,3.5 -1.1,0 0,-3.4 z"
       id="path4694"
       inkscape:connector-curvature="0"
       style="fill:#261a40" /></g></svg>