<?xml version="1.0" encoding="UTF-8" standalone="no"?>
<!-- Created with Inkscape (http://www.inkscape.org/) -->

<svg
   xmlns:dc="http://purl.org/dc/elements/1.1/"
   xmlns:cc="http://creativecommons.org/ns#"
   xmlns:rdf="http://www.w3.org/1999/02/22-rdf-syntax-ns#"
   xmlns:svg="http://www.w3.org/2000/svg"
   xmlns="http://www.w3.org/2000/svg"
   xmlns:sodipodi="http://sodipodi.sourceforge.net/DTD/sodipodi-0.dtd"
   xmlns:inkscape="http://www.inkscape.org/namespaces/inkscape"
   width="75.3389892578mm"
   height="32.2330818176mm"
   viewBox="0 0 266.949174536 114.211707225"
   id="svg4275"
   version="1.1"
   inkscape:version="0.91 r13725"
   sodipodi:docname="moje_fedora_logo_blue.svg">
  <defs
     id="defs4277" />
  <sodipodi:namedview
     id="base"
     pagecolor="#ffffff"
     bordercolor="#666666"
     borderopacity="1.0"
     inkscape:pageopacity="0.0"
     inkscape:pageshadow="2"
     inkscape:zoom="0.35"
     inkscape:cx="-564.382557755"
     inkscape:cy="-97.1798647244"
     inkscape:document-units="px"
     inkscape:current-layer="layer1"
     showgrid="false"
     inkscape:window-width="1920"
     inkscape:window-height="1016"
     inkscape:window-x="0"
     inkscape:window-y="27"
     inkscape:window-maximized="1"
     fit-margin-top="0"
     fit-margin-left="0"
     fit-margin-right="0"
     fit-margin-bottom="0" />
  <metadata
     id="metadata4280">
    <rdf:RDF>
      <cc:Work
         rdf:about="">
        <dc:format>image/svg+xml</dc:format>
        <dc:type
           rdf:resource="http://purl.org/dc/dcmitype/StillImage" />
        <dc:title></dc:title>
      </cc:Work>
    </rdf:RDF>
  </metadata>
  <g
     inkscape:label="Layer 1"
     inkscape:groupmode="layer"
     id="layer1"
     transform="translate(-223.668267755,-320.970638535)">
    <g
       transform="translate(-143.07595,130.43179)"
       id="g4246">
      <path
         inkscape:connector-curvature="0"
         d="m 799.33773,208.89468 0,4.61564 c 0,0.30924 -0.18707,0.49631 -0.5612,0.56121 l -0.0401,0 c -0.31687,0 -0.51158,-0.19661 -0.58411,-0.58984 l 0,-7.3186 c 0.0458,-0.42376 0.22524,-0.63564 0.5383,-0.63565 l 0.0859,0 c 0.31687,10e-6 0.52875,0.22525 0.63565,0.67574 l 2.62851,5.87549 c 0.0344,-0.13362 0.61083,-1.47555 1.72944,-4.0258 l 1.0766,-2.31927 c 0.12979,-0.13743 0.27105,-0.20615 0.42377,-0.20616 l 0.0859,0 c 0.31304,10e-6 0.49248,0.21189 0.5383,0.63565 l 0,7.3186 c -0.0725,0.39323 -0.26725,0.58984 -0.58412,0.58984 l -0.0401,0 c -0.37415,-0.0649 -0.56122,-0.25197 -0.56121,-0.56121 l 0,-4.62136 c -1.4202,3.21453 -2.16275,4.87334 -2.22765,4.97641 -0.15653,0.13744 -0.30924,0.20616 -0.45813,0.20616 -0.33596,0 -0.61275,-0.33978 -0.83036,-1.01933 l -1.85542,-4.15752 m -7.79387,-3.39015 5.3601,0 c 0.36268,0.0687 0.54402,0.2558 0.54402,0.56121 l 0,0.0859 c 0,0.31306 -0.21189,0.49249 -0.63565,0.5383 l -1.99286,0 0,6.82038 c 0,0.30924 -0.19089,0.49631 -0.57266,0.56121 l -0.0286,0 c -0.31688,0 -0.51158,-0.19661 -0.58411,-0.58984 l 0,-6.79175 -2.03867,0 c -0.39323,-0.0763 -0.58985,-0.28251 -0.58985,-0.61847 0.084,-0.37795 0.26343,-0.56693 0.53831,-0.56694"
         id="path4351"
         style="font-style:normal;font-variant:normal;font-weight:bold;font-stretch:expanded;font-size:11.7280855179px;line-height:89.9999976158%;font-family:Comfortaa;-inkscape-font-specification:'Comfortaa Bold Expanded';text-align:start;writing-mode:lr-tb;text-anchor:start;fill:#3c6eb4;fill-opacity:1;stroke:none"
         transform="matrix(0.94275038,0,0,0.94275038,-127.83777,96.26349)" />
      <path
         inkscape:connector-curvature="0"
         d="m 807.77586,159.90439 c 0,-33.08386 -26.81923,-59.90405 -59.90309,-59.90405 -33.06851,0 -59.87718,26.79812 -59.90117,59.86183 l -0.002,-0.002 0,46.35579 0.002,0.002 c 0.0182,7.50719 6.10631,13.58472 13.61831,13.58472 0.0211,0 0.0422,-0.002 0.0643,-0.002 l 0.004,0.002 46.23777,0 0,0 c 33.07426,-0.0134 59.88006,-26.82403 59.88006,-59.89829 z"
         id="path4353"
         style="fill:#294172;fill-opacity:1"
         transform="matrix(0.94275038,0,0,0.94275038,-127.83777,96.26349)" />
      <path
         inkscape:connector-curvature="0"
         d="m 765.46056,114.20011 c -15.52773,0 -28.11456,12.58684 -28.11456,28.11456 0,0.006 0,0.0125 0,0.0202 l 0,14.88103 -14.83401,0 c -0.003,0 -0.003,0 -0.005,0 -15.52869,0 -28.11457,12.52542 -28.11457,28.05123 0,15.52773 12.58588,28.11553 28.11457,28.11553 15.52677,0 28.11456,-12.58876 28.11456,-28.11553 0,-0.005 0,-0.0125 0,-0.0182 l 0,-14.94435 14.83305,0 c 0.003,0 0.005,0 0.006,0 15.52677,0 28.11457,-12.4621 28.11457,-27.98983 0,-15.52772 -12.5878,-28.11456 -28.11457,-28.11456 z m -28.1136,71.09192 c -0.0134,8.18365 -6.65324,14.81577 -14.83881,14.81577 -8.19516,0 -14.90021,-6.64459 -14.90021,-14.83976 0,-8.19612 6.70505,-14.9645 14.90021,-14.9645 0.008,0 0.0144,0.002 0.0201,0.002 l 12.71445,0 c 0.004,0 0.007,-0.002 0.01,-0.002 1.15717,0 2.09653,0.93649 2.09653,2.09365 0,9.6e-4 -9.6e-4,0.003 -9.6e-4,0.005 l 0,12.89004 -9.6e-4,0 z m 28.11264,-28.07714 c -0.005,0 -0.01,0 -0.0144,0 l -12.72308,0 c -0.002,0 -0.006,0 -0.006,0 -1.15909,0 -2.09557,-0.9384 -2.09557,-2.09557 l 0,-0.002 0,-12.82767 c 0.0144,-8.18653 6.65228,-14.81578 14.83784,-14.81578 8.19613,0 14.90213,6.64364 14.90213,14.84072 0.002,8.19517 -6.70504,14.90022 -14.90117,14.90022 z"
         id="path4355"
         style="fill:#3c6eb4;fill-opacity:1"
         transform="matrix(0.94275038,0,0,0.94275038,-127.83777,96.26349)" />
      <path
         inkscape:connector-curvature="0"
         d="m 737.34696,157.21489 0,-14.88102 c 0,-0.008 0,-0.0144 0,-0.0202 0,-15.52773 12.58683,-28.11457 28.11456,-28.11457 2.35656,0 4.02994,0.26387 6.21186,0.83573 3.17885,0.83286 5.77624,3.43792 5.7772,6.47093 9.6e-4,3.66532 -2.65975,6.32988 -6.63596,6.32988 -1.89503,0 -2.57916,-0.3627 -5.35406,-0.3627 -8.18557,0 -14.82345,6.62925 -14.83784,14.81578 l 0,12.82767 0,0.002 c 0,1.15717 0.93648,2.09557 2.09557,2.09557 0,0 0.004,0 0.006,0 l 9.74382,0 c 3.63174,0 6.56304,2.90539 6.56591,6.54577 0,3.64325 -2.93513,6.54289 -6.56591,6.54289 l -11.84514,0 0,14.94434 c 0,0.006 0,0.0134 0,0.0202 0,15.52581 -12.58779,28.11361 -28.11457,28.11361 -2.35559,0 -4.02993,-0.26578 -6.2109,-0.83573 -3.17885,-0.8319 -5.7772,-3.43888 -5.77816,-6.47093 0,-3.66532 2.65976,-6.33084 6.63693,-6.33084 1.89311,0 2.57915,0.36366 5.35213,0.36366 8.18557,0 14.82537,-6.63021 14.83977,-14.81578 0,0 0,-12.89388 0,-12.89388 0,-1.15525 -0.93936,-2.09173 -2.09653,-2.09173 -0.002,0 -0.003,0 -0.006,0 l -9.74285,-0.002 c -3.63174,0 -6.56688,-2.89771 -6.56688,-6.53905 -0.002,-3.66436 2.96489,-6.5496 6.63597,-6.5496 l 11.77509,0 0,0 z"
         id="path4357"
         style="fill:#ffffff"
         transform="matrix(0.94275038,0,0,0.94275038,-127.83777,96.26349)" />
      <g
         transform="translate(116.54331,65.79664)"
         id="text4359"
         style="font-style:normal;font-weight:normal;font-size:78.7509231567px;line-height:125%;font-family:sans-serif;letter-spacing:20.3571147919px;word-spacing:0px;fill:#3c6eb4;fill-opacity:1;stroke:none;stroke-width:1px;stroke-linecap:butt;stroke-linejoin:miter;stroke-opacity:1">
        <path
           inkscape:connector-curvature="0"
           id="path4418"
           style="font-style:normal;font-variant:normal;font-weight:normal;font-stretch:normal;font-family:Brusher;-inkscape-font-specification:Brusher;letter-spacing:0px;fill:#3c6eb4"
           d="m 310.08546,180.83573 1.49627,0.315 q -0.47251,0.94501 -1.33877,2.59878 -0.78751,1.57502 -3.54379,5.74882 -2.67753,4.09505 -5.43382,7.24508 -2.75628,3.15004 -6.85133,5.74882 -4.09504,2.59878 -7.95384,2.59878 -2.36253,0 -3.46504,-1.89002 -1.10251,-1.89002 -1.10251,-4.88256 0.0788,-3.07128 0.55125,-6.61507 0.55126,-3.62255 1.18127,-7.16634 0.63001,-3.54379 0.86626,-6.37882 0.315,-2.91379 -0.39376,-4.48881 -0.70875,-1.57501 -2.59878,-1.18126 l -0.0788,0.0787 q -1.18126,0.39376 -2.20502,1.41752 -1.26002,1.41751 -1.96878,2.91378 -0.78751,1.65377 -1.41751,4.09505 -0.55126,2.52003 -0.94501,4.80381 -0.0788,0.23625 -0.15751,0.70875 -0.0788,0.39376 -0.0788,0.63001 0,0.1575 -0.0788,0.39376 -0.0787,0.23625 -0.0787,0.315 -0.1575,0.315 -0.1575,0.47251 -0.1575,0.315 -0.315,0.55125 l -0.39376,0.39376 q -0.0788,0.0788 -0.23625,0.0788 -0.0788,0 -0.1575,0.0787 l -0.15751,0.0788 q -0.0788,0 -0.1575,0 l -0.1575,0 q -0.47251,0 -0.86626,-0.23625 -0.1575,-0.0787 -0.39375,-0.31501 -0.23626,-0.315 -0.39376,-0.63 -0.1575,-0.31501 -0.1575,-0.47251 -0.1575,-0.55126 -0.315,-1.49627 -0.0788,-0.4725 -0.23626,-1.41751 -0.0788,-0.94501 -0.1575,-1.41752 l -0.23625,-2.75628 q -0.0788,-0.39376 -0.23625,-1.26002 -0.0788,-0.86626 -0.15751,-1.33876 -0.63,-2.04753 -0.70875,-2.20503 -0.0788,-0.1575 -0.23626,-0.315 l -0.23625,0.23625 q -0.0788,0.1575 -0.315,0.47251 -0.15751,0.315 -0.23626,0.4725 l -0.94501,2.12628 -0.70876,2.20502 q -0.70875,2.20503 -1.18126,4.25255 -0.315,1.33877 -0.86626,3.54379 -0.47251,2.12628 -0.63001,2.91379 -0.1575,1.02376 -0.39375,2.20502 -1.49627,6.06382 -7.00883,6.30008 -3.22879,0.0787 -4.72506,-2.59878 -1.41752,-2.75629 -1.18126,-6.85133 0.23625,-4.1738 0.70875,-8.97761 0.47251,-4.8038 1.02377,-8.8201 0.63,-4.0163 0,-6.53633 0.23625,-0.0787 0.70876,-0.1575 0.4725,-0.0787 1.73252,-0.1575 1.26001,-0.0787 2.36252,0.1575 1.18127,0.1575 2.52003,0.86626 1.33877,0.63001 2.28378,1.81127 0.94501,1.10251 1.41752,3.30754 0.55125,2.12627 0.39375,5.04006 0,0.78751 -0.1575,2.04752 0.1575,-0.315 0.315,-0.86626 0.23626,-0.63 0.31501,-0.86626 0.55125,-1.33876 1.18126,-2.52003 0.63001,-1.10251 0.86626,-1.33876 l 0.63001,-0.63001 q 0.39375,-0.39375 1.02376,-0.70876 0.315,-0.1575 0.70876,-0.1575 0.1575,0 0.23625,-0.0787 l 0.0788,0 0.0787,0 0.1575,0.0787 0.23626,0 q 0.78751,0.1575 1.26001,0.47251 0.55126,0.39375 0.86626,0.86626 0.0788,0.1575 0.23625,0.4725 0.15751,0.23625 0.23626,0.39376 0.23625,0.55125 0.55125,1.49626 0.15751,0.55126 0.31501,1.49627 0.1575,1.02376 0.315,2.91378 0.1575,1.89003 0.1575,2.75629 l 0,0.23625 q 0.0788,-0.23625 0.39376,-1.33877 0.315,-1.18126 0.4725,-1.73252 0.70876,-2.36252 1.81127,-4.3313 0.94502,-1.81127 2.52003,-3.22878 1.18127,-1.02377 2.75629,-1.57502 l 0.1575,-0.0788 q 0.1575,0 0.23625,0 0.86626,-0.15751 1.73252,-0.23626 0.94501,-0.1575 3.15004,0.1575 2.28378,0.23626 3.85879,1.10252 1.57502,0.86626 2.67753,3.15003 1.18127,2.28378 0.94502,5.82757 -0.15751,2.36253 -0.63001,6.53633 -0.78751,7.87509 -0.1575,9.21386 0.86626,1.65377 4.6463,-1.41752 3.22879,-2.59878 6.30008,-6.30007 3.15003,-3.7013 4.6463,-6.06382 l 1.57502,-2.36253 z m -41.50174,-5.35506 0,0.0787 0,-0.0787 z m 0,0.0787 0,0 z m 0.0787,0 0,0 z m 3.38629,11.73388 0,0 z" />
        <path
           inkscape:connector-curvature="0"
           id="path4420"
           style="font-style:normal;font-variant:normal;font-weight:normal;font-stretch:normal;font-family:Brusher;-inkscape-font-specification:Brusher;letter-spacing:0px;fill:#3c6eb4"
           d="m 343.75148,175.71692 0.94501,1.65377 q -0.39376,0.315 -1.10252,0.78751 -0.0788,0.0788 -0.315,0.23625 -0.23625,0.0787 -0.315,0.1575 l -0.70876,0.47251 q -0.0787,0.0787 -0.39376,0.23625 -0.23625,0.1575 -0.39375,0.23625 -0.1575,0.0787 -0.47251,0.31501 -0.315,0.23625 -0.4725,0.315 -0.86626,0.39375 -1.02376,0.55126 -0.15751,0.1575 -0.55126,0.39375 -0.39375,0.1575 -0.55126,0.23625 -0.0788,0.0787 -0.315,0.23626 -0.1575,0.0788 -0.23625,0.0788 -0.31501,0.1575 -0.31501,0.1575 -0.0788,0 -0.1575,0.0787 -0.0788,0.0788 -0.1575,0.0788 -0.315,0.0787 -0.63001,0.31501 -0.315,0.0787 -0.63001,0.315 -0.86626,0.39375 -2.75628,1.18126 -1.18126,0.47251 -2.91378,1.02376 -0.23625,0.0788 -0.70876,0.23626 -0.39375,0.0787 -0.55126,0.0787 -0.23625,1.41751 -0.70875,2.83503 -1.96878,6.14257 -6.69383,9.45011 -4.72506,3.22879 -9.52886,1.73252 -4.80381,-1.49626 -6.77258,-6.85133 -1.96878,-5.43381 0,-11.65513 1.96877,-6.14258 6.69382,-9.37136 4.72506,-3.30754 9.52887,-1.81128 3.22878,1.02377 5.27631,4.1738 2.04752,3.07129 2.36253,7.16634 l 0.23625,0 q 1.96877,-0.39376 2.67753,-0.55126 0.63001,-0.0788 2.59878,-0.70876 0.47251,-0.1575 0.63001,-0.23625 0.4725,-0.1575 0.63,-0.1575 0.31501,-0.1575 0.31501,-0.1575 0.0787,0 0.1575,0 0.0788,-0.0787 0.1575,-0.0787 0.0787,-0.0788 0.23626,-0.15751 0.23625,-0.0788 0.315,-0.0788 l 1.18126,-0.4725 q 0.47251,-0.1575 1.02376,-0.39376 0.63001,-0.315 0.94502,-0.39375 0.63,-0.31501 0.86626,-0.39376 0.0788,-0.0788 0.315,-0.1575 0.315,-0.1575 0.39375,-0.23625 l 0.70876,-0.23625 1.18127,-0.63001 z m -19.84524,1.65377 q -1.49626,-0.47251 -3.38629,0.94501 0.15751,0.315 0.63001,0.78751 0.63001,0.63001 1.33877,0.94501 0.39375,0.315 0.86626,0.39375 0.94501,0.23626 1.02376,0.23626 0.94501,0.23625 1.89002,0.23625 -0.55126,-2.99254 -2.36253,-3.54379 z m -5.82756,18.27021 q 1.96877,0.63001 4.17379,-1.57502 2.20503,-2.28377 3.38629,-6.06382 0.31501,-0.94501 0.63001,-2.52003 -1.57502,0.1575 -2.44128,0.0787 -0.1575,0 -0.55125,0 -0.31501,-0.0787 -0.63001,-0.0787 -0.23625,-0.0788 -0.47251,-0.1575 -0.55125,-0.0788 -1.65377,-0.39375 -1.33876,-0.39376 -2.75628,-1.41752 -0.4725,-0.315 -0.63001,-0.47251 -0.1575,0.39376 -0.7875,1.96878 -1.18127,3.78004 -0.70876,6.93008 0.55125,3.07128 2.44128,3.70129 z" />
        <path
           inkscape:connector-curvature="0"
           id="path4422"
           style="font-style:normal;font-variant:normal;font-weight:normal;font-stretch:normal;font-family:Brusher;-inkscape-font-specification:Brusher;letter-spacing:0px;fill:#3c6eb4"
           d="m 366.71721,176.11067 0.94501,2.36253 q -7.00883,3.46504 -16.06519,9.84387 1.81128,23.78277 1.57502,32.52413 -0.39375,17.95521 -6.53632,18.03396 -0.94501,0.1575 -2.20503,0 -1.18126,-0.0787 -3.78004,-1.10251 -2.52003,-1.02377 -5.04006,-2.99254 -2.52003,-1.96877 -5.67007,-6.22132 -3.15004,-4.25255 -5.82757,-10.15887 -4.4888,-8.97761 15.98644,-25.3578 l -0.86626,-14.88392 q -0.39375,-4.0163 -0.70876,-5.27631 0.23625,-0.0788 0.63001,-0.15751 0.4725,-0.0787 1.65377,-0.1575 1.26001,-0.0787 2.36253,0.0788 1.18126,0.0787 2.59878,0.70876 1.41751,0.63001 2.52003,1.73252 1.10251,1.10251 1.89002,3.22879 0.86626,2.04752 1.10251,4.80381 0,0.315 0,0.94501 0.0787,0.55125 0.0787,0.86626 3.93755,-2.59878 7.79634,-4.80381 3.8588,-2.20503 5.74882,-3.07129 l 1.81127,-0.94501 z m -26.38156,44.88803 q 0.31501,-9.84387 -0.0788,-23.86153 -14.64767,12.60015 -11.34013,19.05772 3.22879,6.06382 6.93008,8.1901 3.62254,2.12627 4.3313,-2.20503 0.1575,-0.55125 0.1575,-1.18126 z m 6.85133,-54.96815 q -1.73252,1.73253 -4.1738,1.73253 -2.44127,0 -4.17379,-1.73253 -1.73252,-1.73252 -1.73252,-4.17379 0,-2.44128 1.73252,-4.1738 1.73252,-1.73252 4.17379,-1.73252 2.44128,0 4.1738,1.73252 1.73252,1.73252 1.73252,4.1738 0,2.44127 -1.73252,4.17379 z" />
        <path
           inkscape:connector-curvature="0"
           id="path4424"
           style="font-style:normal;font-variant:normal;font-weight:normal;font-stretch:normal;font-family:Brusher;-inkscape-font-specification:Brusher;letter-spacing:0px;fill:#3c6eb4"
           d="m 392.6275,178.70945 1.57502,1.26002 q -6.53633,12.20639 -16.45894,18.66397 -8.42635,5.51256 -14.25392,3.70129 -6.06382,-1.96877 -5.35506,-11.41888 0.0788,-1.26002 0.315,-2.59878 0.70876,-4.0163 2.52003,-6.93009 1.89002,-2.91378 4.09505,-4.3313 2.28378,-1.49626 4.80381,-2.12627 2.59878,-0.70876 4.56755,-0.63001 1.96877,0 3.30754,0.39376 1.73252,0.55125 2.83503,1.96877 1.10251,1.33877 1.26002,3.54379 0.1575,2.20503 -1.57502,4.96131 -2.75628,4.4888 -10.23762,4.25255 -0.86626,7.79634 3.38629,7.16633 4.6463,-0.70876 12.9939,-9.76511 4.80381,-5.27631 6.22132,-8.11135 z m -16.30144,0.31501 q -0.4725,0 -0.86626,0 -0.39375,0 -1.26001,0.4725 -0.78751,0.39376 -1.41752,1.18127 -0.63001,0.78751 -1.33877,2.59878 -0.70875,1.73252 -1.10251,4.1738 5.82757,0.39375 7.87509,-3.78005 0.31501,-0.70876 0.47251,-1.65377 0.1575,-1.02376 -0.39376,-1.96877 -0.55125,-1.02376 -1.96877,-1.02376 z" />
      </g>
    </g>
  </g>
</svg>
