<?xml version="1.0" encoding="UTF-8" standalone="no"?>
<!-- Created with Inkscape (http://www.inkscape.org/) -->

<svg
   xmlns:dc="http://purl.org/dc/elements/1.1/"
   xmlns:cc="http://creativecommons.org/ns#"
   xmlns:rdf="http://www.w3.org/1999/02/22-rdf-syntax-ns#"
   xmlns:svg="http://www.w3.org/2000/svg"
   xmlns="http://www.w3.org/2000/svg"
   xmlns:sodipodi="http://sodipodi.sourceforge.net/DTD/sodipodi-0.dtd"
   xmlns:inkscape="http://www.inkscape.org/namespaces/inkscape"
   id="svg4171"
   version="1.1"
   inkscape:version="0.91 r13725"
   xml:space="preserve"
   width="542.804992676"
   height="450.286254883"
   viewBox="0 0 542.804992676 450.286254883"
   sodipodi:docname="tm.svg"><metadata
     id="metadata4177"><rdf:RDF><cc:Work
         rdf:about=""><dc:format>image/svg+xml</dc:format><dc:type
           rdf:resource="http://purl.org/dc/dcmitype/StillImage" /><dc:title></dc:title></cc:Work></rdf:RDF></metadata><defs
     id="defs4175"><clipPath
       clipPathUnits="userSpaceOnUse"
       id="clipPath4189"><path
         d="m 3862.35,1801.15 c 0,-935.259 -758.22,-1693.4 -1693.53,-1693.4 -935.16,0 -1693.324,758.141 -1693.324,1693.4 0,935.27 758.164,1693.4 1693.324,1693.4 935.31,0 1693.53,-758.13 1693.53,-1693.4 z"
         id="path4191"
         inkscape:connector-curvature="0" /></clipPath><linearGradient
       x1="0"
       y1="0"
       x2="1"
       y2="0"
       gradientUnits="userSpaceOnUse"
       gradientTransform="matrix(3386.86,0,0,-3386.86,-716.03,1801.15)"
       spreadMethod="pad"
       id="linearGradient4193"><stop
         style="stop-opacity:1;stop-color:#ffffff"
         offset="0"
         id="stop4195" /><stop
         style="stop-opacity:1;stop-color:#093a5b"
         offset="1"
         id="stop4197" /></linearGradient></defs><sodipodi:namedview
     pagecolor="#ffffff"
     bordercolor="#666666"
     borderopacity="1"
     objecttolerance="10"
     gridtolerance="10"
     guidetolerance="10"
     inkscape:pageopacity="0"
     inkscape:pageshadow="2"
     inkscape:window-width="640"
     inkscape:window-height="480"
     id="namedview4173"
     showgrid="false"
     fit-margin-top="0"
     fit-margin-left="0"
     fit-margin-right="0"
     fit-margin-bottom="0"
     inkscape:zoom="0.434782618473"
     inkscape:cx="271.399993896"
     inkscape:cy="225.143746948"
     inkscape:current-layer="g4179" /><g
     id="g4179"
     inkscape:groupmode="layer"
     inkscape:label="ink_ext_XXXXXX"
     transform="matrix(1.25,0,0,-1.25,0,450.28625)"><g
       id="g4181"
       transform="scale(0.1,0.1)"><path
         d="m 4342.44,2281.56 -437.67,0 c -210.29,761.42 -907.55,1320.73 -1735.95,1320.73 -828.25,0 -1525.465,-559.31 -1735.746,-1320.73 l -433.074,0 0,-970.5 435.828,0 C 649.324,554.582 1344.08,0 2168.82,0 2993.67,0 3688.48,554.582 3902,1311.06 l 440.44,0 0,970.5"
         style="fill:#730f26;fill-opacity:1;fill-rule:nonzero;stroke:none"
         id="path4183"
         inkscape:connector-curvature="0" /><g
         id="g4185"><g
           id="g4187"
           clip-path="url(#clipPath4189)"><path
             d="m 3862.35,1801.15 c 0,-935.259 -758.22,-1693.4 -1693.53,-1693.4 -935.16,0 -1693.324,758.141 -1693.324,1693.4 0,935.27 758.164,1693.4 1693.324,1693.4 935.31,0 1693.53,-758.13 1693.53,-1693.4"
             style="fill:url(#linearGradient4193);fill-opacity:1;fill-rule:nonzero;stroke:none"
             id="path4199"
             inkscape:connector-curvature="0" /></g></g><path
         d="m 747.996,972.609 c -41.121,71.311 -76.766,145.911 -106.789,222.431 40.934,-34.92 84.391,-65.14 128.691,-93.33 87.25,-54.54 178.27,-100.79 270.862,-142.851 0.95,-3.48 1.84,-6.968 2.83,-10.519 53.09,-183.379 137.83,-355.84 256.35,-495.34 36.69,-43.238 76.78,-83.121 119.81,-118.691 C 1254,418.172 1106.43,528 980.957,657.488 891.328,753.102 813.008,859.07 747.996,972.609 Z M 3343.01,766.461 c -16.54,28.238 -38.25,52.937 -61.45,75.641 -46.83,45.23 -99.82,83.296 -154.2,118.429 -18.52,11.699 -37.34,23.188 -56.18,34.489 46.19,86.46 86.84,176.38 121.97,268.5 61.01,-3.33 121.83,-5.08 182.88,-4.68 73.48,0.81 147.27,4.73 219.77,17.72 36.18,6.82 72.26,15.68 106.03,30.79 16.74,7.65 33.06,16.73 47.13,28.93 3.06,2.77 6.09,5.67 8.97,8.75 -78.36,-266.56 -218.76,-499.249 -401.21,-686.518 2.07,4.5 3.9,9.09 5.13,14 8.75,32.41 -2.45,66.328 -18.84,93.949 z M 2266.82,207.992 c 169.37,65.719 323.68,176.406 457.11,309.789 7.41,7.379 14.33,15 21.58,22.461 89.92,-5.422 180.21,-6.922 270.13,-2.312 64.69,3.66 129.65,10.582 192.65,26.789 29.55,7.84 58.86,17.992 85.92,32.801 -321.59,-297.129 -755.38,-462.11 -1206.45,-440.04 60.66,10.852 120.65,27.891 179.06,50.512 z m -407.35,-23.32 c 26.01,9.207 51.41,22.707 75.69,39.129 58.06,39.918 110.15,94.039 157.87,152.969 55.63,69.281 105.45,145.492 151.43,224.941 126.83,-22.301 254.49,-40.102 382.63,-52.199 32.77,-3.121 65.44,-5.774 98.18,-8.012 -4.94,-4.961 -9.77,-10.09 -14.81,-15 -133.78,-131.09 -288.6,-236.578 -455.34,-297.781 -83.23,-30.598 -169.22,-49.528 -255.11,-54.68 -23.66,-1.551 -47.36,-1.738 -70.95,-1.047 -23.21,3.379 -46.39,7.336 -69.59,11.68 z M 1024.95,1524.28 c 85.07,-0.61 170.48,-5.77 255.53,-13.87 98.06,-9.29 195.86,-21.82 293.34,-37.31 -27.33,-162.45 -46.06,-325.6 -53.83,-488.1 -2.42,-51.609 -3.24,-102.949 -2.71,-154.168 -127.71,44.828 -253.59,94.566 -376.65,149.906 -20.54,9.262 -40.94,18.66 -61.24,28.322 -41.01,165.88 -57.89,340.3 -54.44,515.22 z M 598.324,1342.33 c -14.254,24.36 -20.906,49.43 -15.281,69.14 4.91,19.65 23.004,38.33 47.441,52.34 24.278,14.1 52.985,24.21 82.524,32.04 59.398,15.44 122.453,22.23 185.465,25.83 23.761,1.28 47.535,1.99 71.316,2.25 -0.043,-0.05 0,-0.13 -0.043,-0.26 -2.133,-164.73 14.309,-328.87 51.004,-486.29 -74.922,37.28 -148.074,77.52 -217.852,122.31 -53.078,34.28 -104.543,71.32 -148.589,114.03 -21.758,21.36 -41.809,44.45 -55.985,68.61 z m 3153.586,952.93 c -16.62,28.24 -38.49,52.91 -61.81,75.66 -47,45.34 -100.36,83.43 -155.1,118.7 -74.94,47.76 -153.05,90.32 -232.71,129.47 -3.74,14.96 -7.36,29.99 -11.38,44.85 -35.68,129.14 -86.19,253.45 -153.46,365.18 9.53,3.83 18.85,8.35 27.54,14.28 13.43,8.87 26.25,21.96 30.73,39.23 2.72,10.03 1.99,20.18 -0.23,29.82 265.97,-210.84 460.55,-498.77 558.41,-820.75 -0.59,1.16 -1.31,2.39 -1.99,3.56 z m 23.54,-858.51 c -6.17,17.56 -15.83,33.56 -26.65,48.48 -21.98,29.79 -48.88,55.35 -76.95,79.05 -56.66,47.27 -118.89,87.04 -182.34,124.11 -52.51,30.36 -106.13,58.7 -160.35,85.69 15.22,96.49 24.47,193.65 27.62,290.74 22.19,0.42 44.39,1.01 66.62,2.16 64.98,3.57 130.2,10.44 193.39,26.59 31.51,8.27 62.76,18.95 91.21,35.23 28.03,16.05 54.43,39.94 62.81,72.43 1.83,6.55 2.6,13.19 2.84,19.82 64.98,-253.62 70.75,-525.84 5.42,-796.62 -0.91,4.16 -2.17,8.3 -3.62,12.32 z m -499.79,83.22 c 22.04,82.77 39.64,166.63 52.98,251.15 50.71,-24.61 100.79,-50.6 149.87,-78.51 63.29,-36.5 125.47,-75.8 182.04,-122.56 28.01,-23.46 54.97,-48.85 76.87,-78.38 10.87,-14.87 20.51,-30.76 26.68,-48.13 6.28,-17.29 8.64,-36.52 3.89,-54.62 -4.75,-18.09 -16.35,-33.55 -30.25,-45.55 -14.01,-12.11 -30.22,-21.12 -47.08,-28.7 -33.61,-14.81 -69.58,-23.56 -105.59,-30.1 -72.27,-12.73 -145.65,-16.27 -218.82,-16.87 -56.47,0 -112.89,2.18 -169.21,5.91 30.33,80.63 56.8,162.9 78.62,246.36 z m -346.82,-218.72 c -119.29,16.65 -237.92,37.64 -355.78,61.77 34.32,104.92 65.62,210.95 93.7,317.75 28.26,106.16 53.25,213.24 75.05,320.67 114.45,-37.21 227.83,-77.58 339.84,-121.89 79.85,-32.4 159.2,-66.49 236.98,-103.68 -13.15,-85.25 -30.59,-169.91 -52.5,-253.43 -22.27,-84.03 -49.27,-166.86 -80.14,-248.02 -86.01,5.96 -171.77,15.57 -257.15,26.83 z m -145.11,-158.89 c -82.4,37.09 -166.03,71.39 -250.59,103.71 11.27,31.67 22.28,63.46 32.96,95.51 122.75,-22.01 245.98,-40.7 369.83,-55.31 81.76,-9.71 163.89,-17.28 246.08,-22.16 -34.78,-90.36 -75.05,-178.5 -120.55,-263.42 -89.62,52.76 -182.92,99.15 -277.73,141.67 z M 1636.8,1569.35 c 142.84,-44.75 286.94,-84.81 431.82,-121.16 161.56,-40.29 324.3,-75.54 488.06,-104.95 -10.55,-31.41 -21.34,-62.54 -32.56,-93.68 -154.93,58.83 -312.75,109.95 -472.36,154.93 -140.75,39.14 -282.9,73.86 -426.49,102.46 3.8,20.8 7.48,41.68 11.53,62.4 z m -117.68,885.86 c 92.56,-38.77 186.38,-73.91 281.03,-106.2 -7.21,-20.7 -14.32,-41.49 -21.37,-62.26 -127.08,26.58 -254.98,49.57 -383.85,67.61 -65.02,8.58 -130.25,16.24 -195.67,22.1 25.62,64.64 53.94,128.03 85.06,189.8 76.74,-40.78 155.34,-77.07 234.8,-111.05 z m 160.24,586.57 c 135.93,-12.86 271.34,-32.24 406.01,-56.69 -25.16,-43.41 -49.28,-87.69 -72.19,-132.88 -74.09,-146.05 -138.69,-298.36 -195.4,-454.19 -94.06,35.15 -186.95,73.05 -278.35,114.17 -76.52,34.28 -152.05,71.08 -225.06,111.56 0.4,0.76 0.78,1.55 1.15,2.25 83.36,153.72 183.88,297.16 301.22,421.23 20.9,-1.67 41.79,-3.43 62.62,-5.45 z m 253.88,262.83 c 15.41,-13.5 31.42,-25.69 47.86,-37.04 51.71,-35.22 106.5,-63.06 162.11,-88.3 17.29,-7.62 34.73,-14.86 52.13,-21.87 -22.51,-31.66 -44.24,-64.31 -65.13,-97.61 -8.04,-12.76 -15.79,-25.66 -23.62,-38.64 -138.41,29.9 -278.05,54.48 -419.18,71.41 -7.93,0.86 -15.92,1.65 -23.86,2.54 82.75,80.79 173.09,152.39 269.69,209.51 z m 897.84,15.64 c 72.15,-46.91 137.54,-105.87 194.88,-173.51 31.7,-37.43 60.92,-77.52 87.6,-119.55 -28.75,-8.55 -58.08,-12.79 -87.31,-15.33 -60.85,-4.93 -121.41,-1.98 -181.43,3.57 -7.53,0.74 -15,1.7 -22.52,2.61 -2.82,26.91 -6.09,53.68 -10.36,80.13 -12.31,74.79 -30.84,147.69 -61.75,210.92 -12.94,26.28 -28.32,50.49 -46.28,71.3 21.82,-7.46 43.38,-15.26 64.74,-23.56 21.31,-11.29 42.14,-23.39 62.43,-36.58 z m 358.74,-648.43 c -116.95,52.57 -236.28,99.92 -357.08,142.98 -0.21,65.15 -3.05,129.68 -9.33,193.13 7.94,-0.71 15.99,-1.47 24.1,-2.07 60.66,-4.45 121.76,-5.54 182.84,0.11 29.1,2.82 58.15,7.34 86.62,15.97 68.53,-108.71 121.09,-230.82 157.78,-358.94 3.46,-11.59 6.3,-23.34 9.37,-35 -31.25,15.06 -62.66,29.64 -94.3,43.82 z m -426.7,-558.92 c 89.7,-13.8 179.73,-25.3 270.08,-33.87 103.71,-10.01 207.94,-15.79 312.19,-14.43 -2.84,-95.32 -11.7,-190.69 -26.25,-285.5 -74.24,36.66 -149.75,70.64 -225.9,102.73 -114.67,48.45 -230.96,93.06 -348.35,134.51 6.39,32.15 12.43,64.33 18.23,96.56 z m -274.38,951.2 c 103.34,-25.3 208.27,-44.36 314.4,-54.49 5.67,-47.06 9.37,-94.96 11.52,-143.35 0.58,-15.11 0.97,-30.35 1.34,-45.55 -119.23,42.04 -239.96,79.92 -361.69,114.17 -102.41,28.53 -205.64,54.67 -309.68,77.95 26.57,45.4 54.38,89.38 83.72,131.51 85.18,-32.4 172.25,-58.42 260.39,-80.24 z m -204.47,155.62 c 46,57.31 96,109.48 150.25,147 27.03,18.55 55.14,33.24 83.54,41.39 28.21,8.32 56.79,9.59 83.15,3.21 54.06,-12.72 97.03,-58.8 127.04,-117.38 30.23,-58.89 49.6,-128.88 62.83,-201.46 4.3,-23.73 7.82,-47.79 10.82,-72.09 -105.24,13.38 -208.85,36.41 -310.55,64.97 -83.13,23.55 -165.24,51.35 -245.09,84.27 12.4,17.07 25.01,33.83 38.01,50.09 z m 173.29,224.26 c 14.71,-2.67 29.55,-5.5 44.29,-8.53 -25.32,-8.56 -50.09,-21.09 -73.9,-36.45 -59.24,-38.45 -112.81,-91.88 -161.86,-150.03 -17.79,-21.18 -34.92,-43.34 -51.59,-65.88 -20.29,8.77 -40.52,17.83 -60.42,27.32 -54.2,25.68 -107.18,54.39 -156.4,88.57 -10.93,7.67 -21.69,15.72 -32.01,24.08 41.25,22.76 83.64,42.84 127,59.7 81.85,32.06 166.84,52.9 252.2,59.97 37.58,3.17 75.16,3.48 112.69,1.25 z m -333.07,-466.11 c 105.93,-20.08 211.25,-43.11 315.88,-68.93 126.38,-31.61 251.89,-66.68 376.01,-106.59 0.86,-56.45 -0.06,-113.46 -2.96,-170.78 -8,-164.3 -27.54,-329.69 -55.83,-494.48 -165.24,30.47 -328.92,69.78 -490.71,114.77 -137.37,38.62 -273.36,82.09 -407.27,130.89 0.81,2.17 1.56,4.45 2.4,6.68 54.09,150.09 114.18,297.58 183.59,438.34 25.17,50.82 51.39,101.07 78.89,150.1 z m 134.73,-808.43 c -144.23,39.98 -289.58,76.44 -436.02,108.06 6.42,19.18 13.19,38.24 19.87,57.31 138.7,-45.89 279.23,-85.83 420.74,-121.23 161.91,-39.94 325.27,-73.66 489.86,-99.32 -5.58,-31.63 -11.54,-63.22 -17.71,-94.79 -157.13,55.35 -316.3,105.13 -476.74,149.97 z m -539.14,-238.65 c 27.23,103.58 57.55,206.18 90.56,307.68 145.9,-27.25 291.07,-59.26 435.24,-95.14 163.68,-41.12 326.4,-86.95 487.04,-139.02 -21.49,-107.77 -46.44,-215.06 -74.16,-321.37 -28.61,-106.77 -60.1,-213.06 -94.86,-318.01 -165.39,34.03 -329.4,74.56 -492.02,119.5 -143.07,39.93 -285.07,83.9 -425.44,132.14 21.5,105.4 45.97,210.25 73.64,314.22 z m 1626.37,167.03 c -0.17,-7.2 -0.54,-14.36 -0.68,-21.54 -107.18,-0.57 -214.11,7.75 -320.35,19.71 -86.54,10.37 -172.49,23.79 -258.19,39.36 1.07,6.09 2.3,12.15 3.33,18.17 27.29,158.63 47.88,318.21 56.98,476.96 2.98,55.55 4.94,111.21 5.1,166.51 116.33,-37.79 231.37,-79.72 344.38,-127.05 36.45,-15.62 72.79,-31.78 108.76,-48.6 43.67,-168.11 63.24,-345.38 60.67,-523.52 z m 11.26,-2.4 c 3.44,175.34 -13.15,350.41 -53.86,517.52 75.02,-35.5 148.48,-74.24 218.99,-118.33 54.57,-34.65 107.7,-72.22 154.7,-117.02 23.26,-22.49 45.15,-46.88 61.86,-74.87 16.51,-27.49 27.81,-61.01 19.33,-93.44 -8.64,-32.31 -35,-55.85 -62.92,-71.64 -28.4,-16.16 -59.48,-26.49 -90.72,-34.53 -63.05,-15.76 -127.8,-22.23 -192.35,-25.4 -18.57,-0.84 -37.1,-1.21 -55.5,-1.4 0.12,6.4 0.47,12.75 0.47,19.11 z m -168.02,1021.59 c 2.71,-9.92 3.7,-20.48 0.96,-30.97 -4.56,-16.99 -17.34,-29.81 -30.7,-38.48 -8.22,-5.39 -16.86,-9.57 -25.72,-13.18 -26.62,43.69 -55.83,85.48 -87.87,124.71 -39.41,48.41 -83,92.74 -130.25,132.06 97.74,-49.42 189.16,-107.92 273.58,-174.14 z m -1260.3,239.54 c -9.96,10.84 -19,22.56 -25.32,35.08 -6.39,12.46 -9.12,25.53 -6.18,35.91 1.93,7.75 7.32,15.33 14.87,21.85 109.21,17.22 220.95,23.57 333.87,18.24 -54.75,-9.77 -109.03,-24.6 -162.12,-43.91 -52.23,-19.11 -103.33,-42.45 -152.97,-69.32 -0.66,0.7 -1.49,1.41 -2.15,2.15 z M 1106.2,2093.06 c 20.44,77.84 44.85,154.57 72.67,229.95 69.09,-4.67 138.17,-11.33 206.99,-19.54 127.03,-14.83 253.57,-34.14 379.61,-56.82 -32.87,-100.43 -62.8,-201.85 -90.04,-303.91 -26.92,-102.92 -51.15,-206.76 -72.16,-311.01 -120.93,42.63 -240.56,88.31 -358.37,138.24 -63.84,26.88 -127.12,55.18 -189.43,85.15 13.02,80.02 29.87,159.52 50.73,237.94 z m -524.22,138.47 c 0.754,3.12 1.676,6.1 2.469,9.2 8.953,16.87 30.117,32.61 55.145,43.56 29.847,13.46 63.883,22.15 98.265,28.54 69.403,12.68 141.61,16.64 213.68,17.47 55.991,0.43 112.161,-0.93 168.371,-3.76 -26.27,-71.88 -49.36,-144.92 -68.98,-218.91 -19.58,-74.72 -35.69,-150.35 -48.38,-226.5 -50.382,25.3 -99.948,51.86 -148.519,80.02 -62.269,36.39 -123.078,75.5 -177.152,120.77 -26.785,22.53 -52.074,46.88 -71.387,73.37 -16.293,21.81 -26.933,45.85 -26.437,64.94 0.996,3.79 1.863,7.55 2.925,11.3 z m 444.93,-651.2 c 3.05,70.35 9.47,140.7 18.95,210.79 59.45,-27.11 119.54,-52.45 179.93,-76.88 121.23,-47.99 244,-91.29 367.81,-131.01 -4.29,-22.52 -8.42,-45.01 -12.41,-67.56 -96.94,18.39 -194.56,33.77 -292.83,45.52 -86.69,9.69 -173.78,16.97 -261.45,19.14 z m 838.02,-859.068 c -104.33,29.418 -207.91,61.629 -310.44,96.679 0.22,57.149 2.29,114.84 5.64,172.329 9.18,156.65 29.66,314.64 56.85,471.87 0.26,1.24 0.52,2.44 0.7,3.71 141.19,-23.73 281.61,-53.15 420.71,-87.51 162.19,-40.49 323.07,-86.96 481.11,-141.85 -56.63,-156.36 -120.95,-308.869 -194.71,-454.83 -26.2,-52.238 -54.11,-103.191 -83.33,-152.73 -126.57,26.468 -252.13,57.629 -376.53,92.332 z M 1755.43,208.27 c -53.59,14.652 -94.87,62.058 -123.3,121.21 -28.69,59.43 -46.42,129.461 -58.11,202.012 -12.01,76.418 -17.65,155.848 -19.07,236.399 101.38,-30.903 203.57,-59.059 306.28,-84.801 121.06,-29.809 243.03,-56.09 365.7,-78.27 -5.64,-9.261 -11.22,-18.621 -16.96,-27.75 -40.99,-65.57 -84.69,-128.308 -132.2,-185.148 -47.37,-56.641 -98.76,-107.992 -154.16,-144.141 -27.64,-18.043 -56.22,-31.949 -84.89,-39.082 -28.48,-7.519 -57.28,-7.847 -83.29,-0.429 z m 1296.45,774.261 c -86.22,-157.101 -191.7,-302.422 -313.62,-427.742 -39.34,3.223 -78.75,6.981 -117.83,11.481 -121.7,14.449 -242.35,34.851 -362.15,59.332 27.6,49.058 53.96,99.289 79.21,150.148 70.52,142.422 131.45,291.34 186.02,442.78 1.79,4.91 3.45,9.8 5.2,14.66 81.9,-28.69 163.12,-59.35 243.26,-93.01 98.33,-42.23 195.55,-87.91 288.34,-141.481 -2.79,-5.347 -5.52,-10.769 -8.43,-16.168 z M 3070.24,993 c 15.4,-9.008 30.81,-18.141 45.95,-27.801 54.39,-34.519 107.27,-72.019 154.02,-116.738 23.19,-22.52 44.97,-46.859 61.53,-74.852 16.37,-27.379 27.66,-60.968 19.21,-93.359 -8.65,-32.32 -35.02,-55.969 -62.7,-71.641 -28.35,-16.211 -59.32,-26.597 -90.54,-34.757 -62.73,-15.762 -127.31,-22.223 -191.62,-25.512 -82.78,-3.699 -165.5,-1.121 -248.07,4.949 118.99,125.832 220.64,270.723 304.92,425.762 2.41,4.59 4.77,9.281 7.3,13.949 z M 1713.25,3405.19 c 52.1,14.99 105,27.47 158.64,37.25 -1.26,-2.99 -2.38,-6.12 -3.23,-9.29 -3.04,-11.63 -2.94,-23.74 -0.98,-34.15 2,-10.49 5.6,-19.73 9.77,-28.04 6.66,-12.95 14.67,-23.91 23.21,-33.91 -101.87,-59.04 -197.22,-133.23 -283.78,-217.66 -5.91,-5.81 -11.63,-11.97 -17.53,-17.91 -101.22,9.16 -203.22,14.06 -305.9,9.66 -53.18,-2.61 -106.62,-7.33 -160.09,-17.69 67.51,55.76 139.2,106.32 214.79,150.75 114.69,67.62 237.53,121.9 365.1,160.99 z m -691.01,-412.12 c 1.49,0.95 3,1.91 4.59,2.77 24.32,14.17 53.18,24.21 82.82,31.99 59.64,15.35 122.88,22.15 186.2,25.61 84.75,4.39 170.23,3.09 255.75,-1.85 -109,-118.36 -203.96,-252.36 -282.96,-396.05 -0.73,-1.49 -1.45,-2.9 -2.29,-4.43 -22.29,13.11 -44.38,26.52 -66.14,40.37 -53.28,34.32 -104.99,71.53 -149.27,114.25 -21.86,21.46 -42,44.41 -56.19,68.7 -14.437,24.32 -21.152,49.39 -15.504,69.08 0.715,2.93 1.844,5.81 3.078,8.67 13.156,13.81 26.396,27.48 39.916,40.89 z M 919.234,2881.52 c 4.938,-16.36 12.028,-31.18 20.008,-44.68 19.125,-32.04 42.813,-58.03 67.548,-81.89 49.74,-47.37 104.49,-85.84 160.54,-121.41 22.52,-14.09 45.35,-27.49 68.41,-40.46 -35.12,-68.89 -66.78,-139.63 -95.11,-211.82 -62.76,4.51 -125.63,7.27 -188.892,7.19 -74.554,-0.39 -149.55,-3.81 -225.066,-17 -37.434,-6.81 -75.106,-15.76 -112.43,-32.05 57.121,170.16 141.563,331.05 250.301,473.92 17.582,23.23 35.871,45.91 54.691,68.2 z M 540.309,1586.05 c -23.5,174.74 -18.239,352.98 14.453,526.08 24.426,-32.33 52.504,-58.62 81.562,-82.89 59.09,-48.73 122.653,-88.72 187.262,-125.98 55.359,-31.42 111.781,-60.22 168.898,-87.37 -10.941,-78.02 -17.867,-156.48 -20.992,-235 -25.054,0 -50.23,-0.35 -75.437,-1.5 -65.992,-3.36 -132.317,-9.87 -198.75,-26.52 -33.11,-8.65 -66.422,-19.56 -98.719,-37.98 -14.34,-8.24 -28.453,-18.28 -41.434,-30.98 -6.589,33.96 -12.332,67.94 -16.843,102.14 z M 1516.62,307.602 c -70.71,48.347 -134.29,108.359 -189.73,176.699 -103.77,127.769 -178.05,283.23 -227.1,448.308 6.77,-2.839 13.47,-5.847 20.23,-8.75 130.57,-54.75 263.72,-102.32 398.31,-144.488 0.37,-10.922 0.52,-21.769 1.04,-32.582 3.51,-78.668 10.93,-156.598 24.75,-231.508 13.89,-74.883 34.09,-147.793 66.55,-210.441 13.18,-25.231 28.62,-48.371 46.45,-68.391 -14.96,4.801 -29.81,9.871 -44.49,15.172 -33.13,16.34 -65.24,34.859 -96.01,55.981 z M 2607.98,3476.86 C 1690.24,3719.31 746.348,3169.96 503.91,2252.16 261.488,1334.38 810.898,390.492 1728.66,148.109 2646.44,-94.3516 3590.32,455.07 3832.71,1372.82 c 242.43,917.8 -306.97,1861.67 -1224.73,2104.04"
         style="fill:#ffffff;fill-opacity:1;fill-rule:nonzero;stroke:none"
         id="path4201"
         inkscape:connector-curvature="0" /><path
         d="m 747.996,972.609 c -41.121,71.311 -76.766,145.911 -106.789,222.431 40.934,-34.92 84.391,-65.14 128.691,-93.33 87.25,-54.54 178.27,-100.79 270.862,-142.851 0.95,-3.48 1.84,-6.968 2.83,-10.519 53.09,-183.379 137.83,-355.84 256.35,-495.34 36.69,-43.238 76.78,-83.121 119.81,-118.691 C 1254,418.172 1106.43,528 980.957,657.488 891.328,753.102 813.008,859.07 747.996,972.609 Z M 3343.01,766.461 c -16.54,28.238 -38.25,52.937 -61.45,75.641 -46.83,45.23 -99.82,83.296 -154.2,118.429 -18.52,11.699 -37.34,23.188 -56.18,34.489 46.19,86.46 86.84,176.38 121.97,268.5 61.01,-3.33 121.83,-5.08 182.88,-4.68 73.48,0.81 147.27,4.73 219.77,17.72 36.18,6.82 72.26,15.68 106.03,30.79 16.74,7.65 33.06,16.73 47.13,28.93 3.06,2.77 6.09,5.67 8.97,8.75 -78.36,-266.56 -218.76,-499.249 -401.21,-686.518 2.07,4.5 3.9,9.09 5.13,14 8.75,32.41 -2.45,66.328 -18.84,93.949 z M 2266.82,207.992 c 169.37,65.719 323.68,176.406 457.11,309.789 7.41,7.379 14.33,15 21.58,22.461 89.92,-5.422 180.21,-6.922 270.13,-2.312 64.69,3.66 129.65,10.582 192.65,26.789 29.55,7.84 58.86,17.992 85.92,32.801 -321.59,-297.129 -755.38,-462.11 -1206.45,-440.04 60.66,10.852 120.65,27.891 179.06,50.512 z m -407.35,-23.32 c 26.01,9.207 51.41,22.707 75.69,39.129 58.06,39.918 110.15,94.039 157.87,152.969 55.63,69.281 105.45,145.492 151.43,224.941 126.83,-22.301 254.49,-40.102 382.63,-52.199 32.77,-3.121 65.44,-5.774 98.18,-8.012 -4.94,-4.961 -9.77,-10.09 -14.81,-15 -133.78,-131.09 -288.6,-236.578 -455.34,-297.781 -83.23,-30.598 -169.22,-49.528 -255.11,-54.68 -23.66,-1.551 -47.36,-1.738 -70.95,-1.047 -23.21,3.379 -46.39,7.336 -69.59,11.68 z M 1024.95,1524.28 c 85.07,-0.61 170.48,-5.77 255.53,-13.87 98.06,-9.29 195.86,-21.82 293.34,-37.31 -27.33,-162.45 -46.06,-325.6 -53.83,-488.1 -2.42,-51.609 -3.24,-102.949 -2.71,-154.168 -127.71,44.828 -253.59,94.566 -376.65,149.906 -20.54,9.262 -40.94,18.66 -61.24,28.322 -41.01,165.88 -57.89,340.3 -54.44,515.22 z M 598.324,1342.33 c -14.254,24.36 -20.906,49.43 -15.281,69.14 4.91,19.65 23.004,38.33 47.441,52.34 24.278,14.1 52.985,24.21 82.524,32.04 59.398,15.44 122.453,22.23 185.465,25.83 23.761,1.28 47.535,1.99 71.316,2.25 -0.043,-0.05 0,-0.13 -0.043,-0.26 -2.133,-164.73 14.309,-328.87 51.004,-486.29 -74.922,37.28 -148.074,77.52 -217.852,122.31 -53.078,34.28 -104.543,71.32 -148.589,114.03 -21.758,21.36 -41.809,44.45 -55.985,68.61 z m 3153.586,952.93 c -16.62,28.24 -38.49,52.91 -61.81,75.66 -47,45.34 -100.36,83.43 -155.1,118.7 -74.94,47.76 -153.05,90.32 -232.71,129.47 -3.74,14.96 -7.36,29.99 -11.38,44.85 -35.68,129.14 -86.19,253.45 -153.46,365.18 9.53,3.83 18.85,8.35 27.54,14.28 13.43,8.87 26.25,21.96 30.73,39.23 2.72,10.03 1.99,20.18 -0.23,29.82 265.97,-210.84 460.55,-498.77 558.41,-820.75 -0.59,1.16 -1.31,2.39 -1.99,3.56 z m 23.54,-858.51 c -6.17,17.56 -15.83,33.56 -26.65,48.48 -21.98,29.79 -48.88,55.35 -76.95,79.05 -56.66,47.27 -118.89,87.04 -182.34,124.11 -52.51,30.36 -106.13,58.7 -160.35,85.69 15.22,96.49 24.47,193.65 27.62,290.74 22.19,0.42 44.39,1.01 66.62,2.16 64.98,3.57 130.2,10.44 193.39,26.59 31.51,8.27 62.76,18.95 91.21,35.23 28.03,16.05 54.43,39.94 62.81,72.43 1.83,6.55 2.6,13.19 2.84,19.82 64.98,-253.62 70.75,-525.84 5.42,-796.62 -0.91,4.16 -2.17,8.3 -3.62,12.32 z m -499.79,83.22 c 22.04,82.77 39.64,166.63 52.98,251.15 50.71,-24.61 100.79,-50.6 149.87,-78.51 63.29,-36.5 125.47,-75.8 182.04,-122.56 28.01,-23.46 54.97,-48.85 76.87,-78.38 10.87,-14.87 20.51,-30.76 26.68,-48.13 6.28,-17.29 8.64,-36.52 3.89,-54.62 -4.75,-18.09 -16.35,-33.55 -30.25,-45.55 -14.01,-12.11 -30.22,-21.12 -47.08,-28.7 -33.61,-14.81 -69.58,-23.56 -105.59,-30.1 -72.27,-12.73 -145.65,-16.27 -218.82,-16.87 -56.47,0 -112.89,2.18 -169.21,5.91 30.33,80.63 56.8,162.9 78.62,246.36 z m -346.82,-218.72 c -119.29,16.65 -237.92,37.64 -355.78,61.77 34.32,104.92 65.62,210.95 93.7,317.75 28.26,106.16 53.25,213.24 75.05,320.67 114.45,-37.21 227.83,-77.58 339.84,-121.89 79.85,-32.4 159.2,-66.49 236.98,-103.68 -13.15,-85.25 -30.59,-169.91 -52.5,-253.43 -22.27,-84.03 -49.27,-166.86 -80.14,-248.02 -86.01,5.96 -171.77,15.57 -257.15,26.83 z m -145.11,-158.89 c -82.4,37.09 -166.03,71.39 -250.59,103.71 11.27,31.67 22.28,63.46 32.96,95.51 122.75,-22.01 245.98,-40.7 369.83,-55.31 81.76,-9.71 163.89,-17.28 246.08,-22.16 -34.78,-90.36 -75.05,-178.5 -120.55,-263.42 -89.62,52.76 -182.92,99.15 -277.73,141.67 z M 1636.8,1569.35 c 142.84,-44.75 286.94,-84.81 431.82,-121.16 161.56,-40.29 324.3,-75.54 488.06,-104.95 -10.55,-31.41 -21.34,-62.54 -32.56,-93.68 -154.93,58.83 -312.75,109.95 -472.36,154.93 -140.75,39.14 -282.9,73.86 -426.49,102.46 3.8,20.8 7.48,41.68 11.53,62.4 z m -117.68,885.86 c 92.56,-38.77 186.38,-73.91 281.03,-106.2 -7.21,-20.7 -14.32,-41.49 -21.37,-62.26 -127.08,26.58 -254.98,49.57 -383.85,67.61 -65.02,8.58 -130.25,16.24 -195.67,22.1 25.62,64.64 53.94,128.03 85.06,189.8 76.74,-40.78 155.34,-77.07 234.8,-111.05 z m 160.24,586.57 c 135.93,-12.86 271.34,-32.24 406.01,-56.69 -25.16,-43.41 -49.28,-87.69 -72.19,-132.88 -74.09,-146.05 -138.69,-298.36 -195.4,-454.19 -94.06,35.15 -186.95,73.05 -278.35,114.17 -76.52,34.28 -152.05,71.08 -225.06,111.56 0.4,0.76 0.78,1.55 1.15,2.25 83.36,153.72 183.88,297.16 301.22,421.23 20.9,-1.67 41.79,-3.43 62.62,-5.45 z m 253.88,262.83 c 15.41,-13.5 31.42,-25.69 47.86,-37.04 51.71,-35.22 106.5,-63.06 162.11,-88.3 17.29,-7.62 34.73,-14.86 52.13,-21.87 -22.51,-31.66 -44.24,-64.31 -65.13,-97.61 -8.04,-12.76 -15.79,-25.66 -23.62,-38.64 -138.41,29.9 -278.05,54.48 -419.18,71.41 -7.93,0.86 -15.92,1.65 -23.86,2.54 82.75,80.79 173.09,152.39 269.69,209.51 z m 897.84,15.64 c 72.15,-46.91 137.54,-105.87 194.88,-173.51 31.7,-37.43 60.92,-77.52 87.6,-119.55 -28.75,-8.55 -58.08,-12.79 -87.31,-15.33 -60.85,-4.93 -121.41,-1.98 -181.43,3.57 -7.53,0.74 -15,1.7 -22.52,2.61 -2.82,26.91 -6.09,53.68 -10.36,80.13 -12.31,74.79 -30.84,147.69 -61.75,210.92 -12.94,26.28 -28.32,50.49 -46.28,71.3 21.82,-7.46 43.38,-15.26 64.74,-23.56 21.31,-11.29 42.14,-23.39 62.43,-36.58 z m 358.74,-648.43 c -116.95,52.57 -236.28,99.92 -357.08,142.98 -0.21,65.15 -3.05,129.68 -9.33,193.13 7.94,-0.71 15.99,-1.47 24.1,-2.07 60.66,-4.45 121.76,-5.54 182.84,0.11 29.1,2.82 58.15,7.34 86.62,15.97 68.53,-108.71 121.09,-230.82 157.78,-358.94 3.46,-11.59 6.3,-23.34 9.37,-35 -31.25,15.06 -62.66,29.64 -94.3,43.82 z m -426.7,-558.92 c 89.7,-13.8 179.73,-25.3 270.08,-33.87 103.71,-10.01 207.94,-15.79 312.19,-14.43 -2.84,-95.32 -11.7,-190.69 -26.25,-285.5 -74.24,36.66 -149.75,70.64 -225.9,102.73 -114.67,48.45 -230.96,93.06 -348.35,134.51 6.39,32.15 12.43,64.33 18.23,96.56 z m -274.38,951.2 c 103.34,-25.3 208.27,-44.36 314.4,-54.49 5.67,-47.06 9.37,-94.96 11.52,-143.35 0.58,-15.11 0.97,-30.35 1.34,-45.55 -119.23,42.04 -239.96,79.92 -361.69,114.17 -102.41,28.53 -205.64,54.67 -309.68,77.95 26.57,45.4 54.38,89.38 83.72,131.51 85.18,-32.4 172.25,-58.42 260.39,-80.24 z m -204.47,155.62 c 46,57.31 96,109.48 150.25,147 27.03,18.55 55.14,33.24 83.54,41.39 28.21,8.32 56.79,9.59 83.15,3.21 54.06,-12.72 97.03,-58.8 127.04,-117.38 30.23,-58.89 49.6,-128.88 62.83,-201.46 4.3,-23.73 7.82,-47.79 10.82,-72.09 -105.24,13.38 -208.85,36.41 -310.55,64.97 -83.13,23.55 -165.24,51.35 -245.09,84.27 12.4,17.07 25.01,33.83 38.01,50.09 z m 173.29,224.26 c 14.71,-2.67 29.55,-5.5 44.29,-8.53 -25.32,-8.56 -50.09,-21.09 -73.9,-36.45 -59.24,-38.45 -112.81,-91.88 -161.86,-150.03 -17.79,-21.18 -34.92,-43.34 -51.59,-65.88 -20.29,8.77 -40.52,17.83 -60.42,27.32 -54.2,25.68 -107.18,54.39 -156.4,88.57 -10.93,7.67 -21.69,15.72 -32.01,24.08 41.25,22.76 83.64,42.84 127,59.7 81.85,32.06 166.84,52.9 252.2,59.97 37.58,3.17 75.16,3.48 112.69,1.25 z m -333.07,-466.11 c 105.93,-20.08 211.25,-43.11 315.88,-68.93 126.38,-31.61 251.89,-66.68 376.01,-106.59 0.86,-56.45 -0.06,-113.46 -2.96,-170.78 -8,-164.3 -27.54,-329.69 -55.83,-494.48 -165.24,30.47 -328.92,69.78 -490.71,114.77 -137.37,38.62 -273.36,82.09 -407.27,130.89 0.81,2.17 1.56,4.45 2.4,6.68 54.09,150.09 114.18,297.58 183.59,438.34 25.17,50.82 51.39,101.07 78.89,150.1 z m 134.73,-808.43 c -144.23,39.98 -289.58,76.44 -436.02,108.06 6.42,19.18 13.19,38.24 19.87,57.31 138.7,-45.89 279.23,-85.83 420.74,-121.23 161.91,-39.94 325.27,-73.66 489.86,-99.32 -5.58,-31.63 -11.54,-63.22 -17.71,-94.79 -157.13,55.35 -316.3,105.13 -476.74,149.97 z m -539.14,-238.65 c 27.23,103.58 57.55,206.18 90.56,307.68 145.9,-27.25 291.07,-59.26 435.24,-95.14 163.68,-41.12 326.4,-86.95 487.04,-139.02 -21.49,-107.77 -46.44,-215.06 -74.16,-321.37 -28.61,-106.77 -60.1,-213.06 -94.86,-318.01 -165.39,34.03 -329.4,74.56 -492.02,119.5 -143.07,39.93 -285.07,83.9 -425.44,132.14 21.5,105.4 45.97,210.25 73.64,314.22 z m 1626.37,167.03 c -0.17,-7.2 -0.54,-14.36 -0.68,-21.54 -107.18,-0.57 -214.11,7.75 -320.35,19.71 -86.54,10.37 -172.49,23.79 -258.19,39.36 1.07,6.09 2.3,12.15 3.33,18.17 27.29,158.63 47.88,318.21 56.98,476.96 2.98,55.55 4.94,111.21 5.1,166.51 116.33,-37.79 231.37,-79.72 344.38,-127.05 36.45,-15.62 72.79,-31.78 108.76,-48.6 43.67,-168.11 63.24,-345.38 60.67,-523.52 z m 11.26,-2.4 c 3.44,175.34 -13.15,350.41 -53.86,517.52 75.02,-35.5 148.48,-74.24 218.99,-118.33 54.57,-34.65 107.7,-72.22 154.7,-117.02 23.26,-22.49 45.15,-46.88 61.86,-74.87 16.51,-27.49 27.81,-61.01 19.33,-93.44 -8.64,-32.31 -35,-55.85 -62.92,-71.64 -28.4,-16.16 -59.48,-26.49 -90.72,-34.53 -63.05,-15.76 -127.8,-22.23 -192.35,-25.4 -18.57,-0.84 -37.1,-1.21 -55.5,-1.4 0.12,6.4 0.47,12.75 0.47,19.11 z m -168.02,1021.59 c 2.71,-9.92 3.7,-20.48 0.96,-30.97 -4.56,-16.99 -17.34,-29.81 -30.7,-38.48 -8.22,-5.39 -16.86,-9.57 -25.72,-13.18 -26.62,43.69 -55.83,85.48 -87.87,124.71 -39.41,48.41 -83,92.74 -130.25,132.06 97.74,-49.42 189.16,-107.92 273.58,-174.14 z m -1260.3,239.54 c -9.96,10.84 -19,22.56 -25.32,35.08 -6.39,12.46 -9.12,25.53 -6.18,35.91 1.93,7.75 7.32,15.33 14.87,21.85 109.21,17.22 220.95,23.57 333.87,18.24 -54.75,-9.77 -109.03,-24.6 -162.12,-43.91 -52.23,-19.11 -103.33,-42.45 -152.97,-69.32 -0.66,0.7 -1.49,1.41 -2.15,2.15 z M 1106.2,2093.06 c 20.44,77.84 44.85,154.57 72.67,229.95 69.09,-4.67 138.17,-11.33 206.99,-19.54 127.03,-14.83 253.57,-34.14 379.61,-56.82 -32.87,-100.43 -62.8,-201.85 -90.04,-303.91 -26.92,-102.92 -51.15,-206.76 -72.16,-311.01 -120.93,42.63 -240.56,88.31 -358.37,138.24 -63.84,26.88 -127.12,55.18 -189.43,85.15 13.02,80.02 29.87,159.52 50.73,237.94 z m -524.22,138.47 c 0.754,3.12 1.676,6.1 2.469,9.2 8.953,16.87 30.117,32.61 55.145,43.56 29.847,13.46 63.883,22.15 98.265,28.54 69.403,12.68 141.61,16.64 213.68,17.47 55.991,0.43 112.161,-0.93 168.371,-3.76 -26.27,-71.88 -49.36,-144.92 -68.98,-218.91 -19.58,-74.72 -35.69,-150.35 -48.38,-226.5 -50.382,25.3 -99.948,51.86 -148.519,80.02 -62.269,36.39 -123.078,75.5 -177.152,120.77 -26.785,22.53 -52.074,46.88 -71.387,73.37 -16.293,21.81 -26.933,45.85 -26.437,64.94 0.996,3.79 1.863,7.55 2.925,11.3 z m 444.93,-651.2 c 3.05,70.35 9.47,140.7 18.95,210.79 59.45,-27.11 119.54,-52.45 179.93,-76.88 121.23,-47.99 244,-91.29 367.81,-131.01 -4.29,-22.52 -8.42,-45.01 -12.41,-67.56 -96.94,18.39 -194.56,33.77 -292.83,45.52 -86.69,9.69 -173.78,16.97 -261.45,19.14 z m 838.02,-859.068 c -104.33,29.418 -207.91,61.629 -310.44,96.679 0.22,57.149 2.29,114.84 5.64,172.329 9.18,156.65 29.66,314.64 56.85,471.87 0.26,1.24 0.52,2.44 0.7,3.71 141.19,-23.73 281.61,-53.15 420.71,-87.51 162.19,-40.49 323.07,-86.96 481.11,-141.85 -56.63,-156.36 -120.95,-308.869 -194.71,-454.83 -26.2,-52.238 -54.11,-103.191 -83.33,-152.73 -126.57,26.468 -252.13,57.629 -376.53,92.332 z M 1755.43,208.27 c -53.59,14.652 -94.87,62.058 -123.3,121.21 -28.69,59.43 -46.42,129.461 -58.11,202.012 -12.01,76.418 -17.65,155.848 -19.07,236.399 101.38,-30.903 203.57,-59.059 306.28,-84.801 121.06,-29.809 243.03,-56.09 365.7,-78.27 -5.64,-9.261 -11.22,-18.621 -16.96,-27.75 -40.99,-65.57 -84.69,-128.308 -132.2,-185.148 -47.37,-56.641 -98.76,-107.992 -154.16,-144.141 -27.64,-18.043 -56.22,-31.949 -84.89,-39.082 -28.48,-7.519 -57.28,-7.847 -83.29,-0.429 z m 1296.45,774.261 c -86.22,-157.101 -191.7,-302.422 -313.62,-427.742 -39.34,3.223 -78.75,6.981 -117.83,11.481 -121.7,14.449 -242.35,34.851 -362.15,59.332 27.6,49.058 53.96,99.289 79.21,150.148 70.52,142.422 131.45,291.34 186.02,442.78 1.79,4.91 3.45,9.8 5.2,14.66 81.9,-28.69 163.12,-59.35 243.26,-93.01 98.33,-42.23 195.55,-87.91 288.34,-141.481 -2.79,-5.347 -5.52,-10.769 -8.43,-16.168 z M 3070.24,993 c 15.4,-9.008 30.81,-18.141 45.95,-27.801 54.39,-34.519 107.27,-72.019 154.02,-116.738 23.19,-22.52 44.97,-46.859 61.53,-74.852 16.37,-27.379 27.66,-60.968 19.21,-93.359 -8.65,-32.32 -35.02,-55.969 -62.7,-71.641 -28.35,-16.211 -59.32,-26.597 -90.54,-34.757 -62.73,-15.762 -127.31,-22.223 -191.62,-25.512 -82.78,-3.699 -165.5,-1.121 -248.07,4.949 118.99,125.832 220.64,270.723 304.92,425.762 2.41,4.59 4.77,9.281 7.3,13.949 z M 1713.25,3405.19 c 52.1,14.99 105,27.47 158.64,37.25 -1.26,-2.99 -2.38,-6.12 -3.23,-9.29 -3.04,-11.63 -2.94,-23.74 -0.98,-34.15 2,-10.49 5.6,-19.73 9.77,-28.04 6.66,-12.95 14.67,-23.91 23.21,-33.91 -101.87,-59.04 -197.22,-133.23 -283.78,-217.66 -5.91,-5.81 -11.63,-11.97 -17.53,-17.91 -101.22,9.16 -203.22,14.06 -305.9,9.66 -53.18,-2.61 -106.62,-7.33 -160.09,-17.69 67.51,55.76 139.2,106.32 214.79,150.75 114.69,67.62 237.53,121.9 365.1,160.99 z m -691.01,-412.12 c 1.49,0.95 3,1.91 4.59,2.77 24.32,14.17 53.18,24.21 82.82,31.99 59.64,15.35 122.88,22.15 186.2,25.61 84.75,4.39 170.23,3.09 255.75,-1.85 -109,-118.36 -203.96,-252.36 -282.96,-396.05 -0.73,-1.49 -1.45,-2.9 -2.29,-4.43 -22.29,13.11 -44.38,26.52 -66.14,40.37 -53.28,34.32 -104.99,71.53 -149.27,114.25 -21.86,21.46 -42,44.41 -56.19,68.7 -14.437,24.32 -21.152,49.39 -15.504,69.08 0.715,2.93 1.844,5.81 3.078,8.67 13.156,13.81 26.396,27.48 39.916,40.89 z M 919.234,2881.52 c 4.938,-16.36 12.028,-31.18 20.008,-44.68 19.125,-32.04 42.813,-58.03 67.548,-81.89 49.74,-47.37 104.49,-85.84 160.54,-121.41 22.52,-14.09 45.35,-27.49 68.41,-40.46 -35.12,-68.89 -66.78,-139.63 -95.11,-211.82 -62.76,4.51 -125.63,7.27 -188.892,7.19 -74.554,-0.39 -149.55,-3.81 -225.066,-17 -37.434,-6.81 -75.106,-15.76 -112.43,-32.05 57.121,170.16 141.563,331.05 250.301,473.92 17.582,23.23 35.871,45.91 54.691,68.2 z M 540.309,1586.05 c -23.5,174.74 -18.239,352.98 14.453,526.08 24.426,-32.33 52.504,-58.62 81.562,-82.89 59.09,-48.73 122.653,-88.72 187.262,-125.98 55.359,-31.42 111.781,-60.22 168.898,-87.37 -10.941,-78.02 -17.867,-156.48 -20.992,-235 -25.054,0 -50.23,-0.35 -75.437,-1.5 -65.992,-3.36 -132.317,-9.87 -198.75,-26.52 -33.11,-8.65 -66.422,-19.56 -98.719,-37.98 -14.34,-8.24 -28.453,-18.28 -41.434,-30.98 -6.589,33.96 -12.332,67.94 -16.843,102.14 z M 1516.62,307.602 c -70.71,48.347 -134.29,108.359 -189.73,176.699 -103.77,127.769 -178.05,283.23 -227.1,448.308 6.77,-2.839 13.47,-5.847 20.23,-8.75 130.57,-54.75 263.72,-102.32 398.31,-144.488 0.37,-10.922 0.52,-21.769 1.04,-32.582 3.51,-78.668 10.93,-156.598 24.75,-231.508 13.89,-74.883 34.09,-147.793 66.55,-210.441 13.18,-25.231 28.62,-48.371 46.45,-68.391 -14.96,4.801 -29.81,9.871 -44.49,15.172 -33.13,16.34 -65.24,34.859 -96.01,55.981 z M 2607.98,3476.86 C 1690.24,3719.31 746.348,3169.96 503.91,2252.16 261.488,1334.38 810.898,390.492 1728.66,148.109 2646.44,-94.3516 3590.32,455.07 3832.71,1372.82 c 242.43,917.8 -306.97,1861.67 -1224.73,2104.04 z"
         style="fill:none;stroke:#ffffff;stroke-width:5;stroke-linecap:butt;stroke-linejoin:miter;stroke-miterlimit:4;stroke-dasharray:none;stroke-opacity:1"
         id="path4203"
         inkscape:connector-curvature="0" /><path
         d="M 2606.63,3450.79 C 1708.19,3688.13 783.074,3146.31 544.43,2242.87 305.797,1339.44 842.598,411.371 1741.07,174.09 2639.54,-63.2813 3564.65,478.609 3803.24,1382.02 4041.89,2285.46 3505.11,3213.5 2606.63,3450.79 Z"
         style="fill:none;stroke:#feec6c;stroke-width:85;stroke-linecap:butt;stroke-linejoin:miter;stroke-miterlimit:10;stroke-dasharray:none;stroke-opacity:1"
         id="path4205"
         inkscape:connector-curvature="0" /><path
         d="m 66.3398,1377.2 4207.71,0 0,838.16 -4207.71,0 0,-838.16 z"
         style="fill:#ffffff;fill-opacity:1;fill-rule:nonzero;stroke:none"
         id="path4207"
         inkscape:connector-curvature="0" /><path
         d="m 3664.64,1682.08 c 2.76,0 4.32,1.45 4.32,3.49 0,2.28 -1.56,3.48 -4.32,3.48 l -5.16,0 0,-6.97 5.16,0 z m -9.23,10.57 9.59,0 c 4.68,0 8.15,-2.28 8.15,-6.72 0,-3.47 -2.03,-5.64 -4.91,-6.48 l 5.64,-8.03 -4.92,0 -5.03,7.31 -4.45,0 0,-7.31 -4.07,0 0,21.23 z m 26.62,-11.03 0,0.11 c 0,10.2 -7.91,18.6 -18.47,18.6 -10.43,0 -18.47,-8.52 -18.47,-18.71 l 0,-0.13 c 0,-10.19 7.92,-18.58 18.47,-18.58 10.43,0 18.47,8.51 18.47,18.71 z m -39.33,-0.13 0,0.13 c 0,11.38 9.23,20.97 20.86,20.97 11.75,0 20.87,-9.47 20.87,-20.86 l 0,-0.11 c 0,-11.4 -9.23,-21 -20.87,-21 -11.75,0 -20.86,9.47 -20.86,20.87"
         style="fill:#771519;fill-opacity:1;fill-rule:nonzero;stroke:none"
         id="path4209"
         inkscape:connector-curvature="0" /><path
         d="m 646.773,1705.17 23.497,0 -0.696,-206.25 -22.941,0 0.14,206.25"
         style="fill:#730f26;fill-opacity:1;fill-rule:nonzero;stroke:none"
         id="path4211"
         inkscape:connector-curvature="0" /><path
         d="m 776.051,1705.17 22.074,0 129.957,-164.84 0.047,164.84 22.695,0 0,-206.25 -18.242,0 -133.406,168.75 -0.613,-168.75 -22.274,0 -0.238,206.25"
         style="fill:#730f26;fill-opacity:1;fill-rule:nonzero;stroke:none"
         id="path4213"
         inkscape:connector-curvature="0" /><path
         d="m 1109.37,1683.45 -69.14,0 0,21.56 162.18,0 -0.08,-21.4 -69.21,0 0,-184.85 -23.6,0 -0.15,184.69"
         style="fill:#730f26;fill-opacity:1;fill-rule:nonzero;stroke:none"
         id="path4215"
         inkscape:connector-curvature="0" /><path
         d="m 1291.92,1705.86 149.16,0 0,-21.25 -125.62,0 -0.16,-70.15 112.66,-0.31 -0.16,-21.1 -112.5,-0.15 0.16,-72.04 127.03,-0.46 0.12,-20.79 -150.69,0 0,206.25"
         style="fill:#730f26;fill-opacity:1;fill-rule:nonzero;stroke:none"
         id="path4217"
         inkscape:connector-curvature="0" /><path
         d="m 1616.18,1599.65 c 44.33,-0.1 58.71,20.21 59.22,45.24 l 0,0 c -3.01,20.44 -12.21,39.07 -58.19,39.07 l -58.81,-0.42 -0.07,-83.48 57.85,-0.41 z m -80.98,105.52 82.55,0 c 31.14,0 51.98,-6.72 65.73,-21.09 6.19,-6.47 15.16,-23.54 15.16,-38.28 l 0,0 c 0,-34.48 -19.69,-55.94 -55.73,-62.6 l 63.33,-84.27 -28.79,-0.01 -60.04,79.96 -58.6,0 -0.33,-79.96 -23.24,0 -0.04,206.25"
         style="fill:#730f26;fill-opacity:1;fill-rule:nonzero;stroke:none"
         id="path4219"
         inkscape:connector-curvature="0" /><path
         d="m 1794.23,1705.17 22.21,0 129.94,-165.53 -0.02,165.53 22.69,0 0.06,-206.25 -18.71,0 -132.92,168.75 -0.18,-168.75 -22.78,0 -0.29,206.25"
         style="fill:#730f26;fill-opacity:1;fill-rule:nonzero;stroke:none"
         id="path4221"
         inkscape:connector-curvature="0" /><path
         d="m 2207,1574.61 -46.68,104.76 -47.23,-104.76 93.91,0 z m -57.36,132.05 21.77,0 93.99,-207.74 -24.98,0 -23.79,54.18 -112.62,0.18 -24.48,-54.36 -24,0 94.11,207.74"
         style="fill:#730f26;fill-opacity:1;fill-rule:nonzero;stroke:none"
         id="path4223"
         inkscape:connector-curvature="0" /><path
         d="m 2379.81,1683.74 -69.06,-0.18 0,21.61 162.17,0 0,-21.61 -69.34,0 -0.15,-184.64 -23.44,0 -0.18,184.82"
         style="fill:#730f26;fill-opacity:1;fill-rule:nonzero;stroke:none"
         id="path4225"
         inkscape:connector-curvature="0" /><path
         d="m 2564.48,1498.92 23.2578,0 0,206.25 -23.2578,0 0,-206.25 z"
         style="fill:#730f26;fill-opacity:1;fill-rule:nonzero;stroke:none"
         id="path4227"
         inkscape:connector-curvature="0" /><path
         d="m 2871.32,1601.85 0,0.59 c 0,50.97 -38.32,85.32 -81.11,84.87 -51.14,-0.54 -80.86,-40.12 -81.04,-84.66 l 0,-0.6 c 0.18,-48.78 32.64,-75.28 58.95,-82.53 56.48,-15.58 105.31,30.1 103.2,82.33 z m -186.35,-0.39 0,0.59 c 0,56.28 42.91,106.59 103.59,106.66 66.47,0.07 106.68,-49.67 106.68,-105.94 l 0,0 c 2.29,-61.56 -55.07,-122.25 -132.03,-104.59 -42.3,9.71 -77.3,50.55 -78.24,103.28"
         style="fill:#730f26;fill-opacity:1;fill-rule:nonzero;stroke:none"
         id="path4229"
         inkscape:connector-curvature="0" /><path
         d="m 2990.4,1705.17 21.89,0 129.91,-165.31 0.08,165.31 22.91,0 0,-206.25 -18.77,0 -133.13,168.91 -0.16,-168.91 -22.65,0 -0.08,206.25"
         style="fill:#730f26;fill-opacity:1;fill-rule:nonzero;stroke:none"
         id="path4231"
         inkscape:connector-curvature="0" /><path
         d="m 3403.12,1574.86 -47.04,104.69 -46.87,-105 93.91,0.31 z m -57.35,131.8 21.78,0 94.06,-207.74 -25.06,0 -24.53,54.53 -111.87,-0.15 -24.69,-54.38 -23.75,0 94.06,207.74"
         style="fill:#730f26;fill-opacity:1;fill-rule:nonzero;stroke:none"
         id="path4233"
         inkscape:connector-curvature="0" /><path
         d="m 3548.1,1705.17 23.3,0 -0.1,-184.84 116.41,-0.16 -0.16,-21.25 -139.45,0 0,206.25"
         style="fill:#730f26;fill-opacity:1;fill-rule:nonzero;stroke:none"
         id="path4235"
         inkscape:connector-curvature="0" /><path
         d="m 296.793,2037.31 -100.43,0 0,63.81 273.465,0 0,-63.81 -100.426,0 0,-250.75 -72.609,0 0,250.75"
         style="fill:#09395b;fill-opacity:1;fill-rule:nonzero;stroke:none"
         id="path4237"
         inkscape:connector-curvature="0" /><path
         d="m 771.586,1942.94 0,0.9 c 0,53.93 -41.492,98.87 -99.961,98.87 -58.461,0 -99.012,-44.04 -99.012,-97.97 l 0,-0.9 c 0,-53.92 41.492,-98.86 99.961,-98.86 58.461,0 99.012,44.04 99.012,97.96 z m -274.883,0 0,0.9 c 0,89.43 74.024,162.67 175.871,162.67 101.84,0 174.922,-72.35 174.922,-161.77 l 0,-0.9 c 0,-89.42 -74.023,-162.67 -175.871,-162.67 -101.84,0 -174.922,72.35 -174.922,161.77"
         style="fill:#09395b;fill-opacity:1;fill-rule:nonzero;stroke:none"
         id="path4239"
         inkscape:connector-curvature="0" /><path
         d="m 1080.41,1918.23 -43.85,102 -43.845,-102 87.695,0 z m -76.38,185.14 66.95,0 141.45,-316.81 -75.91,0 -30.18,70.55 -139.559,0 -30.176,-70.55 -74.023,0 141.448,316.81"
         style="fill:#09395b;fill-opacity:1;fill-rule:nonzero;stroke:none"
         id="path4241"
         inkscape:connector-curvature="0" /><path
         d="m 1236,1832.4 42.91,48.98 c 29.7,-23.37 60.82,-38.2 98.54,-38.2 29.7,0 47.62,11.24 47.62,29.66 l 0,0.9 c 0,17.52 -11.32,26.51 -66.48,40 -66.48,16.17 -109.39,33.7 -109.39,96.16 l 0,0.9 c 0,57.07 48.09,94.82 115.52,94.82 48.09,0 89.11,-14.38 122.59,-40 l -37.72,-52.12 c -29.23,19.32 -57.99,31 -85.81,31 -27.82,0 -42.44,-12.13 -42.44,-27.41 l 0,-0.9 c 0,-20.67 14.15,-27.41 71.2,-41.34 66.95,-16.63 104.67,-39.55 104.67,-94.37 l 0,-0.9 c 0,-62.46 -49.98,-97.51 -121.17,-97.51 -49.98,0 -100.43,16.63 -140.04,50.33"
         style="fill:#09395b;fill-opacity:1;fill-rule:nonzero;stroke:none"
         id="path4243"
         inkscape:connector-curvature="0" /><path
         d="m 1630.18,2037.31 -100.43,0 0,63.81 273.46,0 0,-63.81 -100.42,0 0,-250.75 -72.61,0 0,250.75"
         style="fill:#09395b;fill-opacity:1;fill-rule:nonzero;stroke:none"
         id="path4245"
         inkscape:connector-curvature="0" /><path
         d="m 1858.85,2101.12 78.27,0 86.75,-133.01 86.76,133.01 78.27,0 0,-314.56 -72.14,0 0,205.36 -92.89,-134.36 -1.88,0 -91.95,133.02 0,-204.02 -71.19,0 0,314.56"
         style="fill:#09395b;fill-opacity:1;fill-rule:nonzero;stroke:none"
         id="path4247"
         inkscape:connector-curvature="0" /><path
         d="m 2457.65,1918.23 -43.85,102 -43.87,-102 87.72,0 z m -76.39,185.14 66.95,0 141.45,-316.81 -75.92,0 -30.18,70.55 -139.55,0 -30.17,-70.55 -74.03,0 141.45,316.81"
         style="fill:#09395b;fill-opacity:1;fill-rule:nonzero;stroke:none"
         id="path4249"
         inkscape:connector-curvature="0" /><path
         d="m 2613.23,1832.4 42.91,48.98 c 29.71,-23.37 60.82,-38.2 98.54,-38.2 29.7,0 47.63,11.24 47.63,29.66 l 0,0.9 c 0,17.52 -11.32,26.51 -66.48,40 -66.48,16.17 -109.39,33.7 -109.39,96.16 l 0,0.9 c 0,57.07 48.1,94.82 115.52,94.82 48.09,0 89.1,-14.38 122.58,-40 l -37.71,-52.12 c -29.24,19.32 -57.99,31 -85.82,31 -27.82,0 -42.43,-12.13 -42.43,-27.41 l 0,-0.9 c 0,-20.67 14.14,-27.41 71.2,-41.34 66.95,-16.63 104.66,-39.55 104.66,-94.37 l 0,-0.9 c 0,-62.46 -49.98,-97.51 -121.17,-97.51 -49.98,0 -100.43,16.63 -140.04,50.33"
         style="fill:#09395b;fill-opacity:1;fill-rule:nonzero;stroke:none"
         id="path4251"
         inkscape:connector-curvature="0" /><path
         d="m 3007.41,2037.31 -100.43,0 0,63.81 273.48,0 0,-63.81 -100.43,0 0,-250.75 -72.62,0 0,250.75"
         style="fill:#09395b;fill-opacity:1;fill-rule:nonzero;stroke:none"
         id="path4253"
         inkscape:connector-curvature="0" /><path
         d="m 3236.08,2101.12 248.95,0 0,-61.56 -176.8,0 0,-63.81 155.59,0 0,-61.57 -155.59,0 0,-66.06 179.16,0 0,-61.56 -251.31,0 0,314.56"
         style="fill:#09395b;fill-opacity:1;fill-rule:nonzero;stroke:none"
         id="path4255"
         inkscape:connector-curvature="0" /><path
         d="m 3698.15,1948.33 c 35.36,0 55.63,17.98 55.63,44.49 l 0,0.9 c 0,29.66 -21.68,44.94 -57.05,44.94 l -72.13,0 0,-90.33 73.55,0 z m -146.17,152.79 150.88,0 c 41.97,0 74.49,-11.23 96.19,-31.9 18.38,-17.53 28.28,-42.24 28.28,-71.9 l 0,-0.9 c 0,-50.78 -28.75,-82.68 -70.72,-97.51 l 80.63,-112.35 -84.87,0 -70.72,100.66 -57.05,0 0,-100.66 -72.62,0 0,314.56"
         style="fill:#09395b;fill-opacity:1;fill-rule:nonzero;stroke:none"
         id="path4257"
         inkscape:connector-curvature="0" /><path
         d="m 3870.24,1832.4 42.91,48.98 c 29.69,-23.37 60.82,-38.2 98.54,-38.2 29.71,0 47.62,11.24 47.62,29.66 l 0,0.9 c 0,17.52 -11.31,26.51 -66.49,40 -66.46,16.17 -109.37,33.7 -109.37,96.16 l 0,0.9 c 0,57.07 48.08,94.82 115.51,94.82 48.1,0 89.12,-14.38 122.59,-40 l -37.71,-52.12 c -29.24,19.32 -58.01,31 -85.82,31 -27.81,0 -42.44,-12.13 -42.44,-27.41 l 0,-0.9 c 0,-20.67 14.14,-27.41 71.19,-41.34 66.95,-16.63 104.69,-39.55 104.69,-94.37 l 0,-0.9 c 0,-62.46 -49.99,-97.51 -121.18,-97.51 -49.98,0 -100.43,16.63 -140.04,50.33"
         style="fill:#09395b;fill-opacity:1;fill-rule:nonzero;stroke:none"
         id="path4259"
         inkscape:connector-curvature="0" /></g></g></svg>