<?xml version="1.0" encoding="UTF-8" standalone="no"?>
<!-- Created with Inkscape (http://www.inkscape.org/) -->
<svg xmlns:dc="http://purl.org/dc/elements/1.1/" xmlns:cc="http://creativecommons.org/ns#" xmlns:rdf="http://www.w3.org/1999/02/22-rdf-syntax-ns#" xmlns:svg="http://www.w3.org/2000/svg" xmlns="http://www.w3.org/2000/svg" xmlns:sodipodi="http://sodipodi.sourceforge.net/DTD/sodipodi-0.dtd" xmlns:inkscape="http://www.inkscape.org/namespaces/inkscape" width="97.485893" height="97.485893" id="svg3374" version="1.1" inkscape:version="0.48.2 r9819" sodipodi:docname="diaspora_badge.svg">
  <defs id="defs3376"/>
  <sodipodi:namedview id="base" pagecolor="#ffffff" bordercolor="#666666" borderopacity="1.0" inkscape:pageopacity="0.0" inkscape:pageshadow="2" inkscape:zoom="0.35" inkscape:cx="48.742949" inkscape:cy="-179.82849" inkscape:document-units="px" inkscape:current-layer="layer1" showgrid="false" inkscape:window-width="497" inkscape:window-height="378" inkscape:window-x="126" inkscape:window-y="91" inkscape:window-maximized="0" fit-margin-top="0" fit-margin-left="0" fit-margin-right="0" fit-margin-bottom="0"/>
  <metadata id="metadata3379">
    <rdf:RDF>
      <cc:Work rdf:about="">
        <dc:format>image/svg+xml</dc:format>
        <dc:type rdf:resource="http://purl.org/dc/dcmitype/StillImage"/>
        <dc:title/>
      </cc:Work>
    </rdf:RDF>
  </metadata>
  <g inkscape:label="Layer 1" inkscape:groupmode="layer" id="layer1" transform="translate(-326.257, -483.619)">
    <g transform="translate(-221.47, -348.89)" id="g3347">
      <path sodipodi:type="arc" style="fill:#333333;fill-opacity:1;fill-rule:nonzero;stroke:none" id="path3338" sodipodi:cx="304.28571" sodipodi:cy="456.64789" sodipodi:rx="135.71428" sodipodi:ry="135.71428" d="m 439.99998,456.64789 c 0,74.95292 -60.76135,135.71428 -135.71427,135.71428 -74.95293,0 -135.71428,-60.76136 -135.71428,-135.71428 0,-74.95293 60.76135,-135.71428 135.71428,-135.71428 74.95292,0 135.71427,60.76135 135.71427,135.71428 z" transform="matrix(0.359159, 0, 0, 0.359159, 487.183, 717.243)"/>
      <g id="text3340" style="font-size:144px;font-style:normal;font-variant:normal;font-weight:bold;font-stretch:normal;text-align:center;line-height:125%;letter-spacing:0px;word-spacing:0px;writing-mode:lr-tb;text-anchor:middle;fill:#ffffff;fill-opacity:1;stroke:none;font-family:FreeSans;-inkscape-font-specification:FreeSans Bold">
        <path inkscape:connector-curvature="0" id="path3345" d="m 588.11823,884.70801 -15.696,-5.184 3.168,-9.936 15.696,5.184 0,-16.704 10.368,0 0,16.704 15.696,-5.184 3.168,10.08 -15.696,5.04 9.648,13.536 -8.352,6.192 -9.648,-13.536 -9.648,13.536 -8.352,-6.192 9.648,-13.536"/>
      </g>
    </g>
  </g>
</svg>