<?xml version="1.0" encoding="utf-8"?>
<!-- Generator: Adobe Illustrator 16.0.0, SVG Export Plug-In . SVG Version: 6.00 Build 0)  -->
<!DOCTYPE svg PUBLIC "-//W3C//DTD SVG 1.1//EN" "http://www.w3.org/Graphics/SVG/1.1/DTD/svg11.dtd">
<svg version="1.1" id="Vrstva_1" xmlns="http://www.w3.org/2000/svg" xmlns:xlink="http://www.w3.org/1999/xlink" x="0px" y="0px"
	 width="304.658px" height="270.626px" viewBox="0 0 304.658 270.626" enable-background="new 0 0 304.658 270.626"
	 xml:space="preserve">
<g id="openalt-konference-farebne-logo_1_">
	<g>
		<g>
			<path fill="#1E1E1C" d="M27.792,173.133c4.253,0,8.084,0.718,11.491,2.152c3.408,1.434,6.31,3.468,8.708,6.1
				c2.395,2.632,4.233,5.787,5.516,9.466c1.284,3.678,1.925,7.761,1.925,12.25c0,4.424-0.635,8.461-1.899,12.121
				c-1.264,3.664-3.087,6.804-5.467,9.42c-2.379,2.613-5.282,4.646-8.707,6.097c-3.425,1.448-7.281,2.175-11.566,2.175
				c-4.32,0-8.201-0.713-11.644-2.148c-3.442-1.434-6.362-3.457-8.757-6.071c-2.396-2.618-4.227-5.756-5.493-9.417
				C0.634,211.615,0,207.557,0,203.101c0-4.489,0.643-8.572,1.925-12.25c1.282-3.679,3.13-6.834,5.543-9.466
				c2.412-2.632,5.33-4.666,8.757-6.1C19.65,173.851,23.506,173.133,27.792,173.133z M27.69,222.59c2.429,0,4.582-0.494,6.453-1.493
				c1.874-0.996,3.46-2.363,4.76-4.099c1.299-1.742,2.277-3.796,2.935-6.18c0.659-2.378,0.988-4.949,0.988-7.718
				c0-2.734-0.321-5.289-0.961-7.669c-0.641-2.379-1.596-4.448-2.859-6.203c-1.265-1.754-2.827-3.128-4.682-4.123
				c-1.857-0.994-4-1.494-6.431-1.494c-2.428,0-4.598,0.489-6.503,1.472c-1.908,0.976-3.501,2.335-4.784,4.073
				c-1.284,1.734-2.263,3.796-2.938,6.174c-0.674,2.38-1.011,4.97-1.011,7.771c0,2.769,0.337,5.34,1.011,7.718
				c0.675,2.384,1.655,4.438,2.938,6.18c1.283,1.735,2.852,3.103,4.707,4.099C23.167,222.096,25.294,222.59,27.69,222.59z"/>
			<path fill="#1E1E1C" d="M73.91,195.307c2.24-1.825,3.458-3.265,5.519-4.33c2.058-1.062,4.555-1.593,7.392-1.593
				c3.036,0,5.635,0.581,7.745,1.745c2.108,1.163,3.817,2.734,5.099,4.706c1.283,1.977,2.218,4.245,2.792,6.81
				c0.571,2.566,0.865,5.263,0.865,8.099c0,3.209-0.38,6.168-1.141,8.886c-0.758,2.715-1.889,5.064-3.39,7.036
				c-1.5,1.972-3.349,3.507-5.542,4.604c-2.195,1.098-4.708,1.644-7.542,1.644c-2.397,0-4.251-0.31-6.074-0.935
				c-1.823-0.624-3.484-1.646-4.604-3.059v18.954H62.708v-58.247H73.91V195.307z M75.03,220.918c1.12,1.081,2.183,1.897,3.517,2.455
				c1.332,0.559,2.681,0.836,4.3,0.836c2.632,0,4.596-1.119,6.014-3.365c1.415-2.244,2.092-5.611,2.092-10.101
				c0-8.571-2.581-12.856-7.71-12.856c-1.654,0-2.958,0.489-4.41,1.47c-1.452,0.975-2.683,2.359-3.803,4.149V220.918z"/>
			<path fill="#1E1E1C" d="M131.015,232.914c-3.512,0-6.631-0.494-9.366-1.491c-2.732-0.994-5.034-2.43-6.908-4.3
				c-1.874-1.874-3.29-4.154-4.253-6.834c-0.96-2.684-1.441-5.73-1.441-9.139c0-3.444,0.49-6.521,1.466-9.238
				c0.981-2.717,2.39-5.024,4.228-6.91c1.839-1.89,4.084-3.333,6.731-4.329c2.649-0.992,5.662-1.492,9.036-1.492
				c3.274,0,6.217,0.475,8.833,1.42c2.615,0.944,4.836,2.326,6.655,4.147c1.825,1.821,2.989,4.075,3.969,6.756
				c0.979,2.688,1.233,5.766,1.233,9.24v2.406h-29.7c0.034,2.241,0.295,4.147,0.785,5.631c0.488,1.487,1.155,2.836,1.997,3.802
				c0.845,0.96,1.832,1.731,2.963,2.168c1.131,0.439,2.389,0.691,3.771,0.691c2.262,0,4.118-0.244,5.57-1.188
				c1.448-0.948,2.428-2.143,2.935-4.383h11.336c-0.404,2.24-1.18,3.915-2.328,5.588c-1.146,1.666-2.579,2.964-4.301,4.092
				c-1.721,1.132-3.697,1.94-5.925,2.532C136.076,232.674,133.646,232.914,131.015,232.914z M139.621,206.43
				c-0.271-3.361-1.172-6.136-2.711-7.841c-1.535-1.706-3.668-2.516-6.402-2.516c-2.496,0-4.563,0.866-6.201,2.722
				c-1.636,1.854-2.54,4.273-2.708,7.635H139.621z"/>
			<path fill="#1E1E1C" d="M170.242,195.411c2.239-2.097,4.074-3.655,6.269-4.688c2.191-1.026,4.698-1.543,7.094-1.543
				c9.617,0,14.641,5.146,14.641,15.439v27.574h-12.322v-26.512c0-2.431-0.502-4.304-1.347-5.619
				c-0.844-1.314-2.366-1.971-4.492-1.971c-1.757,0-3.13,0.494-4.614,1.491c-1.484,0.994-2.988,2.302-4.108,3.923v28.688H159.04
				v-42.566h11.202V195.411z"/>
			<path fill="#1E1E1C" d="M256.66,232.194h-12.757l-4.758-13.443h-20.603l-4.559,13.443h-12.25l20.199-58.248h13.617
				L256.66,232.194z M236.26,208.669l-7.594-23.743l-7.341,23.743H236.26z"/>
			<path fill="#1E1E1C" d="M271.054,232.194h-11.201v-58.248h11.201V232.194z"/>
			<path fill="#1E1E1C" d="M304.658,232.103c-2.24,0.409-4.178,0.611-6.742,0.611c-3.139,0-5.676-0.419-7.394-1.243
				c-1.719-0.821-3.041-1.996-3.85-3.513c-0.811-1.52-1.546-3.354-1.697-5.495c-0.15-2.142-0.48-4.528-0.48-7.161v-16.714h-5.601
				v-8.961h5.601v-10.081h12.321v10.081h6.722v8.961h-6.722v18.888c0,1.317,0.158,2.403,0.344,3.265
				c0.186,0.864,0.479,1.53,0.819,2.001c0.338,0.472,0.766,0.805,1.255,0.99c0.49,0.184,1.256,0.278,1.864,0.278
				c1.146,0,2.439-0.101,3.56-0.306V232.103z"/>
		</g>
	</g>
	<g>
		<path fill="#1E1E1C" d="M117.49,270.278h-4.643l-7.254-11.229l-2.561,2.323v8.906h-3.36v-30.244h3.36v16.938l8.701-9.097h4.904
			l-8.297,8.416L117.49,270.278z"/>
		<path fill="#1E1E1C" d="M129.284,247.665c1.556,0,2.967,0.255,4.229,0.768c1.264,0.515,2.349,1.259,3.249,2.242
			c0.903,0.98,1.596,2.183,2.084,3.605c0.484,1.422,0.729,3.041,0.729,4.864c0,1.801-0.245,3.418-0.729,4.839
			c-0.488,1.422-1.181,2.625-2.084,3.604c-0.9,0.985-1.985,1.734-3.249,2.257c-1.262,0.52-2.673,0.782-4.229,0.782
			s-2.966-0.259-4.229-0.771c-1.264-0.511-2.346-1.252-3.247-2.226c-0.903-0.973-1.595-2.168-2.082-3.593
			c-0.488-1.421-0.729-3.054-0.729-4.893c0-1.835,0.246-3.469,0.743-4.889c0.494-1.423,1.192-2.627,2.094-3.609
			c0.901-0.981,1.981-1.722,3.246-2.224C126.347,247.913,127.749,247.665,129.284,247.665z M129.284,267.55
			c0.921,0,1.766-0.177,2.534-0.531c0.77-0.354,1.428-0.881,1.987-1.591c0.556-0.705,0.985-1.583,1.287-2.637
			c0.298-1.054,0.451-2.267,0.451-3.647c0-1.413-0.158-2.649-0.468-3.713c-0.308-1.059-0.741-1.939-1.296-2.639
			c-0.559-0.697-1.217-1.221-1.976-1.576c-0.762-0.354-1.6-0.531-2.521-0.531c-0.918,0-1.763,0.177-2.531,0.531
			c-0.771,0.355-1.433,0.879-1.988,1.576c-0.556,0.699-0.991,1.58-1.3,2.639c-0.309,1.063-0.464,2.3-0.464,3.713
			c0,1.381,0.151,2.594,0.452,3.647c0.298,1.054,0.728,1.932,1.285,2.637c0.556,0.71,1.218,1.237,1.988,1.591
			C127.494,267.374,128.348,267.55,129.284,267.55z"/>
		<path fill="#1E1E1C" d="M147.839,250.951c2.24-2.191,3.844-3.286,6.281-3.286c4.948,0,7.16,2.693,7.16,8.088v14.525h-3.36v-14.369
			c0-1.8-0.319-3.092-0.969-3.87c-0.644-0.776-1.706-1.166-3.167-1.166c-1.984,0-3.705,1.166-5.945,3.5v15.905h-3.36v-22.403h3.36
			V250.951z"/>
		<path fill="#1E1E1C" d="M172.481,251.236v19.042h-4.48v-19.042h-3.36v-3.361h3.36v-1.669c0-4.632,1.997-6.949,6.097-6.949
			c1.256,0,2.864,0.078,2.864,0.238v3.395c0-0.07-0.515-0.118-0.9-0.145c-0.387-0.025-0.65-0.04-1.06-0.04
			c-0.951,0-1.515,0.268-1.977,0.795c-0.462,0.53-0.544,1.449-0.544,2.759v1.616h4.48v3.361H172.481z"/>
		<path fill="#1E1E1C" d="M188.847,270.626c-1.606,0-3.068-0.263-4.387-0.782c-1.319-0.522-2.446-1.271-3.383-2.257
			c-0.94-0.979-1.66-2.183-2.177-3.604c-0.514-1.421-0.768-3.038-0.768-4.839c0-1.803,0.252-3.413,0.759-4.837
			c0.503-1.426,1.205-2.627,2.107-3.609c0.901-0.978,1.979-1.729,3.246-2.249c1.265-0.526,2.656-0.784,4.182-0.784
			c1.549,0,2.96,0.255,4.227,0.768c1.264,0.515,2.345,1.259,3.244,2.242c0.901,0.98,1.371,2.183,1.852,3.605
			c0.488,1.422,0.496,3.041,0.496,4.864v1.053h-16.058c0.091,1.119,0.323,2.341,0.692,3.277c0.372,0.938,0.856,1.68,1.449,2.291
			c0.588,0.609,1.271,1.051,2.041,1.349c0.766,0.299,1.59,0.444,2.477,0.444c0.671,0,1.327-0.093,1.96-0.27
			c0.637-0.178,1.209-0.436,1.712-0.77c0.505-0.336,0.913-0.753,1.235-1.256c0.314-0.505,0.491-0.586,0.529-1.706h4.029
			c-0.161,1.12-0.508,2.135-1.045,3.018c-0.543,0.886-1.231,1.622-2.07,2.219c-0.84,0.608-1.798,1.06-2.877,1.371
			C191.242,270.473,190.082,270.626,188.847,270.626z M194.601,256.835c-0.317-2.239-1.024-3.623-2.121-4.666
			c-1.1-1.039-2.449-1.524-4.053-1.524c-0.784,0-1.506,0.15-2.18,0.403c-0.674,0.258-1.277,0.66-1.816,1.18
			c-0.542,0.52-0.997,1.103-1.366,1.897c-0.372,0.798-0.635,1.591-0.792,2.71H194.601z"/>
		<path fill="#1E1E1C" d="M213.928,251.719c0-0.176-0.948-0.265-2.012-0.265c-1.96,0-3.59,1.043-4.71,3.127v15.696h-4.48v-22.403
			h4.48v3.342c1.12-2.367,3.131-3.552,5.323-3.552c0.546,0,1.398,0.052,1.398,0.155V251.719z"/>
		<path fill="#1E1E1C" d="M226.498,270.626c-1.606,0-3.07-0.263-4.389-0.782c-1.317-0.522-2.441-1.271-3.378-2.257
			c-0.938-0.979-1.663-2.183-2.176-3.604c-0.516-1.421-0.771-3.038-0.771-4.839c0-1.803,0.254-3.413,0.757-4.837
			c0.506-1.426,1.206-2.627,2.107-3.609c0.905-0.978,1.981-1.729,3.249-2.249c1.264-0.526,2.656-0.784,4.176-0.784
			c1.555,0,2.965,0.255,4.229,0.768c1.267,0.515,2.347,1.259,3.251,2.242c0.898,0.98,1.578,2.183,2.063,3.605
			c0.484,1.422,0.712,3.041,0.712,4.864v1.053h-16.486c0.088,1.119,0.318,2.341,0.688,3.277c0.375,0.938,0.855,1.68,1.447,2.291
			c0.59,0.609,1.271,1.051,2.042,1.349c0.766,0.299,1.592,0.444,2.478,0.444c0.674,0,1.325-0.093,1.96-0.27
			c0.64-0.178,1.212-0.436,1.713-0.77c0.501-0.336,0.915-0.753,1.229-1.256c0.319-0.505,0.496-0.586,0.532-1.706h4.031
			c-0.159,1.12-0.51,2.135-1.048,3.018c-0.538,0.886-1.229,1.622-2.067,2.219c-0.84,0.608-1.799,1.06-2.876,1.371
			C228.892,270.473,227.731,270.626,226.498,270.626z M232.251,256.835c-0.318-2.239-1.023-3.623-2.119-4.666
			c-1.098-1.039-2.453-1.524-4.059-1.524c-0.778,0-1.501,0.15-2.175,0.403c-0.67,0.258-1.278,0.66-1.813,1.18
			c-0.538,0.52-1,1.103-1.367,1.897c-0.372,0.798-0.637,1.591-0.797,2.71H232.251z"/>
		<path fill="#1E1E1C" d="M244.17,250.951c2.241-2.191,4.407-3.286,6.844-3.286c4.953,0,7.719,2.693,7.719,8.088v14.525h-4.48
			v-14.369c0-1.8-0.092-3.092-0.734-3.87c-0.646-0.776-1.823-1.166-3.289-1.166c-1.979,0-3.817,1.166-6.059,3.5v15.905h-3.359
			v-22.403h3.359V250.951z"/>
		<path fill="#1E1E1C" d="M273.168,270.626c-1.558,0-2.97-0.259-4.232-0.771c-1.267-0.511-2.345-1.252-3.249-2.226
			c-0.901-0.973-1.592-2.168-2.078-3.593c-0.485-1.421-0.732-3.054-0.732-4.893c0-1.835,0.247-3.469,0.744-4.889
			c0.494-1.423,1.191-2.627,2.096-3.609c0.899-0.981,1.982-1.722,3.246-2.224c1.265-0.51,2.665-0.758,4.206-0.758
			c1.181,0,2.288,0.153,3.312,0.463c1.026,0.309,1.921,0.762,2.693,1.353c0.77,0.591,1.402,1.268,1.894,2.15
			c0.495,0.888,0.813,1.845,0.957,2.966h-4.032c-0.035,0-0.186-1.174-0.45-1.677c-0.263-0.503-0.613-0.893-1.048-1.23
			c-0.435-0.333-0.938-0.576-1.512-0.753c-0.574-0.176-1.18-0.259-1.813-0.259c-0.923,0-1.767,0.182-2.532,0.536
			c-0.771,0.355-1.434,0.879-1.993,1.577c-0.556,0.699-0.985,1.581-1.295,2.64c-0.313,1.063-0.466,2.301-0.466,3.714
			c0,1.381,0.148,2.594,0.447,3.647c0.304,1.054,0.731,1.932,1.287,2.637c0.561,0.71,1.222,1.237,1.993,1.591
			c0.769,0.354,1.617,0.531,2.559,0.531c0.634,0,1.239-0.083,1.813-0.252s1.077-0.421,1.512-0.756
			c0.435-0.337,0.785-0.75,1.048-1.254c0.265-0.502,0.415-0.611,0.45-1.731h4.032c-0.145,1.12-0.462,2.154-0.957,3.029
			c-0.491,0.875-1.124,1.61-1.894,2.207c-0.772,0.608-1.667,1.06-2.693,1.371C275.456,270.473,274.349,270.626,273.168,270.626z"/>
		<path fill="#1E1E1C" d="M294.774,270.626c-1.604,0-3.07-0.263-4.383-0.782c-1.321-0.522-2.446-1.271-3.387-2.257
			c-0.937-0.979-1.66-2.183-2.173-3.604c-0.515-1.421-0.771-3.038-0.771-4.839c0-1.803,0.255-3.413,0.761-4.837
			c0.501-1.426,1.204-2.627,2.107-3.609c0.898-0.978,1.981-1.729,3.246-2.249c1.268-0.526,2.652-0.784,4.177-0.784
			c1.553,0,2.964,0.255,4.231,0.768c1.262,0.515,2.343,1.259,3.249,2.242c0.896,0.98,1.604,2.183,2.088,3.605
			c0.485,1.422,0.738,3.041,0.738,4.864v1.053H288.12c0.09,1.119,0.317,2.341,0.688,3.277c0.371,0.938,0.855,1.68,1.448,2.291
			c0.59,0.609,1.271,1.051,2.043,1.349c0.769,0.299,1.593,0.444,2.476,0.444c0.674,0,1.327-0.093,1.962-0.27
			c0.636-0.178,1.208-0.436,1.711-0.77c0.507-0.336,0.914-0.753,1.233-1.256c0.319-0.505,0.494-0.586,0.529-1.706h4.032
			c-0.16,1.12-0.507,2.135-1.048,3.018c-0.54,0.886-1.228,1.622-2.064,2.219c-0.844,0.608-1.804,1.06-2.88,1.371
			C297.169,270.473,296.012,270.626,294.774,270.626z M300.527,256.835c-0.317-2.239-1.02-3.623-2.117-4.666
			c-1.099-1.039-2.451-1.524-4.059-1.524c-0.778,0-1.501,0.15-2.175,0.403c-0.674,0.258-1.28,0.66-1.813,1.18
			c-0.541,0.52-0.998,1.103-1.368,1.897c-0.369,0.798-0.639,1.591-0.798,2.71H300.527z"/>
	</g>
	<path fill="#701512" d="M170.806,45.983c-5.543-3.281-12.013-5.164-18.924-5.164c-6.71,0-13.008,1.777-18.445,4.889l-20.414-35.36
		C124.462,3.767,137.73,0,151.884,0c14.361,0,27.815,3.875,39.375,10.646L170.806,45.983z"/>
	<path fill="#D77A68" d="M115.904,68.481c-0.81,3.05-1.243,6.257-1.243,9.563c0,20.555,16.666,37.22,37.221,37.22
		c10.319,0,19.657-4.196,26.399-10.981l28.863,28.87c-14.128,14.165-33.668,22.935-55.261,22.935
		c-43.101,0-78.042-34.943-78.042-78.043c0-7.02,0.927-13.822,2.659-20.291L115.904,68.481z"/>
	<path fill="#BE1823" d="M170.806,45.983c10.952,6.478,18.297,18.411,18.297,32.061c0,10.236-4.129,19.512-10.821,26.238
		l28.863,28.87c14.081-14.12,22.781-33.599,22.781-55.108c0-28.743-15.532-53.854-38.667-67.397L170.806,45.983z"/>
</g>
</svg>
