<?xml version="1.0" encoding="UTF-8" standalone="no"?>
<!-- Created with Inkscape (http://www.inkscape.org/) -->
<svg xmlns:dc="http://purl.org/dc/elements/1.1/" xmlns:cc="http://creativecommons.org/ns#" xmlns:rdf="http://www.w3.org/1999/02/22-rdf-syntax-ns#" xmlns:svg="http://www.w3.org/2000/svg" xmlns="http://www.w3.org/2000/svg" xmlns:sodipodi="http://sodipodi.sourceforge.net/DTD/sodipodi-0.dtd" xmlns:inkscape="http://www.inkscape.org/namespaces/inkscape" width="131.54802" height="32.601936" id="svg2" inkscape:label="Pozadí" version="1.1" inkscape:version="0.48.3.1 r9886" sodipodi:docname="logo.svg" inkscape:export-filename="/home/ivir/Openmobility/openmobility_with_slogan_black.png" inkscape:export-xdpi="150.52" inkscape:export-ydpi="150.52">
  <defs id="defs3005">
    <inkscape:perspective sodipodi:type="inkscape:persp3d" inkscape:vp_x="0 : 526.18109 : 1" inkscape:vp_y="0 : 1000 : 0" inkscape:vp_z="744.09448 : 526.18109 : 1" inkscape:persp3d-origin="372.04724 : 350.78739 : 1" id="perspective3011"/>
    <inkscape:perspective id="perspective2990" inkscape:persp3d-origin="0.5 : 0.33333333 : 1" inkscape:vp_z="1 : 0.5 : 1" inkscape:vp_y="0 : 1000 : 0" inkscape:vp_x="0 : 0.5 : 1" sodipodi:type="inkscape:persp3d"/>
  </defs>
  <sodipodi:namedview id="base" pagecolor="#ffffff" bordercolor="#666666" borderopacity="1.0" inkscape:pageopacity="0.0" inkscape:pageshadow="2" inkscape:zoom="8.1111066" inkscape:cx="8.50125" inkscape:cy="16.301343" inkscape:document-units="px" inkscape:current-layer="g5003" showgrid="false" inkscape:window-width="1308" inkscape:window-height="748" inkscape:window-x="56" inkscape:window-y="-3" inkscape:window-maximized="1" fit-margin-top="0" fit-margin-left="0" fit-margin-right="0" fit-margin-bottom="0"/>
  <metadata id="metadata3008">
    <rdf:RDF>
      <cc:Work rdf:about="">
        <dc:format>image/svg+xml</dc:format>
        <dc:type rdf:resource="http://purl.org/dc/dcmitype/StillImage"/>
        <dc:title/>
      </cc:Work>
    </rdf:RDF>
  </metadata>
  <g inkscape:label="Vrstva 1" inkscape:groupmode="layer" id="layer1" transform="translate(-4.3050109e-7,-1019.7602)">
    <g id="g3049" transform="translate(-231.36885,763.69861)">
      <g transform="matrix(0.36572699,0,0,0.36572699,241.79858,63.241292)" id="g5003">
        <g style="font-size:26.19315528999999998px;font-style:normal;font-variant:normal;font-weight:bold;font-stretch:normal;fill:#009d92;fill-opacity:1;stroke:none;font-family:URW Bookman L;-inkscape-font-specification:URW Bookman L Bold" id="text5005">
          <path d="m -23.017001,578.55863 c -3.667204,-4.08739 -5.500802,-9.33989 -5.5008,-15.7575 -2e-6,-6.41758 1.833596,-11.67007 5.5008,-15.7575 3.705388,-4.08736 8.556783,-6.13106 14.5541996,-6.1311 6.0355715,4e-5 10.9060666,2.04374 14.6114998,6.1311 3.7053593,4.04923 5.5580576,9.39722 5.5580996,16.044 -4.2e-5,6.18841 -1.8336403,11.34541 -5.5007996,15.471 -3.6290333,4.0874 -8.4995284,6.13109 -14.6114998,6.1311 -6.0738166,-1e-5 -10.9443116,-2.0437 -14.6114996,-6.1311 m 14.6114996,-30.3117 c -3.4762186,3e-5 -6.2648156,1.33703 -8.3657996,4.011 -2.101012,2.63583 -3.151511,6.15022 -3.1515,10.5432 -1.1e-5,4.39301 1.050488,7.92651 3.1515,10.6005 2.100984,2.6358 4.889581,3.9537 8.3657996,3.9537 3.4379741,0 6.2074713,-1.3179 8.30849989,-3.9537 2.13916711,-2.63579 3.20876601,-6.09289 3.20879991,-10.3713 -3.39e-5,-4.50758 -1.0505328,-8.09838 -3.15149991,-10.7724 -2.06282869,-2.67397 -4.85142589,-4.01097 -8.36579989,-4.011" style="font-size:57.29999923999999822px;fill:#009d92;font-family:FreeSans-RoundDot;-inkscape-font-specification:FreeSans-RoundDot Bold;fill-opacity:1" id="path3810"/>
          <path d="m 33.112826,551.91413 c 3.896376,3e-5 7.028773,1.56623 9.3972,4.6986 2.368368,3.13242 3.552567,7.04792 3.5526,11.7465 -3.3e-5,4.69861 -1.241532,8.6141 -3.7245,11.7465 -2.444827,3.0942 -5.519924,4.64129 -9.2253,4.6413 -3.820016,-10e-6 -6.685013,-1.6808 -8.595,-5.0424 l 0,16.1586 -8.022,0 0,-43.4334 8.022,0 0,4.584 c 1.909987,-3.39977 4.774984,-5.09967 8.595,-5.0997 m 3.0369,9.4545 c -1.222422,-1.83358 -2.84592,-2.75038 -4.8705,-2.7504 -2.024616,2e-5 -3.667214,0.89772 -4.9278,2.6931 -1.222412,1.79542 -1.833611,4.14471 -1.8336,7.0479 -1.1e-5,2.90321 0.611188,5.25251 1.8336,7.0479 1.260586,1.7572 2.903184,2.6358 4.9278,2.6358 1.98638,0 3.609878,-0.8977 4.8705,-2.6931 1.260576,-1.79539 1.890875,-4.08739 1.8909,-6.876 -2.5e-5,-2.94139 -0.630324,-5.30978 -1.8909,-7.1052" style="font-size:57.29999923999999822px;fill:#009d92;font-family:FreeSans-RoundDot;-inkscape-font-specification:FreeSans-RoundDot Bold;fill-opacity:1" id="path3812"/>
          <path d="m 63.787128,551.91413 c 1.336983,3e-5 2.635782,0.15283 3.8964,0.4584 1.26058,0.30563 2.540278,0.85953 3.8391,1.6617 1.336976,0.80223 2.482974,1.83362 3.438,3.0942 0.993172,1.22242 1.795372,2.86502 2.4066,4.9278 0.61117,2.02462 0.91677,4.35481 0.9168,6.9906 -3e-5,0.45841 -0.01913,0.91681 -0.0573,1.3752 l -20.7426,0 c 0.03819,1.18421 0.133691,2.21561 0.2865,3.0942 0.190991,0.84041 0.49659,1.6808 0.9168,2.5212 0.458389,0.8022 1.107789,1.4325 1.9482,1.8909 0.878587,0.4202 1.967286,0.6303 3.2661,0.6303 3.055982,0 5.099679,-1.2988 6.1311,-3.8964 l 7.9074,0 c -0.878629,3.056 -2.616727,5.5008 -5.2143,7.3344 -2.597622,1.7954 -5.634519,2.69309 -9.1107,2.6931 -4.393011,-1e-5 -7.850107,-1.4134 -10.3713,-4.2402 -2.521202,-2.865 -3.781801,-6.78049 -3.781799,-11.7465 -2e-6,-5.19518 1.279697,-9.28258 3.839099,-12.2622 2.559393,-3.01777 6.054689,-4.52667 10.4859,-4.5267 m 6.1311,13.179 c -0.191021,-2.25378 -0.821321,-3.99188 -1.8909,-5.2143 -1.031418,-1.22238 -2.483017,-1.83358 -4.3548,-1.8336 -3.514412,2e-5 -5.53901,2.34932 -6.0738,7.0479 l 12.3195,0" style="font-size:57.29999923999999822px;fill:#009d92;font-family:FreeSans-RoundDot;-inkscape-font-specification:FreeSans-RoundDot Bold;fill-opacity:1" id="path3814"/>
          <path d="m 83.147366,552.42983 8.022,0 0,4.4694 c 2.215586,-3.32337 5.309783,-4.98507 9.282604,-4.9851 3.28517,3e-5 5.82547,0.93593 7.6209,2.8077 1.83357,1.87182 2.75036,4.50762 2.7504,7.9074 l 0,20.7426 -8.022,0 0,-19.0809 c -3e-5,-3.70538 -1.71903,-5.55808 -5.157004,-5.5581 -1.948216,2e-5 -3.514415,0.55392 -4.6986,1.6617 -1.184212,1.10782 -1.776312,2.57852 -1.7763,4.4121 l 0,18.5652 -8.022,0 0,-30.942" style="font-size:57.29999923999999822px;fill:#009d92;font-family:FreeSans-RoundDot;-inkscape-font-specification:FreeSans-RoundDot Bold;fill-opacity:1" id="path3816"/>
          <path d="m 116.54968,552.42983 7.9647,0 0,3.8391 c 1.33698,-1.56617 2.63578,-2.67397 3.8964,-3.3234 1.29878,-0.68757 2.82678,-1.03137 4.584,-1.0314 4.04917,3e-5 6.85687,1.52803 8.4231,4.584 2.29197,-3.05597 5.30976,-4.58397 9.0534,-4.584 3.09416,3e-5 5.50075,0.84043 7.2198,2.5212 1.75715,1.68082 2.63575,4.03012 2.6358,7.0479 l 0,21.8886 -8.022,0 0,-20.628 c -4e-5,-1.22238 -0.40114,-2.19648 -1.2033,-2.9223 -0.76404,-0.72578 -1.81454,-1.08868 -3.1515,-1.0887 -1.71904,2e-5 -3.07514,0.53482 -4.0683,1.6044 -0.95503,1.06962 -1.43253,2.55942 -1.4325,4.4694 l 0,18.5652 -8.022,0 0,-20.628 c -2e-5,-1.22238 -0.40112,-2.19648 -1.2033,-2.9223 -0.76402,-0.72578 -1.81452,-1.08868 -3.1515,-1.0887 -1.71902,2e-5 -3.07512,0.53482 -4.0683,1.6044 -0.95501,1.06962 -1.43251,2.55942 -1.4325,4.4694 l 0,18.5652 -8.022,0 0,-30.942" style="font-size:57.29999923999999822px;fill:#009d92;font-family:FreeSans-RoundDot;-inkscape-font-specification:FreeSans-RoundDot Bold;fill-opacity:1" id="path3818"/>
          <path d="m 180.72031,551.91413 c 4.85137,3e-5 8.61407,1.47073 11.28809,4.4121 2.71217,2.90322 4.06827,6.97152 4.0683,12.2049 -3e-5,4.96601 -1.37523,8.9006 -4.1256,11.8038 -2.75042,2.9032 -6.47492,4.35479 -11.17349,4.3548 -4.77502,-1e-5 -8.51861,-1.4516 -11.2308,-4.3548 -2.71221,-2.9414 -4.06831,-6.95239 -4.0683,-12.033 -1e-5,-5.08058 1.35609,-9.07248 4.0683,-11.9757 2.71219,-2.94137 6.43668,-4.41207 11.1735,-4.4121 m 0.0573,6.4749 c -2.17742,2e-5 -3.93462,0.91682 -5.2716,2.7504 -1.33702,1.83362 -2.00551,4.22111 -2.0055,7.1625 -1e-5,2.94141 0.66848,5.32891 2.0055,7.1625 1.33698,1.8336 3.09418,2.7504 5.2716,2.7504 2.13918,0 3.87727,-0.8977 5.21429,-2.6931 1.37518,-1.83359 2.06278,-4.20199 2.0628,-7.1052 -2e-5,-3.05599 -0.66852,-5.48168 -2.0055,-7.2771 -1.29882,-1.83358 -3.05601,-2.75038 -5.27159,-2.7504" style="font-size:57.29999923999999822px;fill:#009d92;font-family:FreeSans-RoundDot;-inkscape-font-specification:FreeSans-RoundDot Bold;fill-opacity:1" id="path3820"/>
          <path d="m 218.44252,551.91413 c 3.70538,3e-5 6.79957,1.54713 9.2826,4.6413 2.48297,3.05602 3.72447,6.97152 3.7245,11.7465 -3e-5,4.66041 -1.24153,8.5568 -3.7245,11.6892 -2.48303,3.1324 -5.57722,4.69859 -9.2826,4.6986 -3.78182,-1e-5 -6.62771,-1.4898 -8.5377,-4.4694 l 0,3.1515 -8.022,0 0,-41.7717 8.022,0 0,14.8407 c 1.90999,-3.01777 4.75588,-4.52667 8.5377,-4.5267 m 3.0942,9.4545 c -1.26062,-1.83358 -2.88412,-2.75038 -4.8705,-2.7504 -1.98642,2e-5 -3.60992,0.89772 -4.8705,2.6931 -1.26061,1.75722 -1.89091,4.04921 -1.8909,6.876 -1e-5,2.94141 0.61119,5.30981 1.8336,7.1052 1.26058,1.7954 2.90318,2.6931 4.9278,2.6931 1.98638,0 3.60988,-0.8977 4.8705,-2.6931 1.26057,-1.79539 1.89087,-4.10649 1.8909,-6.9333 -3e-5,-2.86499 -0.63033,-5.19518 -1.8909,-6.9906" style="font-size:57.29999923999999822px;fill:#009d92;font-family:FreeSans-RoundDot;-inkscape-font-specification:FreeSans-RoundDot Bold;fill-opacity:1" id="path3822"/>
          <path d="m 237.3703,545.21003 c 0,-1.10776 0.4011,-2.06276 1.2033,-2.865 0.764,-0.76396 1.6999,-1.14596 2.8077,-1.146 1.18419,4e-5 2.13919,0.38204 2.865,1.146 0.76399,0.80224 1.14599,1.75724 1.146,2.865 -1e-5,1.10783 -0.38201,2.04373 -1.146,2.8077 -0.80221,0.80223 -1.75721,1.20333 -2.865,1.2033 -1.1078,3e-5 -2.0628,-0.40107 -2.865,-1.2033 -0.764,-0.80217 -1.146,-1.73807 -1.146,-2.8077 m 8.022,7.2198 0,30.942 -8.022,0 0,-30.942 8.022,0" style="font-size:57.29999923999999822px;fill:#009d92;font-family:FreeSans-RoundDot;-inkscape-font-specification:FreeSans-RoundDot Bold;fill-opacity:1" id="path3824"/>
          <path d="m 261.28412,541.60013 0,41.7717 -8.022,0 0,-41.7717 8.022,0" style="font-size:57.29999923999999822px;fill:#009d92;font-family:FreeSans-RoundDot;-inkscape-font-specification:FreeSans-RoundDot Bold;fill-opacity:1" id="path3826"/>
          <path d="m 269.1539,545.21003 c 0,-1.10776 0.4011,-2.06276 1.2033,-2.865 0.764,-0.76396 1.6999,-1.14596 2.8077,-1.146 1.18419,4e-5 2.13919,0.38204 2.865,1.146 0.76399,0.80224 1.14599,1.75724 1.146,2.865 -1e-5,1.10783 -0.38201,2.04373 -1.146,2.8077 -0.80221,0.80223 -1.75721,1.20333 -2.865,1.2033 -1.1078,3e-5 -2.0628,-0.40107 -2.865,-1.2033 -0.764,-0.80217 -1.146,-1.73807 -1.146,-2.8077 m 8.022,7.2198 0,30.942 -8.022,0 0,-30.942 8.022,0" style="font-size:57.29999923999999822px;fill:#009d92;font-family:FreeSans-RoundDot;-inkscape-font-specification:FreeSans-RoundDot Bold;fill-opacity:1" id="path3828"/>
          <path d="m 298.45392,553.06013 0,5.3289 -4.4694,0 0,16.8462 c -2e-5,1.3752 0.17188,2.292 0.5157,2.7504 0.34378,0.4202 1.05048,0.6303 2.1201,0.6303 0.42018,0 1.03138,-0.0573 1.8336,-0.1719 l 0,5.6154 c -1.29882,0.4202 -2.84592,0.63029 -4.6413,0.6303 -5.23341,-1e-5 -7.85011,-2.4257 -7.8501,-7.2771 l 0,-19.0236 -3.9537,0 0,-5.3289 3.9537,0 0,-8.3085 8.022,0 0,8.3085 4.4694,0" style="font-size:57.29999923999999822px;fill:#009d92;font-family:FreeSans-RoundDot;-inkscape-font-specification:FreeSans-RoundDot Bold;fill-opacity:1" id="path3830"/>
          <path d="m 312.37692,584.86163 0,-0.2292 -11.5173,-32.2026 8.8242,0 6.8187,22.5189 6.4176,-22.5189 8.2512,0 -12.7206,36.6147 c -0.22922,0.45839 -0.40112,0.97409 -0.5157,1.5471 -0.11462,0.57299 -0.42022,1.16509 -0.9168,1.7763 -0.49662,0.64939 -1.06962,1.22239 -1.719,1.719 -0.61122,0.53478 -1.54712,0.97408 -2.8077,1.3179 -1.26062,0.34378 -2.71221,0.51568 -4.3548,0.5157 -0.84041,-2e-5 -1.79541,-0.0764 -2.865,-0.2292 l 0,-6.0165 c 0.84039,0.22919 1.54709,0.34379 2.1201,0.3438 1.41339,-10e-6 2.59759,-0.49661 3.5526,-1.4898 0.95498,-0.99321 1.43248,-2.21561 1.4325,-3.6672" style="font-size:57.29999923999999822px;fill:#009d92;font-family:FreeSans-RoundDot;-inkscape-font-specification:FreeSans-RoundDot Bold;fill-opacity:1" id="path3832"/>
        </g>
        <g style="stroke:#009d92;stroke-opacity:1" inkscape:export-ydpi="90" inkscape:export-xdpi="90" inkscape:export-filename="/home/ivir/openmobility_11.png" transform="matrix(-0.19348171,-0.33512014,0.33512014,-0.19348171,-218.71825,764.4027)" id="g5009">
          <path id="path5011" d="M -90.872338,1277.2233 C -78.436889,1284.0069 -70,1297.1992 -70,1312.3622 l 0,0 c 0,14.8091 -8.047707,27.7385 -20.008325,34.6535" style="fill:none;stroke:#009d92;stroke-width:4;stroke-miterlimit:4;stroke-opacity:1;stroke-dasharray:none" inkscape:connector-curvature="0"/>
          <path id="path5013" d="M -94.999047,1338.361 C -86.032552,1333.1737 -80,1323.4788 -80,1312.375 c 0,-11.4634 -6.487833,-21.3245 -15.9375,-26.375 l 0,0" style="fill:none;stroke:#009d92;stroke-width:4;stroke-miterlimit:4;stroke-opacity:1;stroke-dasharray:none" inkscape:connector-curvature="0"/>
          <path id="path5015" d="M -85.86091,1268.5646 C -70.442392,1277.0807 -60,1293.5019 -60,1312.3622 l 0,0 c 0,18.5159 -10.064629,34.6812 -25.021543,43.3233" style="fill:none;stroke:#009d92;stroke-width:4;stroke-miterlimit:4;stroke-opacity:1;stroke-dasharray:none" inkscape:connector-curvature="0"/>
        </g>
      </g>
      <g style="font-size:10.00626373px;font-style:normal;font-weight:normal;fill:#000000;fill-opacity:1;stroke:none;font-family:Trebuchet MS;-inkscape-font-specification:Trebuchet MS" id="text5017">
        <path d="m 283.91102,285.64168 c -0.6404,-0.71378 -0.9606,-1.63102 -0.9606,-2.75172 0,-1.1207 0.3202,-2.03794 0.9606,-2.75172 0.64707,-0.71378 1.49427,-1.07067 2.54159,-1.07067 1.05399,0 1.90452,0.35689 2.5516,1.07067 0.64707,0.70711 0.9706,1.64103 0.97061,2.80175 -1e-5,1.08068 -0.32021,1.98124 -0.9606,2.70169 -0.63374,0.71378 -1.48427,1.07067 -2.5516,1.07067 -1.06067,0 -1.9112,-0.35689 -2.5516,-1.07067 m 2.5516,-5.29331 c -0.60705,0 -1.09402,0.23348 -1.46091,0.70044 -0.3669,0.46029 -0.55035,1.07401 -0.55035,1.84115 0,0.76715 0.18345,1.3842 0.55035,1.85116 0.36689,0.46029 0.85386,0.69043 1.46091,0.69043 0.60037,0 1.08401,-0.23014 1.45091,-0.69043 0.37356,-0.46029 0.56034,-1.064 0.56035,-1.81114 -1e-5,-0.78715 -0.18345,-1.41421 -0.55035,-1.88117 -0.36023,-0.46696 -0.8472,-0.70044 -1.46091,-0.70044" style="fill:#000000;font-family:FreeSans-RoundDot;-inkscape-font-specification:FreeSans-RoundDot" id="path3835"/>
        <path d="m 293.71294,280.98877 c 0.68042,0 1.22743,0.27351 1.64103,0.82051 0.41358,0.54702 0.62038,1.23078 0.62039,2.05129 -10e-6,0.82051 -0.21681,1.50427 -0.65041,2.05128 -0.42694,0.54034 -0.96394,0.81051 -1.61101,0.81051 -0.66709,0 -1.1674,-0.29352 -1.50094,-0.88055 l 0,2.82176 -1.40088,0 0,-7.58474 1.40088,0 0,0.8005 c 0.33354,-0.5937 0.83385,-0.89056 1.50094,-0.89056 m 0.53033,1.65103 c -0.21347,-0.32019 -0.49698,-0.48029 -0.85053,-0.4803 -0.35356,1e-5 -0.6404,0.15677 -0.86054,0.4703 -0.21347,0.31353 -0.3202,0.72379 -0.3202,1.23077 0,0.50698 0.10673,0.91724 0.3202,1.23077 0.22014,0.30686 0.50698,0.46029 0.86054,0.46029 0.34688,0 0.63039,-0.15677 0.85053,-0.4703 0.22014,-0.31353 0.3302,-0.71378 0.33021,-1.20075 -1e-5,-0.51365 -0.11007,-0.92724 -0.33021,-1.24078" style="fill:#000000;font-family:FreeSans-RoundDot;-inkscape-font-specification:FreeSans-RoundDot" id="path3837"/>
        <path d="m 299.06957,280.98877 c 0.23348,0 0.46029,0.0267 0.68043,0.0801 0.22013,0.0534 0.44361,0.1501 0.67042,0.29018 0.23347,0.14009 0.4336,0.32021 0.60038,0.54034 0.17343,0.21347 0.31352,0.50032 0.42026,0.86054 0.10673,0.35356 0.16009,0.76048 0.1601,1.22076 -10e-6,0.0801 -0.003,0.1601 -0.01,0.24015 l -3.62227,0 c 0.007,0.2068 0.0233,0.38691 0.05,0.54034 0.0334,0.14676 0.0867,0.29352 0.1601,0.44028 0.08,0.14009 0.19345,0.25015 0.34021,0.3302 0.15343,0.0734 0.34354,0.11007 0.57036,0.11007 0.53366,0 0.89055,-0.22681 1.07067,-0.68042 l 1.38086,0 c -0.15343,0.53366 -0.45696,0.9606 -0.91057,1.2808 -0.45362,0.31353 -0.98395,0.47029 -1.591,0.47029 -0.76714,0 -1.37085,-0.24682 -1.81113,-0.74046 -0.44027,-0.50031 -0.66041,-1.18407 -0.66041,-2.05129 0,-0.90723 0.22347,-1.62101 0.67042,-2.14134 0.44694,-0.52699 1.05732,-0.79049 1.83114,-0.79049 m 1.07067,2.30144 c -0.0333,-0.39358 -0.14342,-0.6971 -0.3302,-0.91057 -0.18012,-0.21346 -0.43361,-0.3202 -0.76048,-0.3202 -0.61372,0 -0.96727,0.41026 -1.06066,1.23077 l 2.15134,0" style="fill:#000000;font-family:FreeSans-RoundDot;-inkscape-font-specification:FreeSans-RoundDot" id="path3839"/>
        <path d="m 302.45044,281.07883 1.40088,0 0,0.78048 c 0.3869,-0.58035 0.92724,-0.87054 1.62101,-0.87054 0.57369,0 1.0173,0.16344 1.33083,0.49031 0.3202,0.32687 0.4803,0.78716 0.48031,1.38086 l 0,3.62227 -1.40088,0 0,-3.33209 c -10e-6,-0.64707 -0.30019,-0.9706 -0.90057,-0.97061 -0.34021,1e-5 -0.61372,0.0967 -0.82051,0.29019 -0.2068,0.19345 -0.3102,0.45028 -0.31019,0.77048 l 0,3.24203 -1.40088,0 0,-5.40338" style="fill:#000000;font-family:FreeSans-RoundDot;-inkscape-font-specification:FreeSans-RoundDot" id="path3841"/>
        <path d="m 315.97562,282.74987 1.13071,0 0,0.1601 c -0.0134,0.38691 -0.0801,0.76715 -0.20012,1.14072 -0.12008,0.36689 -0.28018,0.66375 -0.4803,0.89055 l 1.23077,1.54097 -1.61101,0 -0.46029,-0.56035 c -0.40025,0.30019 -0.74047,0.50698 -1.02064,0.62039 -0.28018,0.1134 -0.59037,0.1701 -0.93058,0.1701 -0.71378,0 -1.28748,-0.19679 -1.72108,-0.59037 -0.4336,-0.40025 -0.65041,-0.92391 -0.65041,-1.57098 0,-0.47363 0.11341,-0.86054 0.34022,-1.16073 0.23348,-0.30685 0.64373,-0.61371 1.23077,-0.92057 -0.06,-0.08 -0.10007,-0.13008 -0.12008,-0.1501 l -0.28017,-0.34021 c -0.28018,-0.33354 -0.42027,-0.68709 -0.42027,-1.06066 0,-0.47363 0.18012,-0.87054 0.54034,-1.19075 0.3669,-0.32019 0.81718,-0.48029 1.35085,-0.4803 0.53366,10e-6 0.96393,0.14343 1.29081,0.43027 0.32686,0.28018 0.4903,0.65375 0.4903,1.1207 0,0.36023 -0.0834,0.66709 -0.25015,0.92058 -0.16678,0.25349 -0.47364,0.53367 -0.92058,0.84052 l 1.16073,1.4409 c 0.20012,-0.38023 0.30018,-0.7638 0.30018,-1.15072 l 0,-0.10006 m -2.48155,0.54034 -0.47029,0.29018 c -0.28685,0.19346 -0.43027,0.46029 -0.43027,0.8005 0,0.30019 0.10673,0.57036 0.3202,0.81051 0.22013,0.24015 0.46695,0.36023 0.74046,0.36023 0.3202,0 0.72045,-0.18345 1.20075,-0.55035 l -1.36085,-1.71107 m 0.39025,-1.51095 c 0.40024,-0.22013 0.60037,-0.50697 0.60037,-0.86053 0,-0.18678 -0.05,-0.33021 -0.15009,-0.43027 -0.10007,-0.10006 -0.24016,-0.15009 -0.42027,-0.1501 -0.16677,10e-6 -0.30686,0.0467 -0.42026,0.14009 -0.10673,0.0867 -0.1601,0.20013 -0.1601,0.34021 0,0.12675 0.0267,0.24016 0.08,0.34022 0.06,0.0934 0.2168,0.30019 0.4703,0.62038" style="fill:#000000;font-family:FreeSans-RoundDot;-inkscape-font-specification:FreeSans-RoundDot" id="path3843"/>
        <path d="m 322.87995,280.79865 0,5.68356 -1.50094,0 0,-7.29457 2.2414,0 1.32083,5.80363 1.2808,-5.80363 2.26141,0 0,7.29457 -1.50094,0 0,-5.68356 -1.2908,5.68356 -1.50094,0 -1.31082,-5.68356" style="fill:#000000;font-family:FreeSans-RoundDot;-inkscape-font-specification:FreeSans-RoundDot" id="path3845"/>
        <path d="m 332.07555,280.98877 c 0.84719,0 1.50427,0.25683 1.97123,0.77048 0.47363,0.50699 0.71044,1.21743 0.71045,2.13134 -10e-6,0.86721 -0.24016,1.5543 -0.72045,2.06129 -0.48031,0.50698 -1.13072,0.76047 -1.95122,0.76047 -0.83386,0 -1.4876,-0.25349 -1.96123,-0.76047 -0.47363,-0.51366 -0.71045,-1.2141 -0.71045,-2.10132 0,-0.88722 0.23682,-1.58432 0.71045,-2.09131 0.47363,-0.51365 1.12403,-0.77048 1.95122,-0.77048 m 0.01,1.13071 c -0.38025,0 -0.6871,0.1601 -0.92058,0.4803 -0.23348,0.3202 -0.35022,0.73713 -0.35022,1.25078 0,0.51366 0.11674,0.93059 0.35022,1.25078 0.23348,0.32021 0.54033,0.48031 0.92058,0.4803 0.37356,1e-5 0.67708,-0.15676 0.91057,-0.47029 0.24014,-0.3202 0.36022,-0.73379 0.36022,-1.24078 0,-0.53366 -0.11674,-0.95726 -0.35022,-1.27079 -0.22681,-0.3202 -0.53367,-0.4803 -0.92057,-0.4803" style="fill:#000000;font-family:FreeSans-RoundDot;-inkscape-font-specification:FreeSans-RoundDot" id="path3847"/>
        <path d="m 338.66295,280.98877 c 0.64707,0 1.18741,0.27017 1.62102,0.81051 0.43359,0.53367 0.6504,1.21743 0.6504,2.05128 0,0.81385 -0.21681,1.49427 -0.6504,2.04128 -0.43361,0.54701 -0.97395,0.82051 -1.62102,0.82051 -0.66042,0 -1.15739,-0.26016 -1.49093,-0.78049 l 0,0.55035 -1.40088,0 0,-7.29457 1.40088,0 0,2.59162 c 0.33354,-0.52699 0.83051,-0.79049 1.49093,-0.79049 m 0.54034,1.65103 c -0.22014,-0.32019 -0.50365,-0.48029 -0.85053,-0.4803 -0.34689,1e-5 -0.6304,0.15677 -0.85054,0.4703 -0.22014,0.30686 -0.3302,0.70711 -0.3302,1.20075 0,0.51366 0.10673,0.92725 0.3202,1.24078 0.22013,0.31353 0.50698,0.47029 0.86054,0.47029 0.34688,0 0.63039,-0.15676 0.85053,-0.47029 0.22013,-0.31353 0.3302,-0.71712 0.33021,-1.21076 -1e-5,-0.50031 -0.11008,-0.90723 -0.33021,-1.22077" style="fill:#000000;font-family:FreeSans-RoundDot;-inkscape-font-specification:FreeSans-RoundDot" id="path3849"/>
        <path d="m 341.9683,279.81804 c 0,-0.19345 0.07,-0.36022 0.21013,-0.50032 0.13342,-0.13341 0.29685,-0.20011 0.49031,-0.20012 0.20679,1e-5 0.37357,0.0667 0.50031,0.20012 0.13342,0.1401 0.20013,0.30687 0.20013,0.50032 0,0.19346 -0.0667,0.35689 -0.20013,0.4903 -0.14009,0.1401 -0.30686,0.21014 -0.50031,0.21014 -0.19346,0 -0.36023,-0.07 -0.50031,-0.21014 -0.13342,-0.14008 -0.20013,-0.30351 -0.20013,-0.4903 m 1.40088,1.26079 0,5.40338 -1.40088,0 0,-5.40338 1.40088,0" style="fill:#000000;font-family:FreeSans-RoundDot;-inkscape-font-specification:FreeSans-RoundDot" id="path3851"/>
        <path d="m 346.14436,279.18764 0,7.29457 -1.40088,0 0,-7.29457 1.40088,0" style="fill:#000000;font-family:FreeSans-RoundDot;-inkscape-font-specification:FreeSans-RoundDot" id="path3853"/>
        <path d="m 349.56994,280.98877 c 0.23348,0 0.46028,0.0267 0.68043,0.0801 0.22013,0.0534 0.4436,0.1501 0.67042,0.29018 0.23347,0.14009 0.4336,0.32021 0.60037,0.54034 0.17344,0.21347 0.31353,0.50032 0.42026,0.86054 0.10673,0.35356 0.1601,0.76048 0.1601,1.22076 0,0.0801 -0.003,0.1601 -0.01,0.24015 l -3.62227,0 c 0.007,0.2068 0.0233,0.38691 0.05,0.54034 0.0334,0.14676 0.0867,0.29352 0.1601,0.44028 0.0801,0.14009 0.19345,0.25015 0.34022,0.3302 0.15342,0.0734 0.34354,0.11007 0.57035,0.11007 0.53367,0 0.89056,-0.22681 1.07067,-0.68042 l 1.38087,0 c -0.15344,0.53366 -0.45696,0.9606 -0.91057,1.2808 -0.45362,0.31353 -0.98396,0.47029 -1.591,0.47029 -0.76715,0 -1.37086,-0.24682 -1.81113,-0.74046 -0.44028,-0.50031 -0.66042,-1.18407 -0.66042,-2.05129 0,-0.90723 0.22348,-1.62101 0.67042,-2.14134 0.44695,-0.52699 1.05733,-0.79049 1.83115,-0.79049 m 1.07067,2.30144 c -0.0334,-0.39358 -0.14343,-0.6971 -0.33021,-0.91057 -0.18011,-0.21346 -0.4336,-0.3202 -0.76047,-0.3202 -0.61372,0 -0.96728,0.41026 -1.06067,1.23077 l 2.15135,0" style="fill:#000000;font-family:FreeSans-RoundDot;-inkscape-font-specification:FreeSans-RoundDot" id="path3855"/>
      </g>
    </g>
  </g>
</svg>