<?xml version="1.0" encoding="utf-8"?>
<!-- Generator: Adobe Illustrator 16.0.0, SVG Export Plug-In . SVG Version: 6.00 Build 0)  -->
<!DOCTYPE svg PUBLIC "-//W3C//DTD SVG 1.1//EN" "http://www.w3.org/Graphics/SVG/1.1/DTD/svg11.dtd">
<svg version="1.1" id="Vrstva_1" xmlns="http://www.w3.org/2000/svg" xmlns:xlink="http://www.w3.org/1999/xlink" x="0px" y="0px"
	 width="374.153px" height="108.131px" viewBox="0 0 374.153 108.131" enable-background="new 0 0 374.153 108.131"
	 xml:space="preserve">
<g>
	<path fill="#701512" d="M67.173,31.854c-3.841-2.272-8.321-3.577-13.109-3.577c-4.648,0-9.013,1.23-12.778,3.387L27.143,7.168
		C35.068,2.608,44.261,0,54.065,0c9.949,0,19.269,2.686,27.278,7.374L67.173,31.854z"/>
	<path fill="#D87A68" d="M29.138,47.44c-0.561,2.114-0.859,4.335-0.859,6.625c0,14.24,11.545,25.785,25.785,25.785
		c7.149,0,13.616-2.908,18.287-7.607l19.998,19.999c-9.79,9.814-23.326,15.889-38.283,15.889C24.205,108.131,0,83.925,0,54.065
		c0-4.863,0.641-9.574,1.842-14.057L29.138,47.44z"/>
	<path fill="#BE1622" d="M67.173,31.854c7.588,4.488,12.676,12.756,12.676,22.211c0,7.093-2.86,13.517-7.498,18.178l19.998,19.999
		c9.752-9.78,15.78-23.275,15.78-38.177c0.002-19.912-10.76-37.309-26.785-46.691L67.173,31.854z"/>
</g>
<g>
	<g>
		<path d="M149.837,29.134c3.445,0,6.549,0.581,9.311,1.743s5.113,2.81,7.055,4.942s3.432,4.689,4.471,7.67s1.559,6.289,1.559,9.926
			c0,3.582-0.513,6.856-1.538,9.823s-2.502,5.51-4.43,7.629s-4.279,3.767-7.055,4.942s-5.899,1.764-9.372,1.764
			c-3.5,0-6.645-0.581-9.434-1.743s-5.154-2.803-7.096-4.922s-3.425-4.662-4.45-7.629s-1.538-6.255-1.538-9.864
			c0-3.637,0.52-6.945,1.559-9.926s2.536-5.537,4.491-7.67s4.32-3.78,7.096-4.942S146.364,29.134,149.837,29.134z M149.755,69.206
			c1.969,0,3.712-0.403,5.229-1.21s2.803-1.914,3.855-3.322s1.846-3.076,2.379-5.004s0.8-4.013,0.8-6.255
			c0-2.215-0.26-4.286-0.779-6.214s-1.292-3.603-2.317-5.024s-2.29-2.536-3.794-3.343s-3.24-1.21-5.209-1.21
			s-3.726,0.396-5.271,1.189s-2.837,1.894-3.876,3.302s-1.832,3.076-2.379,5.004s-0.82,4.026-0.82,6.296
			c0,2.242,0.273,4.327,0.82,6.255s1.34,3.596,2.379,5.004s2.311,2.516,3.814,3.322S147.813,69.206,149.755,69.206z"/>
		<path d="M187.37,47.099c1.258-1.477,2.721-2.646,4.389-3.507s3.65-1.292,5.947-1.292c2.461,0,4.546,0.472,6.255,1.415
			s3.083,2.215,4.122,3.814s1.791,3.438,2.256,5.517s0.697,4.266,0.697,6.563c0,2.598-0.308,4.997-0.923,7.198
			s-1.531,4.102-2.748,5.701s-2.714,2.844-4.491,3.732s-3.814,1.333-6.111,1.333c-1.941,0-3.65-0.253-5.127-0.759
			s-2.789-1.333-3.938-2.481v15.504h-9.844V42.915h9.516V47.099z M187.698,67.853c0.957,0.875,1.976,1.538,3.056,1.989
			s2.276,0.677,3.589,0.677c2.133,0,3.773-0.909,4.922-2.728s1.723-4.546,1.723-8.183c0-6.945-2.078-10.418-6.234-10.418
			c-1.34,0-2.598,0.396-3.773,1.189s-2.27,1.914-3.281,3.363V67.853z"/>
		<path d="M233.474,77.573c-2.844,0-5.373-0.403-7.588-1.21s-4.081-1.969-5.599-3.486s-2.666-3.363-3.445-5.537
			s-1.169-4.642-1.169-7.403c0-2.789,0.396-5.284,1.189-7.485s1.935-4.067,3.425-5.599s3.309-2.7,5.455-3.507s4.587-1.21,7.321-1.21
			c2.652,0,5.038,0.383,7.157,1.148s3.917,1.887,5.394,3.363s2.611,3.302,3.404,5.476s1.189,4.669,1.189,7.485v2.379h-24.445
			c0.027,1.695,0.239,3.145,0.636,4.348s0.937,2.194,1.62,2.974s1.483,1.347,2.399,1.702s1.935,0.533,3.056,0.533
			c1.832,0,3.336-0.383,4.512-1.148s1.969-2.01,2.379-3.732h9.188c-0.328,1.777-0.957,3.343-1.887,4.696s-2.092,2.488-3.486,3.404
			s-2.994,1.613-4.799,2.092S235.606,77.573,233.474,77.573z M240.446,56.245c-0.219-2.898-0.95-5.038-2.194-6.419
			s-2.974-2.071-5.188-2.071c-2.023,0-3.698,0.752-5.024,2.256s-2.058,3.582-2.194,6.234H240.446z"/>
		<path d="M265.407,47.181c1.559-1.695,3.227-2.96,5.004-3.794s3.637-1.251,5.578-1.251c7.793,0,11.689,4.17,11.689,12.51v22.189
			h-9.844V55.507c0-1.969-0.342-3.486-1.025-4.553s-1.887-1.6-3.609-1.6c-1.422,0-2.734,0.403-3.938,1.21s-2.379,1.866-3.527,3.179
			v23.092h-9.844v-33.92h9.516V47.181z"/>
		<path d="M335.277,76.835h-10.336l-3.855-11.156h-16.693l-3.691,11.156h-9.926l16.365-46.881h11.033L335.277,76.835z
			 M318.748,57.599l-6.152-19.236l-5.947,19.236H318.748z"/>
		<path d="M347.375,76.835h-9.844V29.954h9.844V76.835z"/>
		<path d="M373.826,76.917c-1.449,0.328-3.213,0.492-5.291,0.492c-2.543,0-4.512-0.335-5.906-1.005s-2.42-1.62-3.076-2.851
			s-1.046-2.714-1.169-4.45s-0.185-3.671-0.185-5.804V49.97h-4.471v-7.055h4.471v-8.49h9.721v8.49h5.578v7.055h-5.578v15.094
			c0,1.066,0.075,1.948,0.226,2.646s0.362,1.237,0.636,1.62s0.608,0.649,1.005,0.8s0.841,0.226,1.333,0.226
			c0.93,0,1.832-0.082,2.707-0.246V76.917z"/>
	</g>
</g>
<g>
	<path d="M222.515,107.698h-3.76l-5.779-9.023l-1.977,1.955v7.068h-3.18V83.142h3.18v13.922l6.854-7.154h3.975l-6.725,6.639
		L222.515,107.698z"/>
	<path d="M232.073,89.522c1.26,0,2.402,0.208,3.426,0.623c1.023,0.416,1.902,1.021,2.633,1.815s1.291,1.77,1.686,2.922
		c0.395,1.153,0.592,2.468,0.592,3.942c0,1.461-0.197,2.769-0.592,3.921c-0.395,1.153-0.955,2.127-1.686,2.922
		s-1.609,1.404-2.633,1.826s-2.166,0.634-3.426,0.634c-1.262,0-2.404-0.208-3.428-0.623s-1.9-1.017-2.631-1.805
		c-0.73-0.787-1.293-1.758-1.688-2.911c-0.395-1.152-0.59-2.474-0.59-3.964c0-1.489,0.199-2.811,0.602-3.964
		c0.4-1.152,0.967-2.127,1.697-2.922s1.607-1.396,2.631-1.805S230.827,89.522,232.073,89.522z M232.073,105.636
		c0.744,0,1.428-0.143,2.051-0.43c0.623-0.286,1.16-0.716,1.611-1.289c0.451-0.572,0.799-1.285,1.043-2.138
		c0.242-0.852,0.365-1.837,0.365-2.954c0-1.146-0.127-2.148-0.377-3.008s-0.602-1.571-1.053-2.138
		c-0.451-0.565-0.984-0.991-1.6-1.278c-0.617-0.286-1.297-0.43-2.041-0.43c-0.746,0-1.43,0.144-2.053,0.43
		c-0.623,0.287-1.16,0.713-1.611,1.278c-0.451,0.566-0.803,1.278-1.053,2.138s-0.375,1.862-0.375,3.008
		c0,1.117,0.121,2.103,0.365,2.954c0.242,0.853,0.59,1.565,1.041,2.138c0.451,0.573,0.988,1.003,1.611,1.289
		C230.622,105.493,231.313,105.636,232.073,105.636z"/>
	<path d="M247.112,92.187c1.561-1.775,3.33-2.664,5.307-2.664c4.01,0,6.016,2.185,6.016,6.553v11.623h-3.158V96.204
		c0-1.461-0.262-2.506-0.785-3.137c-0.523-0.63-1.379-0.945-2.566-0.945c-1.605,0-3.209,0.945-4.813,2.836v12.74h-3.18V89.909h3.18
		V92.187z"/>
	<path d="M266.946,92.401v15.297h-3.158V92.401h-2.621v-2.492h2.621v-1.568c0-3.752,1.662-5.629,4.984-5.629
		c1.018,0,1.805,0.064,2.363,0.193v2.75c-0.314-0.057-0.631-0.097-0.945-0.118s-0.637-0.032-0.967-0.032
		c-0.773,0-1.346,0.215-1.719,0.645s-0.559,1.175-0.559,2.234v1.525h3.373v2.492H266.946z"/>
	<path d="M280.331,108.128c-1.303,0-2.488-0.212-3.555-0.634c-1.068-0.422-1.98-1.031-2.74-1.826s-1.346-1.769-1.762-2.922
		c-0.416-1.152-0.623-2.46-0.623-3.921s0.205-2.768,0.613-3.921c0.408-1.152,0.977-2.127,1.707-2.922s1.607-1.403,2.633-1.826
		c1.023-0.422,2.15-0.634,3.383-0.634c1.26,0,2.402,0.208,3.428,0.623c1.023,0.416,1.9,1.021,2.631,1.815s1.293,1.77,1.688,2.922
		c0.393,1.153,0.59,2.468,0.59,3.942v0.752h-13.385c0.072,1.046,0.258,1.948,0.559,2.707c0.301,0.76,0.691,1.386,1.172,1.88
		c0.479,0.494,1.031,0.863,1.654,1.106c0.623,0.244,1.291,0.365,2.008,0.365c0.545,0,1.074-0.071,1.59-0.215
		c0.516-0.143,0.979-0.351,1.387-0.623c0.408-0.271,0.74-0.612,0.998-1.021s0.4-0.87,0.43-1.386h3.266
		c-0.129,0.917-0.412,1.733-0.848,2.449c-0.438,0.717-0.996,1.318-1.676,1.805c-0.682,0.487-1.459,0.856-2.332,1.106
		S281.333,108.128,280.331,108.128z M284.993,97.085c-0.258-1.719-0.83-3-1.719-3.846c-0.889-0.845-1.984-1.268-3.287-1.268
		c-0.631,0-1.217,0.104-1.762,0.312c-0.545,0.208-1.035,0.523-1.471,0.945c-0.438,0.423-0.807,0.956-1.107,1.601
		s-0.516,1.396-0.645,2.256H284.993z"/>
	<path d="M301.085,92.81c-0.43-0.143-1.074-0.215-1.934-0.215c-1.59,0-2.965,0.846-4.125,2.535v12.568h-3.18V89.909h3.18v2.492
		c1.303-1.919,2.844-2.879,4.619-2.879c0.443,0,0.924,0.043,1.439,0.129V92.81z"/>
	<path d="M310.839,108.128c-1.303,0-2.488-0.212-3.555-0.634c-1.068-0.422-1.98-1.031-2.74-1.826s-1.346-1.769-1.762-2.922
		c-0.416-1.152-0.623-2.46-0.623-3.921s0.205-2.768,0.613-3.921c0.408-1.152,0.977-2.127,1.707-2.922s1.607-1.403,2.633-1.826
		c1.023-0.422,2.15-0.634,3.383-0.634c1.26,0,2.402,0.208,3.428,0.623c1.023,0.416,1.9,1.021,2.631,1.815s1.293,1.77,1.688,2.922
		c0.393,1.153,0.59,2.468,0.59,3.942v0.752h-13.385c0.072,1.046,0.258,1.948,0.559,2.707c0.301,0.76,0.691,1.386,1.172,1.88
		c0.479,0.494,1.031,0.863,1.654,1.106c0.623,0.244,1.291,0.365,2.008,0.365c0.545,0,1.074-0.071,1.59-0.215
		c0.516-0.143,0.979-0.351,1.387-0.623c0.408-0.271,0.74-0.612,0.998-1.021s0.4-0.87,0.43-1.386h3.266
		c-0.129,0.917-0.412,1.733-0.848,2.449c-0.438,0.717-0.996,1.318-1.676,1.805c-0.682,0.487-1.459,0.856-2.332,1.106
		S311.841,108.128,310.839,108.128z M315.501,97.085c-0.258-1.719-0.83-3-1.719-3.846c-0.889-0.845-1.984-1.268-3.287-1.268
		c-0.631,0-1.217,0.104-1.762,0.312c-0.545,0.208-1.035,0.523-1.471,0.945c-0.438,0.423-0.807,0.956-1.107,1.601
		s-0.516,1.396-0.645,2.256H315.501z"/>
	<path d="M325.534,92.187c1.561-1.775,3.33-2.664,5.307-2.664c4.01,0,6.016,2.185,6.016,6.553v11.623h-3.158V96.204
		c0-1.461-0.262-2.506-0.783-3.137c-0.523-0.63-1.379-0.945-2.568-0.945c-1.604,0-3.209,0.945-4.813,2.836v12.74h-3.18V89.909h3.18
		V92.187z"/>
	<path d="M348.651,108.128c-1.26,0-2.402-0.208-3.426-0.623c-1.025-0.415-1.902-1.017-2.633-1.805
		c-0.73-0.787-1.293-1.758-1.686-2.911c-0.395-1.152-0.592-2.474-0.592-3.964c0-1.489,0.201-2.811,0.602-3.964
		c0.4-1.152,0.967-2.127,1.697-2.922s1.607-1.396,2.633-1.805c1.023-0.408,2.158-0.612,3.404-0.612c0.959,0,1.855,0.126,2.686,0.376
		c0.83,0.251,1.559,0.616,2.182,1.096c0.623,0.48,1.135,1.078,1.535,1.794c0.4,0.717,0.658,1.533,0.773,2.449h-3.266
		c-0.029-0.529-0.15-0.999-0.365-1.407s-0.498-0.748-0.848-1.021c-0.352-0.271-0.76-0.479-1.225-0.623
		c-0.467-0.143-0.957-0.215-1.473-0.215c-0.744,0-1.428,0.144-2.051,0.43c-0.623,0.287-1.16,0.713-1.611,1.278
		c-0.451,0.566-0.803,1.278-1.053,2.138c-0.252,0.859-0.377,1.862-0.377,3.008c0,1.117,0.121,2.103,0.365,2.954
		c0.244,0.853,0.592,1.565,1.043,2.138c0.451,0.573,0.988,1.003,1.611,1.289c0.623,0.287,1.313,0.43,2.072,0.43
		c0.516,0,1.006-0.067,1.473-0.204c0.465-0.136,0.873-0.34,1.225-0.612c0.35-0.271,0.633-0.612,0.848-1.021s0.336-0.877,0.365-1.407
		h3.266c-0.115,0.932-0.373,1.751-0.773,2.46s-0.912,1.308-1.535,1.794c-0.623,0.487-1.352,0.856-2.182,1.106
		S349.61,108.128,348.651,108.128z"/>
	<path d="M366.161,108.128c-1.303,0-2.488-0.212-3.555-0.634c-1.068-0.422-1.98-1.031-2.74-1.826s-1.346-1.769-1.762-2.922
		c-0.416-1.152-0.623-2.46-0.623-3.921s0.205-2.768,0.613-3.921c0.408-1.152,0.977-2.127,1.707-2.922s1.607-1.403,2.633-1.826
		c1.023-0.422,2.15-0.634,3.383-0.634c1.26,0,2.402,0.208,3.428,0.623c1.023,0.416,1.9,1.021,2.631,1.815s1.293,1.77,1.688,2.922
		c0.393,1.153,0.59,2.468,0.59,3.942v0.752h-13.385c0.072,1.046,0.258,1.948,0.559,2.707c0.301,0.76,0.691,1.386,1.172,1.88
		c0.479,0.494,1.031,0.863,1.654,1.106c0.623,0.244,1.291,0.365,2.008,0.365c0.545,0,1.074-0.071,1.59-0.215
		c0.516-0.143,0.979-0.351,1.387-0.623c0.408-0.271,0.74-0.612,0.998-1.021s0.4-0.87,0.43-1.386h3.266
		c-0.129,0.917-0.412,1.733-0.848,2.449c-0.438,0.717-0.996,1.318-1.676,1.805c-0.682,0.487-1.459,0.856-2.332,1.106
		S367.163,108.128,366.161,108.128z M370.823,97.085c-0.258-1.719-0.83-3-1.719-3.846c-0.889-0.845-1.984-1.268-3.287-1.268
		c-0.631,0-1.217,0.104-1.762,0.312c-0.545,0.208-1.035,0.523-1.471,0.945c-0.438,0.423-0.807,0.956-1.107,1.601
		s-0.516,1.396-0.645,2.256H370.823z"/>
</g>
</svg>
