<?xml version="1.0" encoding="utf-8"?>
<!-- Generator: Adobe Illustrator 16.0.0, SVG Export Plug-In . SVG Version: 6.00 Build 0)  -->
<!DOCTYPE svg PUBLIC "-//W3C//DTD SVG 1.1//EN" "http://www.w3.org/Graphics/SVG/1.1/DTD/svg11.dtd">
<svg version="1.1" id="Vrstva_1" xmlns="http://www.w3.org/2000/svg" xmlns:xlink="http://www.w3.org/1999/xlink" x="0px" y="0px"
	 width="16.293px" height="13.241px" viewBox="0 0 16.293 13.241" enable-background="new 0 0 16.293 13.241" xml:space="preserve">
<g id="twitter_1_">
	<path fill="#FFFFFF" d="M5.124,13.241c-1.888,0-3.644-0.554-5.124-1.502c0.262,0.031,0.527,0.047,0.798,0.047
		c1.566,0,3.007-0.534,4.151-1.431c-1.462-0.027-2.697-0.994-3.122-2.321c0.203,0.039,0.413,0.06,0.629,0.06
		c0.305,0,0.59-0.041,0.87-0.117C1.797,7.67,0.635,6.318,0.635,4.699c0-0.015,0-0.029,0-0.042c0,0.249,0.976,0.399,1.523,0.418
		C1.263,4.475,0.677,3.451,0.677,2.293c0-0.613,0.169-1.188,0.455-1.681c1.649,2.022,4.113,3.353,6.892,3.493
		C7.967,3.859,7.937,3.604,7.937,3.343C7.937,1.496,9.435,0,11.28,0c0.962,0,1.831,0.406,2.44,1.056
		c0.761-0.15,1.478-0.428,2.122-0.812c-0.248,0.781-0.779,1.437-1.47,1.851c0.677-0.081,1.321-0.261,1.92-0.527
		c-0.448,0.671-1.015,1.259-1.667,1.73c0.006,0.144,0.009,0.288,0.009,0.433C14.635,8.148,11.272,13.241,5.124,13.241"/>
</g>
</svg>
