<?xml version="1.0" encoding="utf-8"?>
<!-- Generator: Adobe Illustrator 16.0.0, SVG Export Plug-In . SVG Version: 6.00 Build 0)  -->
<!DOCTYPE svg PUBLIC "-//W3C//DTD SVG 1.1//EN" "http://www.w3.org/Graphics/SVG/1.1/DTD/svg11.dtd">
<svg version="1.1" id="Vrstva_1" xmlns="http://www.w3.org/2000/svg" xmlns:xlink="http://www.w3.org/1999/xlink" x="0px" y="0px"
	 width="497.479px" height="108.13px" viewBox="0 0 497.479 108.13" enable-background="new 0 0 497.479 108.13"
	 xml:space="preserve">
<g>
	<g>
		<path d="M152.791,31.053c3.445,0,6.549,0.581,9.311,1.743s5.113,2.81,7.055,4.942s3.432,4.689,4.471,7.67s1.559,6.289,1.559,9.925
			c0,3.582-0.513,6.857-1.538,9.824s-2.502,5.51-4.43,7.629s-4.279,3.766-7.055,4.941s-5.899,1.764-9.372,1.764
			c-3.5,0-6.645-0.58-9.434-1.742s-5.154-2.803-7.096-4.922s-3.425-4.662-4.45-7.629s-1.538-6.256-1.538-9.865
			c0-3.636,0.52-6.945,1.559-9.925s2.536-5.537,4.491-7.67s4.32-3.78,7.096-4.942S149.318,31.053,152.791,31.053z M152.709,71.125
			c1.969,0,3.712-0.402,5.229-1.209s2.803-1.914,3.855-3.322s1.846-3.076,2.379-5.004s0.8-4.014,0.8-6.256
			c0-2.214-0.26-4.286-0.779-6.213s-1.292-3.603-2.317-5.024s-2.29-2.536-3.794-3.343s-3.24-1.21-5.209-1.21
			s-3.726,0.396-5.271,1.189s-2.837,1.894-3.876,3.302s-1.832,3.076-2.379,5.004s-0.82,4.026-0.82,6.295
			c0,2.242,0.273,4.328,0.82,6.256s1.34,3.596,2.379,5.004s2.311,2.516,3.814,3.322S150.768,71.125,152.709,71.125z"/>
		<path d="M190.324,49.018c1.258-1.477,2.721-2.646,4.389-3.507s3.65-1.292,5.947-1.292c2.461,0,4.546,0.472,6.255,1.415
			s3.083,2.215,4.122,3.814s1.791,3.438,2.256,5.516c0.465,2.078,0.697,4.266,0.697,6.563c0,2.598-0.308,4.998-0.923,7.199
			s-1.531,4.102-2.748,5.701s-2.714,2.844-4.491,3.732s-3.814,1.332-6.111,1.332c-1.941,0-3.65-0.252-5.127-0.758
			s-2.789-1.334-3.938-2.482v15.504h-9.844V44.834h9.516V49.018z M190.652,69.771c0.957,0.875,1.976,1.539,3.056,1.99
			s2.276,0.676,3.589,0.676c2.133,0,3.773-0.908,4.922-2.727s1.723-4.547,1.723-8.184c0-6.945-2.078-10.417-6.234-10.417
			c-1.34,0-2.598,0.396-3.773,1.189s-2.27,1.914-3.281,3.363V69.771z"/>
		<path d="M236.428,79.492c-2.844,0-5.373-0.402-7.588-1.209s-4.081-1.969-5.599-3.486s-2.666-3.363-3.445-5.537
			s-1.169-4.643-1.169-7.404c0-2.789,0.396-5.283,1.189-7.484c0.793-2.202,1.935-4.068,3.425-5.599s3.309-2.7,5.455-3.507
			s4.587-1.21,7.321-1.21c2.652,0,5.038,0.383,7.157,1.148s3.917,1.887,5.394,3.363s2.611,3.302,3.404,5.476
			c0.793,2.174,1.189,4.668,1.189,7.485v2.379h-24.445c0.027,1.695,0.239,3.145,0.636,4.348s0.937,2.195,1.62,2.975
			s1.483,1.346,2.399,1.701s1.935,0.533,3.056,0.533c1.832,0,3.336-0.383,4.512-1.148s1.969-2.01,2.379-3.732h9.187
			c-0.328,1.777-0.957,3.344-1.887,4.697c-0.929,1.354-2.091,2.488-3.486,3.404s-2.994,1.613-4.799,2.092
			S238.561,79.492,236.428,79.492z M243.4,58.164c-0.219-2.898-0.95-5.038-2.194-6.418s-2.974-2.071-5.188-2.071
			c-2.023,0-3.698,0.752-5.024,2.256s-2.058,3.582-2.194,6.234H243.4z"/>
		<path d="M268.445,49.1c1.559-1.695,3.227-2.96,5.004-3.794s3.637-1.251,5.578-1.251c7.793,0,11.689,4.17,11.689,12.509v22.189
			h-9.844V57.425c0-1.969-0.342-3.486-1.025-4.552s-1.887-1.6-3.609-1.6c-1.422,0-2.734,0.403-3.938,1.21s-2.379,1.866-3.527,3.178
			v23.092h-9.844V44.834h9.516V49.1z"/>
		<path d="M338.399,78.753h-10.336l-3.855-11.156h-16.693l-3.691,11.156h-9.926l16.365-46.88h11.033L338.399,78.753z M321.87,59.517
			l-6.152-19.236l-5.947,19.236H321.87z"/>
		<path d="M350.161,78.753h-9.844v-46.88h9.844V78.753z"/>
		<path d="M376.612,78.835c-1.449,0.328-3.213,0.492-5.291,0.492c-2.543,0-4.512-0.334-5.906-1.004s-2.42-1.621-3.076-2.852
			s-1.046-2.713-1.169-4.449s-0.185-3.672-0.185-5.805v-13.33h-4.471v-7.055h4.471v-8.49h9.721v8.49h5.578v7.055h-5.578v15.093
			c0,1.066,0.075,1.949,0.226,2.646s0.362,1.236,0.636,1.619s0.608,0.65,1.005,0.801s0.841,0.225,1.333,0.225
			c0.93,0,1.832-0.082,2.707-0.246V78.835z"/>
		<path d="M430.096,78.753h-31.828v-6.973l18.293-19.646h-17.104v-7.301h29.449v6.973l-18.375,19.646h19.564V78.753z"/>
		<path d="M446.411,78.753h-10.172v-9.68h10.172V78.753z"/>
		<path d="M467.299,79.492c-2.598,0-4.847-0.225-6.747-0.676s-3.479-1.129-4.737-2.031s-2.222-2.037-2.892-3.404
			s-1.06-2.967-1.169-4.799h8.982c0.082,1.723,0.636,3.035,1.661,3.938s2.659,1.354,4.901,1.354c1.887,0,3.336-0.355,4.348-1.066
			s1.518-1.723,1.518-3.035c0-0.684-0.15-1.236-0.451-1.66s-0.772-0.793-1.415-1.107s-1.456-0.609-2.44-0.883
			s-2.174-0.574-3.568-0.902c-1.668-0.41-3.261-0.854-4.778-1.332s-2.857-1.107-4.02-1.887s-2.085-1.771-2.769-2.975
			s-1.025-2.748-1.025-4.635c0-1.476,0.314-2.85,0.943-4.122s1.552-2.365,2.769-3.281s2.707-1.634,4.471-2.153
			s3.794-0.779,6.091-0.779c4.84,0,8.436,0.848,10.787,2.543s3.568,4.156,3.65,7.383h-8.572c-0.055-1.395-0.588-2.461-1.6-3.199
			s-2.406-1.107-4.184-1.107c-1.531,0-2.782,0.308-3.753,0.923s-1.456,1.511-1.456,2.687c0,0.602,0.096,1.101,0.287,1.498
			s0.554,0.752,1.087,1.066s1.292,0.615,2.276,0.902s2.283,0.621,3.896,1.004c2.133,0.492,4.006,1.006,5.619,1.539
			s2.96,1.195,4.04,1.988s1.9,1.771,2.461,2.934s0.841,2.617,0.841,4.367c0,1.586-0.294,3.043-0.882,4.369s-1.497,2.475-2.728,3.445
			s-2.796,1.729-4.696,2.275S469.897,79.492,467.299,79.492z"/>
		<path d="M497.479,78.753h-10.172v-9.68h10.172V78.753z"/>
	</g>
</g>
<g>
	<path fill="#0A514C" d="M67.173,31.854c-3.841-2.272-8.321-3.577-13.109-3.577c-4.648,0-9.013,1.23-12.778,3.387L27.143,7.168
		C35.068,2.608,44.261,0,54.065,0c9.949,0,19.269,2.686,27.278,7.374L67.173,31.854z"/>
	<path fill="#92C3BC" d="M29.138,47.44c-0.561,2.114-0.859,4.335-0.859,6.625c0,14.241,11.545,25.786,25.785,25.786
		c7.149,0,13.616-2.908,18.287-7.607l19.998,19.998c-9.79,9.814-23.326,15.889-38.283,15.889C24.205,108.13,0,83.925,0,54.065
		c0-4.863,0.641-9.574,1.842-14.057L29.138,47.44z"/>
	<path fill="#009D92" d="M67.173,31.854c7.588,4.488,12.676,12.756,12.676,22.211c0,7.092-2.86,13.516-7.498,18.178l19.998,19.998
		c9.752-9.779,15.78-23.275,15.78-38.176c0.002-19.912-10.76-37.309-26.785-46.691L67.173,31.854z"/>
</g>
</svg>
